<?xml version="1.0" standalone="no"?>
<!DOCTYPE svg PUBLIC "-//W3C//DTD SVG 20010904//EN"
  "http://www.w3.org/TR/2001/REC-SVG-20010904/DTD/svg10.dtd">
<svg width="24" height="24">
  <circle cx="0" cy="0" r="1" fill="white"/>
  <circle cx="1" cy="0" r="1" fill="rgba(99.9741%,99.9725%,99.971%,1)"/>
  <circle cx="2" cy="0" r="1" fill="rgba(99.5468%,99.5361%,99.527%,1)"/>
  <circle cx="3" cy="0" r="1" fill="rgba(99.2508%,99.237%,99.2264%,1)"/>
  <circle cx="4" cy="0" r="1" fill="rgba(99.2416%,99.2279%,99.2172%,1)"/>
  <circle cx="5" cy="0" r="1" fill="rgba(99.2401%,99.2294%,99.2187%,1)"/>
  <circle cx="6" cy="0" r="1" fill="rgba(99.2401%,99.2264%,99.2157%,1)"/>
  <circle cx="7" cy="0" r="1" fill="rgba(99.2401%,99.2264%,99.2157%,1)"/>
  <circle cx="8" cy="0" r="1" fill="rgba(99.2401%,99.2264%,99.2157%,1)"/>
  <circle cx="9" cy="0" r="1" fill="rgba(99.2401%,99.2264%,99.2157%,1)"/>
  <circle cx="10" cy="0" r="1" fill="rgba(99.2401%,99.2264%,99.2157%,1)"/>
  <circle cx="11" cy="0" r="1" fill="rgba(99.2401%,99.2264%,99.2157%,1)"/>
  <circle cx="12" cy="0" r="1" fill="rgba(99.2401%,99.2264%,99.2157%,1)"/>
  <circle cx="13" cy="0" r="1" fill="rgba(99.2401%,99.2264%,99.2157%,1)"/>
  <circle cx="14" cy="0" r="1" fill="rgba(99.2401%,99.2264%,99.2157%,1)"/>
  <circle cx="15" cy="0" r="1" fill="rgba(99.2401%,99.2264%,99.2157%,1)"/>
  <circle cx="16" cy="0" r="1" fill="rgba(99.2401%,99.2264%,99.2157%,1)"/>
  <circle cx="17" cy="0" r="1" fill="rgba(99.2401%,99.2279%,99.2172%,1)"/>
  <circle cx="18" cy="0" r="1" fill="rgba(99.2416%,99.2294%,99.2187%,1)"/>
  <circle cx="19" cy="0" r="1" fill="rgba(99.2416%,99.2279%,99.2172%,1)"/>
  <circle cx="20" cy="0" r="1" fill="rgba(99.2508%,99.237%,99.2264%,1)"/>
  <circle cx="21" cy="0" r="1" fill="rgba(99.5468%,99.5346%,99.527%,1)"/>
  <circle cx="22" cy="0" r="1" fill="rgba(99.9741%,99.9725%,99.971%,1)"/>
  <circle cx="23" cy="0" r="1" fill="white"/>
  <circle cx="0" cy="1" r="1" fill="rgba(99.881%,99.8779%,99.8764%,1)"/>
  <circle cx="1" cy="1" r="1" fill="rgba(96.2753%,96.3104%,96.3333%,1)"/>
  <circle cx="2" cy="1" r="1" fill="rgba(92.2393%,92.5093%,92.7016%,1)"/>
  <circle cx="3" cy="1" r="1" fill="rgba(91.725%,92.0363%,92.2805%,1)"/>
  <circle cx="4" cy="1" r="1" fill="rgba(91.7601%,92.0455%,92.285%,1)"/>
  <circle cx="5" cy="1" r="1" fill="rgba(91.7937%,92.0592%,92.3003%,1)"/>
  <circle cx="6" cy="1" r="1" fill="rgba(91.7952%,92.0867%,92.3278%,1)"/>
  <circle cx="7" cy="1" r="1" fill="rgba(91.7937%,92.0897%,92.3323%,1)"/>
  <circle cx="8" cy="1" r="1" fill="rgba(91.7937%,92.0897%,92.3323%,1)"/>
  <circle cx="9" cy="1" r="1" fill="rgba(91.7937%,92.0897%,92.3323%,1)"/>
  <circle cx="10" cy="1" r="1" fill="rgba(91.7937%,92.0897%,92.3323%,1)"/>
  <circle cx="11" cy="1" r="1" fill="rgba(91.7937%,92.0897%,92.3323%,1)"/>
  <circle cx="12" cy="1" r="1" fill="rgba(91.7937%,92.0897%,92.3323%,1)"/>
  <circle cx="13" cy="1" r="1" fill="rgba(91.7937%,92.0897%,92.3323%,1)"/>
  <circle cx="14" cy="1" r="1" fill="rgba(91.7937%,92.0897%,92.3323%,1)"/>
  <circle cx="15" cy="1" r="1" fill="rgba(91.7937%,92.0897%,92.3323%,1)"/>
  <circle cx="16" cy="1" r="1" fill="rgba(91.7952%,92.0897%,92.3323%,1)"/>
  <circle cx="17" cy="1" r="1" fill="rgba(91.7967%,92.0653%,92.3064%,1)"/>
  <circle cx="18" cy="1" r="1" fill="rgba(91.7678%,92.047%,92.2866%,1)"/>
  <circle cx="19" cy="1" r="1" fill="rgba(91.7494%,92.0455%,92.2866%,1)"/>
  <circle cx="20" cy="1" r="1" fill="rgba(91.7311%,92.0378%,92.2805%,1)"/>
  <circle cx="21" cy="1" r="1" fill="rgba(92.282%,92.5307%,92.7153%,1)"/>
  <circle cx="22" cy="1" r="1" fill="rgba(96.2951%,96.3317%,96.3531%,1)"/>
  <circle cx="23" cy="1" r="1" fill="rgba(99.8795%,99.8779%,99.8764%,1)"/>
  <circle cx="0" cy="2" r="1" fill="rgba(97.1069%,97.0901%,97.0794%,1)"/>
  <circle cx="1" cy="2" r="1" fill="rgba(86.7323%,87.1168%,87.3213%,1)"/>
  <circle cx="2" cy="2" r="1" fill="rgba(83.7613%,84.9226%,85.6184%,1)"/>
  <circle cx="3" cy="2" r="1" fill="rgba(82.9526%,84.1978%,84.9119%,1)"/>
  <circle cx="4" cy="2" r="1" fill="rgba(83.1586%,84.3519%,85.066%,1)"/>
  <circle cx="5" cy="2" r="1" fill="rgba(83.2853%,84.4602%,85.2003%,1)"/>
  <circle cx="6" cy="2" r="1" fill="rgba(83.3433%,84.5731%,85.2903%,1)"/>
  <circle cx="7" cy="2" r="1" fill="rgba(83.3753%,84.6143%,85.3025%,1)"/>
  <circle cx="8" cy="2" r="1" fill="rgba(83.3738%,84.6128%,85.3025%,1)"/>
  <circle cx="9" cy="2" r="1" fill="rgba(83.3783%,84.6189%,85.3071%,1)"/>
  <circle cx="10" cy="2" r="1" fill="rgba(83.3997%,84.6403%,85.33%,1)"/>
  <circle cx="11" cy="2" r="1" fill="rgba(83.4211%,84.6616%,85.3513%,1)"/>
  <circle cx="12" cy="2" r="1" fill="rgba(83.4195%,84.6616%,85.3513%,1)"/>
  <circle cx="13" cy="2" r="1" fill="rgba(83.3982%,84.6387%,85.3285%,1)"/>
  <circle cx="14" cy="2" r="1" fill="rgba(83.3783%,84.6189%,85.3071%,1)"/>
  <circle cx="15" cy="2" r="1" fill="rgba(83.3753%,84.6143%,85.3025%,1)"/>
  <circle cx="16" cy="2" r="1" fill="rgba(83.3555%,84.593%,85.2995%,1)"/>
  <circle cx="17" cy="2" r="1" fill="rgba(83.3021%,84.4892%,85.2262%,1)"/>
  <circle cx="18" cy="2" r="1" fill="rgba(83.2013%,84.3778%,85.1057%,1)"/>
  <circle cx="19" cy="2" r="1" fill="rgba(83.0213%,84.2573%,84.9561%,1)"/>
  <circle cx="20" cy="2" r="1" fill="rgba(82.8962%,84.1398%,84.889%,1)"/>
  <circle cx="21" cy="2" r="1" fill="rgba(83.7812%,84.9424%,85.6245%,1)"/>
  <circle cx="22" cy="2" r="1" fill="rgba(86.7445%,87.1168%,87.3411%,1)"/>
  <circle cx="23" cy="2" r="1" fill="rgba(97.1313%,97.113%,97.1038%,1)"/>
  <circle cx="0" cy="3" r="1" fill="rgba(93.8262%,93.8033%,93.7865%,1)"/>
  <circle cx="1" cy="3" r="1" fill="rgba(80.6378%,81.1398%,81.5076%,1)"/>
  <circle cx="2" cy="3" r="1" fill="rgba(81.3474%,82.6078%,83.5401%,1)"/>
  <circle cx="3" cy="3" r="1" fill="rgba(81.3977%,82.6383%,83.5203%,1)"/>
  <circle cx="4" cy="3" r="1" fill="rgba(81.6831%,82.8687%,83.7919%,1)"/>
  <circle cx="5" cy="3" r="1" fill="rgba(81.8692%,83.1022%,83.9887%,1)"/>
  <circle cx="6" cy="3" r="1" fill="rgba(82.0447%,83.2334%,84.1398%,1)"/>
  <circle cx="7" cy="3" r="1" fill="rgba(82.1118%,83.3326%,84.2283%,1)"/>
  <circle cx="8" cy="3" r="1" fill="rgba(82.0569%,83.2898%,84.1917%,1)"/>
  <circle cx="9" cy="3" r="1" fill="rgba(81.7594%,82.9953%,83.9002%,1)"/>
  <circle cx="10" cy="3" r="1" fill="rgba(81.5732%,82.7939%,83.6835%,1)"/>
  <circle cx="11" cy="3" r="1" fill="rgba(81.4633%,82.6535%,83.5355%,1)"/>
  <circle cx="12" cy="3" r="1" fill="rgba(81.4679%,82.6581%,83.537%,1)"/>
  <circle cx="13" cy="3" r="1" fill="rgba(81.59%,82.8107%,83.6927%,1)"/>
  <circle cx="14" cy="3" r="1" fill="rgba(81.7594%,82.9999%,83.9033%,1)"/>
  <circle cx="15" cy="3" r="1" fill="rgba(82.0584%,83.2929%,84.1947%,1)"/>
  <circle cx="16" cy="3" r="1" fill="rgba(82.089%,83.2822%,84.1871%,1)"/>
  <circle cx="17" cy="3" r="1" fill="rgba(81.915%,83.1434%,84.0314%,1)"/>
  <circle cx="18" cy="3" r="1" fill="rgba(81.7365%,82.9297%,83.8468%,1)"/>
  <circle cx="19" cy="3" r="1" fill="rgba(81.4832%,82.707%,83.5966%,1)"/>
  <circle cx="20" cy="3" r="1" fill="rgba(81.1749%,82.4353%,83.3509%,1)"/>
  <circle cx="21" cy="3" r="1" fill="rgba(81.2848%,82.5406%,83.4882%,1)"/>
  <circle cx="22" cy="3" r="1" fill="rgba(80.6806%,81.1719%,81.5427%,1)"/>
  <circle cx="23" cy="3" r="1" fill="rgba(93.8491%,93.8262%,93.8094%,1)"/>
  <circle cx="0" cy="4" r="1" fill="rgba(93.2128%,93.1884%,93.1701%,1)"/>
  <circle cx="1" cy="4" r="1" fill="rgba(79.1913%,79.7177%,80.1389%,1)"/>
  <circle cx="2" cy="4" r="1" fill="rgba(80.6348%,81.9944%,82.9755%,1)"/>
  <circle cx="3" cy="4" r="1" fill="rgba(80.795%,82.1149%,83.0808%,1)"/>
  <circle cx="4" cy="4" r="1" fill="rgba(81.2314%,82.4994%,83.4394%,1)"/>
  <circle cx="5" cy="4" r="1" fill="rgba(81.5503%,82.8565%,83.7491%,1)"/>
  <circle cx="6" cy="4" r="1" fill="rgba(81.7472%,83.035%,83.9384%,1)"/>
  <circle cx="7" cy="4" r="1" fill="rgba(81.3367%,82.5971%,83.4821%,1)"/>
  <circle cx="8" cy="4" r="1" fill="rgba(81.6266%,82.7054%,83.4745%,1)"/>
  <circle cx="9" cy="4" r="1" fill="rgba(84.2603%,84.9775%,85.4994%,1)"/>
  <circle cx="10" cy="4" r="1" fill="rgba(87.0893%,87.5669%,87.9103%,1)"/>
  <circle cx="11" cy="4" r="1" fill="rgba(88.1743%,88.4962%,88.7831%,1)"/>
  <circle cx="12" cy="4" r="1" fill="rgba(88.1819%,88.5023%,88.7831%,1)"/>
  <circle cx="13" cy="4" r="1" fill="rgba(87.0893%,87.57%,87.9026%,1)"/>
  <circle cx="14" cy="4" r="1" fill="rgba(84.2557%,84.9882%,85.5085%,1)"/>
  <circle cx="15" cy="4" r="1" fill="rgba(81.6403%,82.6871%,83.4607%,1)"/>
  <circle cx="16" cy="4" r="1" fill="rgba(81.3184%,82.5864%,83.4882%,1)"/>
  <circle cx="17" cy="4" r="1" fill="rgba(81.622%,82.9389%,83.8361%,1)"/>
  <circle cx="18" cy="4" r="1" fill="rgba(81.3275%,82.6001%,83.5233%,1)"/>
  <circle cx="19" cy="4" r="1" fill="rgba(80.9094%,82.208%,83.1739%,1)"/>
  <circle cx="20" cy="4" r="1" fill="rgba(80.5173%,81.8799%,82.8519%,1)"/>
  <circle cx="21" cy="4" r="1" fill="rgba(80.4334%,81.7929%,82.7787%,1)"/>
  <circle cx="22" cy="4" r="1" fill="rgba(79.1821%,79.7101%,80.1312%,1)"/>
  <circle cx="23" cy="4" r="1" fill="rgba(93.2128%,93.1884%,93.1701%,1)"/>
  <circle cx="0" cy="5" r="1" fill="rgba(93.0938%,93.0694%,93.051%,1)"/>
  <circle cx="1" cy="5" r="1" fill="rgba(78.4497%,79.0112%,79.4354%,1)"/>
  <circle cx="2" cy="5" r="1" fill="rgba(79.9496%,81.3016%,82.3102%,1)"/>
  <circle cx="3" cy="5" r="1" fill="rgba(80.238%,81.5625%,82.5315%,1)"/>
  <circle cx="4" cy="5" r="1" fill="rgba(80.7889%,82.0218%,82.9969%,1)"/>
  <circle cx="5" cy="5" r="1" fill="rgba(81.1139%,82.3438%,83.2837%,1)"/>
  <circle cx="6" cy="5" r="1" fill="rgba(80.6104%,81.7853%,82.6062%,1)"/>
  <circle cx="7" cy="5" r="1" fill="rgba(83.621%,84.3198%,84.7395%,1)"/>
  <circle cx="8" cy="5" r="1" fill="rgba(89.3034%,89.4865%,89.6178%,1)"/>
  <circle cx="9" cy="5" r="1" fill="rgba(92.1752%,92.1828%,92.1904%,1)"/>
  <circle cx="10" cy="5" r="1" fill="rgba(92.7993%,92.781%,92.7672%,1)"/>
  <circle cx="11" cy="5" r="1" fill="rgba(86.8528%,86.8345%,86.8193%,1)"/>
  <circle cx="12" cy="5" r="1" fill="rgba(86.8406%,86.8208%,86.807%,1)"/>
  <circle cx="13" cy="5" r="1" fill="rgba(92.7184%,92.7001%,92.6864%,1)"/>
  <circle cx="14" cy="5" r="1" fill="rgba(92.1798%,92.1859%,92.192%,1)"/>
  <circle cx="15" cy="5" r="1" fill="rgba(89.2744%,89.4209%,89.5766%,1)"/>
  <circle cx="16" cy="5" r="1" fill="rgba(83.5508%,84.2222%,84.7288%,1)"/>
  <circle cx="17" cy="5" r="1" fill="rgba(80.5142%,81.6876%,82.5589%,1)"/>
  <circle cx="18" cy="5" r="1" fill="rgba(80.8804%,82.1088%,83.0838%,1)"/>
  <circle cx="19" cy="5" r="1" fill="rgba(80.3906%,81.6922%,82.6612%,1)"/>
  <circle cx="20" cy="5" r="1" fill="rgba(79.8718%,81.2222%,82.2171%,1)"/>
  <circle cx="21" cy="5" r="1" fill="rgba(79.6735%,81.0224%,82.0432%,1)"/>
  <circle cx="22" cy="5" r="1" fill="rgba(78.4039%,78.9639%,79.3881%,1)"/>
  <circle cx="23" cy="5" r="1" fill="rgba(93.0968%,93.0724%,93.0541%,1)"/>
  <circle cx="0" cy="6" r="1" fill="rgba(92.8405%,92.8176%,92.7962%,1)"/>
  <circle cx="1" cy="6" r="1" fill="rgba(77.5738%,78.146%,78.6404%,1)"/>
  <circle cx="2" cy="6" r="1" fill="rgba(79.1196%,80.4395%,81.6114%,1)"/>
  <circle cx="3" cy="6" r="1" fill="rgba(79.5056%,80.7843%,81.8799%,1)"/>
  <circle cx="4" cy="6" r="1" fill="rgba(80.087%,81.2985%,82.385%,1)"/>
  <circle cx="5" cy="6" r="1" fill="rgba(79.6735%,80.7935%,81.7609%,1)"/>
  <circle cx="6" cy="6" r="1" fill="rgba(84.1428%,84.715%,85.1301%,1)"/>
  <circle cx="7" cy="6" r="1" fill="rgba(91.046%,91.075%,91.078%,1)"/>
  <circle cx="8" cy="6" r="1" fill="rgba(92.8862%,92.8725%,92.8634%,1)"/>
  <circle cx="9" cy="6" r="1" fill="rgba(93.37%,93.37%,93.3684%,1)"/>
  <circle cx="10" cy="6" r="1" fill="rgba(92.2942%,92.2942%,92.2942%,1)"/>
  <circle cx="11" cy="6" r="1" fill="rgba(81.3245%,81.323%,81.323%,1)"/>
  <circle cx="12" cy="6" r="1" fill="rgba(81.3367%,81.3352%,81.3352%,1)"/>
  <circle cx="13" cy="6" r="1" fill="rgba(92.3018%,92.3018%,92.3018%,1)"/>
  <circle cx="14" cy="6" r="1" fill="rgba(93.3791%,93.3776%,93.3776%,1)"/>
  <circle cx="15" cy="6" r="1" fill="rgba(92.9091%,92.8985%,92.8878%,1)"/>
  <circle cx="16" cy="6" r="1" fill="rgba(91.0231%,91.0506%,91.0536%,1)"/>
  <circle cx="17" cy="6" r="1" fill="rgba(84.1016%,84.5899%,85.0019%,1)"/>
  <circle cx="18" cy="6" r="1" fill="rgba(79.4476%,80.5692%,81.6129%,1)"/>
  <circle cx="19" cy="6" r="1" fill="rgba(79.675%,80.9537%,82.0294%,1)"/>
  <circle cx="20" cy="6" r="1" fill="rgba(79.086%,80.3906%,81.5518%,1)"/>
  <circle cx="21" cy="6" r="1" fill="rgba(78.7869%,80.1343%,81.3046%,1)"/>
  <circle cx="22" cy="6" r="1" fill="rgba(77.4823%,78.0529%,78.5473%,1)"/>
  <circle cx="23" cy="6" r="1" fill="rgba(92.8466%,92.8237%,92.8023%,1)"/>
  <circle cx="0" cy="7" r="1" fill="rgba(92.6497%,92.6253%,92.604%,1)"/>
  <circle cx="1" cy="7" r="1" fill="rgba(76.7315%,77.3175%,77.821%,1)"/>
  <circle cx="2" cy="7" r="1" fill="rgba(78.3627%,79.6612%,80.827%,1)"/>
  <circle cx="3" cy="7" r="1" fill="rgba(78.7869%,80.1083%,81.2055%,1)"/>
  <circle cx="4" cy="7" r="1" fill="rgba(78.6236%,79.8901%,80.9674%,1)"/>
  <circle cx="5" cy="7" r="1" fill="rgba(81.8616%,82.4933%,83.0137%,1)"/>
  <circle cx="6" cy="7" r="1" fill="rgba(90.5516%,90.576%,90.5913%,1)"/>
  <circle cx="7" cy="7" r="1" fill="rgba(92.99%,92.9839%,92.9808%,1)"/>
  <circle cx="8" cy="7" r="1" fill="rgba(93.0846%,93.0846%,93.0846%,1)"/>
  <circle cx="9" cy="7" r="1" fill="rgba(91.371%,91.3649%,91.3603%,1)"/>
  <circle cx="10" cy="7" r="1" fill="rgba(89.1951%,89.1814%,89.1691%,1)"/>
  <circle cx="11" cy="7" r="1" fill="rgba(85.9953%,85.9983%,86.009%,1)"/>
  <circle cx="12" cy="7" r="1" fill="rgba(85.9983%,86.006%,86.0136%,1)"/>
  <circle cx="13" cy="7" r="1" fill="rgba(89.1981%,89.1859%,89.1722%,1)"/>
  <circle cx="14" cy="7" r="1" fill="rgba(91.3344%,91.3283%,91.3237%,1)"/>
  <circle cx="15" cy="7" r="1" fill="rgba(93.0816%,93.0831%,93.0831%,1)"/>
  <circle cx="16" cy="7" r="1" fill="rgba(92.9992%,92.9931%,92.99%,1)"/>
  <circle cx="17" cy="7" r="1" fill="rgba(90.5745%,90.5913%,90.6065%,1)"/>
  <circle cx="18" cy="7" r="1" fill="rgba(81.6648%,82.3407%,82.8931%,1)"/>
  <circle cx="19" cy="7" r="1" fill="rgba(78.2437%,79.5575%,80.6271%,1)"/>
  <circle cx="20" cy="7" r="1" fill="rgba(78.3917%,79.675%,80.827%,1)"/>
  <circle cx="21" cy="7" r="1" fill="rgba(77.9797%,79.3454%,80.5264%,1)"/>
  <circle cx="22" cy="7" r="1" fill="rgba(76.6201%,77.2061%,77.7096%,1)"/>
  <circle cx="23" cy="7" r="1" fill="rgba(92.6574%,92.6329%,92.6116%,1)"/>
  <circle cx="0" cy="8" r="1" fill="rgba(92.462%,92.4361%,92.4163%,1)"/>
  <circle cx="1" cy="8" r="1" fill="rgba(75.8572%,76.4508%,76.9909%,1)"/>
  <circle cx="2" cy="8" r="1" fill="rgba(77.5158%,78.9075%,80.0229%,1)"/>
  <circle cx="3" cy="8" r="1" fill="rgba(77.8576%,79.237%,80.3204%,1)"/>
  <circle cx="4" cy="8" r="1" fill="rgba(77.7905%,78.8067%,79.6612%,1)"/>
  <circle cx="5" cy="8" r="1" fill="rgba(87.3655%,87.454%,87.5608%,1)"/>
  <circle cx="6" cy="8" r="1" fill="rgba(92.7138%,92.7047%,92.6955%,1)"/>
  <circle cx="7" cy="8" r="1" fill="rgba(93.0648%,93.0648%,93.0663%,1)"/>
  <circle cx="8" cy="8" r="1" fill="rgba(90.396%,90.3883%,90.3807%,1)"/>
  <circle cx="9" cy="8" r="1" fill="rgba(85.2781%,85.3651%,85.4444%,1)"/>
  <circle cx="10" cy="8" r="1" fill="rgba(80.5081%,80.9415%,81.3519%,1)"/>
  <circle cx="11" cy="8" r="1" fill="rgba(79.4049%,80.1617%,80.7553%,1)"/>
  <circle cx="12" cy="8" r="1" fill="rgba(79.3927%,80.1663%,80.7248%,1)"/>
  <circle cx="13" cy="8" r="1" fill="rgba(80.5234%,80.9232%,81.3306%,1)"/>
  <circle cx="14" cy="8" r="1" fill="rgba(85.3239%,85.4108%,85.4795%,1)"/>
  <circle cx="15" cy="8" r="1" fill="rgba(90.3639%,90.3548%,90.3456%,1)"/>
  <circle cx="16" cy="8" r="1" fill="rgba(93.0434%,93.0434%,93.0434%,1)"/>
  <circle cx="17" cy="8" r="1" fill="rgba(92.697%,92.6864%,92.6787%,1)"/>
  <circle cx="18" cy="8" r="1" fill="rgba(87.2953%,87.4098%,87.5181%,1)"/>
  <circle cx="19" cy="8" r="1" fill="rgba(77.4853%,78.5214%,79.3805%,1)"/>
  <circle cx="20" cy="8" r="1" fill="rgba(77.4502%,78.8449%,79.9435%,1)"/>
  <circle cx="21" cy="8" r="1" fill="rgba(77.1344%,78.5367%,79.7223%,1)"/>
  <circle cx="22" cy="8" r="1" fill="rgba(75.7458%,76.3394%,76.8795%,1)"/>
  <circle cx="23" cy="8" r="1" fill="rgba(92.4681%,92.4437%,92.4239%,1)"/>
  <circle cx="0" cy="9" r="1" fill="rgba(92.2103%,92.1859%,92.1614%,1)"/>
  <circle cx="1" cy="9" r="1" fill="rgba(74.8882%,75.5016%,76.0983%,1)"/>
  <circle cx="2" cy="9" r="1" fill="rgba(76.5225%,77.9355%,79.2477%,1)"/>
  <circle cx="3" cy="9" r="1" fill="rgba(76.2539%,77.6196%,78.8525%,1)"/>
  <circle cx="4" cy="9" r="1" fill="rgba(79.6933%,80.3143%,80.8209%,1)"/>
  <circle cx="5" cy="9" r="1" fill="rgba(90.5867%,90.5715%,90.5562%,1)"/>
  <circle cx="6" cy="9" r="1" fill="rgba(93.2937%,93.2937%,93.2921%,1)"/>
  <circle cx="7" cy="9" r="1" fill="rgba(91.2657%,91.2596%,91.2505%,1)"/>
  <circle cx="8" cy="9" r="1" fill="rgba(85.0416%,85.1286%,85.2705%,1)"/>
  <circle cx="9" cy="9" r="1" fill="rgba(77.4472%,78.2071%,79.0463%,1)"/>
  <circle cx="10" cy="9" r="1" fill="rgba(78.1949%,79.4171%,80.5936%,1)"/>
  <circle cx="11" cy="9" r="1" fill="rgba(79.7681%,81.0742%,82.2614%,1)"/>
  <circle cx="12" cy="9" r="1" fill="rgba(79.7879%,81.091%,82.2751%,1)"/>
  <circle cx="13" cy="9" r="1" fill="rgba(78.1979%,79.4079%,80.6012%,1)"/>
  <circle cx="14" cy="9" r="1" fill="rgba(77.6226%,78.439%,79.1928%,1)"/>
  <circle cx="15" cy="9" r="1" fill="rgba(85.1499%,85.2628%,85.3605%,1)"/>
  <circle cx="16" cy="9" r="1" fill="rgba(91.2581%,91.2505%,91.2444%,1)"/>
  <circle cx="17" cy="9" r="1" fill="rgba(93.2769%,93.2769%,93.2769%,1)"/>
  <circle cx="18" cy="9" r="1" fill="rgba(90.5394%,90.5211%,90.5074%,1)"/>
  <circle cx="19" cy="9" r="1" fill="rgba(79.5087%,80.1266%,80.6744%,1)"/>
  <circle cx="20" cy="9" r="1" fill="rgba(75.8068%,77.2061%,78.4878%,1)"/>
  <circle cx="21" cy="9" r="1" fill="rgba(76.1883%,77.6043%,78.9471%,1)"/>
  <circle cx="22" cy="9" r="1" fill="rgba(74.7768%,75.3918%,75.9884%,1)"/>
  <circle cx="23" cy="9" r="1" fill="rgba(92.2179%,92.1935%,92.1691%,1)"/>
  <circle cx="0" cy="10" r="1" fill="rgba(92.0806%,92.0531%,92.0302%,1)"/>
  <circle cx="1" cy="10" r="1" fill="rgba(74.0093%,74.6975%,75.3307%,1)"/>
  <circle cx="2" cy="10" r="1" fill="rgba(75.6191%,77.1084%,78.4909%,1)"/>
  <circle cx="3" cy="10" r="1" fill="rgba(74.7326%,76.1013%,77.3175%,1)"/>
  <circle cx="4" cy="10" r="1" fill="rgba(82.3423%,82.6337%,82.9404%,1)"/>
  <circle cx="5" cy="10" r="1" fill="rgba(92.343%,92.3262%,92.3079%,1)"/>
  <circle cx="6" cy="10" r="1" fill="rgba(93.2479%,93.2479%,93.2479%,1)"/>
  <circle cx="7" cy="10" r="1" fill="rgba(89.1035%,89.0974%,89.0944%,1)"/>
  <circle cx="8" cy="10" r="1" fill="rgba(77.8592%,78.5229%,79.0936%,1)"/>
  <circle cx="9" cy="10" r="1" fill="rgba(76.0098%,77.4182%,78.6435%,1)"/>
  <circle cx="10" cy="10" r="1" fill="rgba(78.912%,80.2487%,81.4527%,1)"/>
  <circle cx="11" cy="10" r="1" fill="rgba(80.7294%,82.0172%,83.1037%,1)"/>
  <circle cx="12" cy="10" r="1" fill="rgba(80.5936%,81.8647%,82.9221%,1)"/>
  <circle cx="13" cy="10" r="1" fill="rgba(79.0082%,80.3128%,81.4954%,1)"/>
  <circle cx="14" cy="10" r="1" fill="rgba(76.0494%,77.4716%,78.6816%,1)"/>
  <circle cx="15" cy="10" r="1" fill="rgba(78.1003%,78.8159%,79.3545%,1)"/>
  <circle cx="16" cy="10" r="1" fill="rgba(89.1829%,89.1798%,89.1768%,1)"/>
  <circle cx="17" cy="10" r="1" fill="rgba(93.2708%,93.2708%,93.2692%,1)"/>
  <circle cx="18" cy="10" r="1" fill="rgba(92.3308%,92.314%,92.2988%,1)"/>
  <circle cx="19" cy="10" r="1" fill="rgba(82.1958%,82.5101%,82.7802%,1)"/>
  <circle cx="20" cy="10" r="1" fill="rgba(74.3099%,75.6542%,76.9146%,1)"/>
  <circle cx="21" cy="10" r="1" fill="rgba(75.317%,76.7956%,78.1918%,1)"/>
  <circle cx="22" cy="10" r="1" fill="rgba(73.9086%,74.5876%,75.2193%,1)"/>
  <circle cx="23" cy="10" r="1" fill="rgba(92.0882%,92.0607%,92.0378%,1)"/>
  <circle cx="0" cy="11" r="1" fill="rgba(91.7556%,91.7296%,91.7052%,1)"/>
  <circle cx="1" cy="11" r="1" fill="rgba(72.9397%,73.6492%,74.2901%,1)"/>
  <circle cx="2" cy="11" r="1" fill="rgba(74.8043%,76.3027%,77.6974%,1)"/>
  <circle cx="3" cy="11" r="1" fill="rgba(73.4691%,74.7417%,75.8938%,1)"/>
  <circle cx="4" cy="11" r="1" fill="rgba(81.1536%,81.3397%,81.4847%,1)"/>
  <circle cx="5" cy="11" r="1" fill="rgba(87.1687%,87.1565%,87.1473%,1)"/>
  <circle cx="6" cy="11" r="1" fill="rgba(87.3945%,87.3899%,87.3854%,1)"/>
  <circle cx="7" cy="11" r="1" fill="rgba(84.3626%,84.4221%,84.4953%,1)"/>
  <circle cx="8" cy="11" r="1" fill="rgba(74.1466%,75.2743%,76.2127%,1)"/>
  <circle cx="9" cy="11" r="1" fill="rgba(77.0382%,78.4237%,79.5758%,1)"/>
  <circle cx="10" cy="11" r="1" fill="rgba(83.7827%,84.6113%,85.3071%,1)"/>
  <circle cx="11" cy="11" r="1" fill="rgba(81.3733%,82.5116%,83.415%,1)"/>
  <circle cx="12" cy="11" r="1" fill="rgba(84.0269%,84.9546%,85.6626%,1)"/>
  <circle cx="13" cy="11" r="1" fill="rgba(84.1382%,84.9714%,85.6779%,1)"/>
  <circle cx="14" cy="11" r="1" fill="rgba(77.2457%,78.6099%,79.7467%,1)"/>
  <circle cx="15" cy="11" r="1" fill="rgba(74.1207%,75.2789%,76.2097%,1)"/>
  <circle cx="16" cy="11" r="1" fill="rgba(84.4053%,84.4739%,84.5441%,1)"/>
  <circle cx="17" cy="11" r="1" fill="rgba(87.5105%,87.5059%,87.5013%,1)"/>
  <circle cx="18" cy="11" r="1" fill="rgba(87.2236%,87.2114%,87.2007%,1)"/>
  <circle cx="19" cy="11" r="1" fill="rgba(81.1109%,81.3001%,81.4664%,1)"/>
  <circle cx="20" cy="11" r="1" fill="rgba(73.138%,74.403%,75.5779%,1)"/>
  <circle cx="21" cy="11" r="1" fill="rgba(74.5006%,75.9899%,77.3861%,1)"/>
  <circle cx="22" cy="11" r="1" fill="rgba(72.842%,73.5454%,74.1878%,1)"/>
  <circle cx="23" cy="11" r="1" fill="rgba(91.7632%,91.7357%,91.7128%,1)"/>
  <circle cx="0" cy="12" r="1" fill="rgba(91.6304%,91.603%,91.5816%,1)"/>
  <circle cx="1" cy="12" r="1" fill="rgba(72.0668%,72.8099%,73.4035%,1)"/>
  <circle cx="2" cy="12" r="1" fill="rgba(73.959%,75.5642%,76.8658%,1)"/>
  <circle cx="3" cy="12" r="1" fill="rgba(72.4178%,73.7453%,74.8302%,1)"/>
  <circle cx="4" cy="12" r="1" fill="rgba(78.5046%,78.6694%,78.7976%,1)"/>
  <circle cx="5" cy="12" r="1" fill="rgba(81.0788%,81.0681%,81.0605%,1)"/>
  <circle cx="6" cy="12" r="1" fill="rgba(81.5259%,81.5183%,81.5122%,1)"/>
  <circle cx="7" cy="12" r="1" fill="rgba(81.7655%,81.8723%,81.9577%,1)"/>
  <circle cx="8" cy="12" r="1" fill="rgba(72.5795%,73.8125%,74.7127%,1)"/>
  <circle cx="9" cy="12" r="1" fill="rgba(76.5667%,77.9217%,78.9364%,1)"/>
  <circle cx="10" cy="12" r="1" fill="rgba(89.4987%,89.9397%,90.219%,1)"/>
  <circle cx="11" cy="12" r="1" fill="rgba(82.6413%,83.6973%,84.3915%,1)"/>
  <circle cx="12" cy="12" r="1" fill="rgba(84.6235%,85.5482%,86.1326%,1)"/>
  <circle cx="13" cy="12" r="1" fill="rgba(86.244%,86.9871%,87.4662%,1)"/>
  <circle cx="14" cy="12" r="1" fill="rgba(76.6888%,78.0346%,79.0433%,1)"/>
  <circle cx="15" cy="12" r="1" fill="rgba(72.5414%,73.8338%,74.7646%,1)"/>
  <circle cx="16" cy="12" r="1" fill="rgba(81.799%,81.9287%,82.0325%,1)"/>
  <circle cx="17" cy="12" r="1" fill="rgba(81.7487%,81.7395%,81.7334%,1)"/>
  <circle cx="18" cy="12" r="1" fill="rgba(81.2894%,81.2787%,81.2696%,1)"/>
  <circle cx="19" cy="12" r="1" fill="rgba(78.4878%,78.6603%,78.7884%,1)"/>
  <circle cx="20" cy="12" r="1" fill="rgba(72.0745%,73.4203%,74.4961%,1)"/>
  <circle cx="21" cy="12" r="1" fill="rgba(73.6553%,75.2529%,76.5194%,1)"/>
  <circle cx="22" cy="12" r="1" fill="rgba(71.9677%,72.7199%,73.3501%,1)"/>
  <circle cx="23" cy="12" r="1" fill="rgba(91.6381%,91.6091%,91.5862%,1)"/>
  <circle cx="0" cy="13" r="1" fill="rgba(91.3649%,91.3359%,91.313%,1)"/>
  <circle cx="1" cy="13" r="1" fill="rgba(71.1604%,71.899%,72.5429%,1)"/>
  <circle cx="2" cy="13" r="1" fill="rgba(72.99%,74.641%,76.0571%,1)"/>
  <circle cx="3" cy="13" r="1" fill="rgba(71.4824%,72.874%,74.1543%,1)"/>
  <circle cx="4" cy="13" r="1" fill="rgba(79.8825%,80.1099%,80.3494%,1)"/>
  <circle cx="5" cy="13" r="1" fill="rgba(91.5816%,91.5663%,91.5526%,1)"/>
  <circle cx="6" cy="13" r="1" fill="rgba(92.4788%,92.4758%,92.4743%,1)"/>
  <circle cx="7" cy="13" r="1" fill="rgba(88.5847%,88.6213%,88.6488%,1)"/>
  <circle cx="8" cy="13" r="1" fill="rgba(73.6507%,74.6471%,75.3994%,1)"/>
  <circle cx="9" cy="13" r="1" fill="rgba(72.5093%,74.0017%,75.1217%,1)"/>
  <circle cx="10" cy="13" r="1" fill="rgba(76.0189%,77.3556%,78.3185%,1)"/>
  <circle cx="11" cy="13" r="1" fill="rgba(75.14%,76.6217%,77.7188%,1)"/>
  <circle cx="12" cy="13" r="1" fill="rgba(77.2457%,78.5412%,79.5087%,1)"/>
  <circle cx="13" cy="13" r="1" fill="rgba(77.0947%,78.3536%,79.2615%,1)"/>
  <circle cx="14" cy="13" r="1" fill="rgba(72.6787%,74.1543%,75.2651%,1)"/>
  <circle cx="15" cy="13" r="1" fill="rgba(73.7423%,74.728%,75.4437%,1)"/>
  <circle cx="16" cy="13" r="1" fill="rgba(88.6381%,88.6778%,88.7007%,1)"/>
  <circle cx="17" cy="13" r="1" fill="rgba(92.5444%,92.5414%,92.5399%,1)"/>
  <circle cx="18" cy="13" r="1" fill="rgba(91.5785%,91.5633%,91.5496%,1)"/>
  <circle cx="19" cy="13" r="1" fill="rgba(79.8199%,80.061%,80.2945%,1)"/>
  <circle cx="20" cy="13" r="1" fill="rgba(71.162%,72.607%,73.843%,1)"/>
  <circle cx="21" cy="13" r="1" fill="rgba(72.694%,74.3603%,75.7229%,1)"/>
  <circle cx="22" cy="13" r="1" fill="rgba(71.0033%,71.7922%,72.4926%,1)"/>
  <circle cx="23" cy="13" r="1" fill="rgba(91.371%,91.3436%,91.3176%,1)"/>
  <circle cx="0" cy="14" r="1" fill="rgba(91.1208%,91.0933%,91.0658%,1)"/>
  <circle cx="1" cy="14" r="1" fill="rgba(70.2419%,71.0323%,71.7372%,1)"/>
  <circle cx="2" cy="14" r="1" fill="rgba(71.989%,73.6416%,75.2255%,1)"/>
  <circle cx="3" cy="14" r="1" fill="rgba(71.2291%,72.7123%,74.2077%,1)"/>
  <circle cx="4" cy="14" r="1" fill="rgba(75.5138%,76.0281%,76.4736%,1)"/>
  <circle cx="5" cy="14" r="1" fill="rgba(90.1747%,90.1518%,90.132%,1)"/>
  <circle cx="6" cy="14" r="1" fill="rgba(93.3715%,93.3715%,93.3715%,1)"/>
  <circle cx="7" cy="14" r="1" fill="rgba(91.6197%,91.6091%,91.5953%,1)"/>
  <circle cx="8" cy="14" r="1" fill="rgba(81.8036%,82.15%,82.475%,1)"/>
  <circle cx="9" cy="14" r="1" fill="rgba(69.9962%,71.3329%,72.3369%,1)"/>
  <circle cx="10" cy="14" r="1" fill="rgba(70.7515%,72.398%,73.5088%,1)"/>
  <circle cx="11" cy="14" r="1" fill="rgba(71.5984%,73.1655%,74.3313%,1)"/>
  <circle cx="12" cy="14" r="1" fill="rgba(71.4961%,73.0724%,74.2428%,1)"/>
  <circle cx="13" cy="14" r="1" fill="rgba(70.7073%,72.3583%,73.4707%,1)"/>
  <circle cx="14" cy="14" r="1" fill="rgba(69.9779%,71.3344%,72.3354%,1)"/>
  <circle cx="15" cy="14" r="1" fill="rgba(81.9272%,82.269%,82.5635%,1)"/>
  <circle cx="16" cy="14" r="1" fill="rgba(91.6899%,91.6762%,91.6625%,1)"/>
  <circle cx="17" cy="14" r="1" fill="rgba(93.3654%,93.3654%,93.3654%,1)"/>
  <circle cx="18" cy="14" r="1" fill="rgba(90.1152%,90.0938%,90.071%,1)"/>
  <circle cx="19" cy="14" r="1" fill="rgba(75.3292%,75.8068%,76.2875%,1)"/>
  <circle cx="20" cy="14" r="1" fill="rgba(70.7958%,72.3552%,73.8659%,1)"/>
  <circle cx="21" cy="14" r="1" fill="rgba(71.7433%,73.4127%,74.992%,1)"/>
  <circle cx="22" cy="14" r="1" fill="rgba(70.0587%,70.8598%,71.6365%,1)"/>
  <circle cx="23" cy="14" r="1" fill="rgba(91.1269%,91.0994%,91.0719%,1)"/>
  <circle cx="0" cy="15" r="1" fill="rgba(90.9239%,90.8934%,90.8675%,1)"/>
  <circle cx="1" cy="15" r="1" fill="rgba(69.1691%,70.0481%,70.8141%,1)"/>
  <circle cx="2" cy="15" r="1" fill="rgba(70.9682%,72.7565%,74.342%,1)"/>
  <circle cx="3" cy="15" r="1" fill="rgba(71.3573%,73.0739%,74.6075%,1)"/>
  <circle cx="4" cy="15" r="1" fill="rgba(70.5669%,71.6075%,72.4483%,1)"/>
  <circle cx="5" cy="15" r="1" fill="rgba(84.4678%,84.4968%,84.5182%,1)"/>
  <circle cx="6" cy="15" r="1" fill="rgba(92.8252%,92.8222%,92.8191%,1)"/>
  <circle cx="7" cy="15" r="1" fill="rgba(92.9229%,92.9213%,92.9213%,1)"/>
  <circle cx="8" cy="15" r="1" fill="rgba(90.8049%,90.8095%,90.8095%,1)"/>
  <circle cx="9" cy="15" r="1" fill="rgba(80.9827%,81.4847%,81.7273%,1)"/>
  <circle cx="10" cy="15" r="1" fill="rgba(70.9255%,72.1675%,72.9198%,1)"/>
  <circle cx="11" cy="15" r="1" fill="rgba(68.8594%,70.3197%,71.3069%,1)"/>
  <circle cx="12" cy="15" r="1" fill="rgba(68.8777%,70.3471%,71.3344%,1)"/>
  <circle cx="13" cy="15" r="1" fill="rgba(70.8919%,72.1263%,72.8969%,1)"/>
  <circle cx="14" cy="15" r="1" fill="rgba(80.914%,81.4237%,81.7136%,1)"/>
  <circle cx="15" cy="15" r="1" fill="rgba(90.7378%,90.7454%,90.7439%,1)"/>
  <circle cx="16" cy="15" r="1" fill="rgba(92.9046%,92.903%,92.903%,1)"/>
  <circle cx="17" cy="15" r="1" fill="rgba(92.8161%,92.8115%,92.8084%,1)"/>
  <circle cx="18" cy="15" r="1" fill="rgba(84.4404%,84.4785%,84.4999%,1)"/>
  <circle cx="19" cy="15" r="1" fill="rgba(70.3182%,71.3832%,72.2545%,1)"/>
  <circle cx="20" cy="15" r="1" fill="rgba(70.9209%,72.6848%,74.2473%,1)"/>
  <circle cx="21" cy="15" r="1" fill="rgba(70.6905%,72.488%,74.078%,1)"/>
  <circle cx="22" cy="15" r="1" fill="rgba(69.0227%,69.9016%,70.6783%,1)"/>
  <circle cx="23" cy="15" r="1" fill="rgba(90.9316%,90.901%,90.8736%,1)"/>
  <circle cx="0" cy="16" r="1" fill="rgba(90.7073%,90.6767%,90.6493%,1)"/>
  <circle cx="1" cy="16" r="1" fill="rgba(68.3162%,69.1722%,69.9886%,1)"/>
  <circle cx="2" cy="16" r="1" fill="rgba(70.1198%,71.8349%,73.5042%,1)"/>
  <circle cx="3" cy="16" r="1" fill="rgba(70.8354%,72.5414%,74.1161%,1)"/>
  <circle cx="4" cy="16" r="1" fill="rgba(69.5659%,71.0582%,72.43%,1)"/>
  <circle cx="5" cy="16" r="1" fill="rgba(74.4015%,74.8089%,75.1812%,1)"/>
  <circle cx="6" cy="16" r="1" fill="rgba(88.7297%,88.7053%,88.687%,1)"/>
  <circle cx="7" cy="16" r="1" fill="rgba(93.257%,93.257%,93.257%,1)"/>
  <circle cx="8" cy="16" r="1" fill="rgba(93.0114%,93.0098%,93.0083%,1)"/>
  <circle cx="9" cy="16" r="1" fill="rgba(92.0073%,91.9936%,91.986%,1)"/>
  <circle cx="10" cy="16" r="1" fill="rgba(88.3803%,88.4779%,88.5634%,1)"/>
  <circle cx="11" cy="16" r="1" fill="rgba(83.7476%,84.0101%,84.2527%,1)"/>
  <circle cx="12" cy="16" r="1" fill="rgba(83.7781%,84.0421%,84.303%,1)"/>
  <circle cx="13" cy="16" r="1" fill="rgba(88.3757%,88.455%,88.5542%,1)"/>
  <circle cx="14" cy="16" r="1" fill="rgba(91.9112%,91.8944%,91.8898%,1)"/>
  <circle cx="15" cy="16" r="1" fill="rgba(92.9732%,92.9717%,92.9702%,1)"/>
  <circle cx="16" cy="16" r="1" fill="rgba(93.2464%,93.2464%,93.2464%,1)"/>
  <circle cx="17" cy="16" r="1" fill="rgba(88.7221%,88.7068%,88.6839%,1)"/>
  <circle cx="18" cy="16" r="1" fill="rgba(74.2855%,74.6807%,75.0942%,1)"/>
  <circle cx="19" cy="16" r="1" fill="rgba(69.2454%,70.7744%,72.1859%,1)"/>
  <circle cx="20" cy="16" r="1" fill="rgba(70.4662%,72.1614%,73.8018%,1)"/>
  <circle cx="21" cy="16" r="1" fill="rgba(69.8024%,71.5511%,73.2219%,1)"/>
  <circle cx="22" cy="16" r="1" fill="rgba(68.2048%,69.0608%,69.8772%,1)"/>
  <circle cx="23" cy="16" r="1" fill="rgba(90.7149%,90.6844%,90.6569%,1)"/>
  <circle cx="0" cy="17" r="1" fill="rgba(90.6584%,90.6294%,90.5989%,1)"/>
  <circle cx="1" cy="17" r="1" fill="rgba(67.6432%,68.5145%,69.3919%,1)"/>
  <circle cx="2" cy="17" r="1" fill="rgba(69.1051%,70.8354%,72.6299%,1)"/>
  <circle cx="3" cy="17" r="1" fill="rgba(69.7078%,71.3787%,73.1106%,1)"/>
  <circle cx="4" cy="17" r="1" fill="rgba(70.0999%,71.8181%,73.5241%,1)"/>
  <circle cx="5" cy="17" r="1" fill="rgba(68.3787%,69.6086%,70.8659%,1)"/>
  <circle cx="6" cy="17" r="1" fill="rgba(76.2509%,76.4538%,76.6842%,1)"/>
  <circle cx="7" cy="17" r="1" fill="rgba(88.7007%,88.6824%,88.661%,1)"/>
  <circle cx="8" cy="17" r="1" fill="rgba(92.9839%,92.9824%,92.9808%,1)"/>
  <circle cx="9" cy="17" r="1" fill="rgba(93.3669%,93.3669%,93.3669%,1)"/>
  <circle cx="10" cy="17" r="1" fill="rgba(92.7245%,92.7184%,92.7123%,1)"/>
  <circle cx="11" cy="17" r="1" fill="rgba(90.3044%,90.2876%,90.2724%,1)"/>
  <circle cx="12" cy="17" r="1" fill="rgba(90.3319%,90.3151%,90.2998%,1)"/>
  <circle cx="13" cy="17" r="1" fill="rgba(92.7398%,92.7337%,92.7291%,1)"/>
  <circle cx="14" cy="17" r="1" fill="rgba(93.3486%,93.3486%,93.3501%,1)"/>
  <circle cx="15" cy="17" r="1" fill="rgba(92.9808%,92.9793%,92.9778%,1)"/>
  <circle cx="16" cy="17" r="1" fill="rgba(88.6702%,88.6488%,88.6305%,1)"/>
  <circle cx="17" cy="17" r="1" fill="rgba(76.2188%,76.4324%,76.6262%,1)"/>
  <circle cx="18" cy="17" r="1" fill="rgba(68.2444%,69.5094%,70.7042%,1)"/>
  <circle cx="19" cy="17" r="1" fill="rgba(69.7856%,71.4733%,73.2082%,1)"/>
  <circle cx="20" cy="17" r="1" fill="rgba(69.3767%,71.0582%,72.8222%,1)"/>
  <circle cx="21" cy="17" r="1" fill="rgba(68.8136%,70.5943%,72.3873%,1)"/>
  <circle cx="22" cy="17" r="1" fill="rgba(67.5624%,68.4337%,69.3095%,1)"/>
  <circle cx="23" cy="17" r="1" fill="rgba(90.6645%,90.634%,90.6035%,1)"/>
  <circle cx="0" cy="18" r="1" fill="rgba(90.4402%,90.4097%,90.3792%,1)"/>
  <circle cx="1" cy="18" r="1" fill="rgba(66.9047%,67.7867%,68.6625%,1)"/>
  <circle cx="2" cy="18" r="1" fill="rgba(68.1498%,69.9458%,71.7327%,1)"/>
  <circle cx="3" cy="18" r="1" fill="rgba(68.7022%,70.4356%,72.1401%,1)"/>
  <circle cx="4" cy="18" r="1" fill="rgba(69.1264%,70.8278%,72.5704%,1)"/>
  <circle cx="5" cy="18" r="1" fill="rgba(69.218%,70.901%,72.5673%,1)"/>
  <circle cx="6" cy="18" r="1" fill="rgba(67.5349%,68.6549%,69.7856%,1)"/>
  <circle cx="7" cy="18" r="1" fill="rgba(73.0907%,73.3776%,73.7163%,1)"/>
  <circle cx="8" cy="18" r="1" fill="rgba(84.1444%,84.1535%,84.1489%,1)"/>
  <circle cx="9" cy="18" r="1" fill="rgba(90.5379%,90.5196%,90.4997%,1)"/>
  <circle cx="10" cy="18" r="1" fill="rgba(91.5068%,91.4992%,91.4916%,1)"/>
  <circle cx="11" cy="18" r="1" fill="rgba(85.182%,85.1789%,85.1774%,1)"/>
  <circle cx="12" cy="18" r="1" fill="rgba(85.1789%,85.1759%,85.1743%,1)"/>
  <circle cx="13" cy="18" r="1" fill="rgba(91.4748%,91.4672%,91.4611%,1)"/>
  <circle cx="14" cy="18" r="1" fill="rgba(90.4936%,90.4753%,90.4555%,1)"/>
  <circle cx="15" cy="18" r="1" fill="rgba(84.0757%,84.0787%,84.0818%,1)"/>
  <circle cx="16" cy="18" r="1" fill="rgba(73.1228%,73.4203%,73.7407%,1)"/>
  <circle cx="17" cy="18" r="1" fill="rgba(67.4601%,68.5954%,69.7551%,1)"/>
  <circle cx="18" cy="18" r="1" fill="rgba(69.0211%,70.6966%,72.4269%,1)"/>
  <circle cx="19" cy="18" r="1" fill="rgba(68.8334%,70.5562%,72.2637%,1)"/>
  <circle cx="20" cy="18" r="1" fill="rgba(68.4062%,70.1656%,71.9142%,1)"/>
  <circle cx="21" cy="18" r="1" fill="rgba(67.9179%,69.723%,71.5129%,1)"/>
  <circle cx="22" cy="18" r="1" fill="rgba(66.8879%,67.7699%,68.6458%,1)"/>
  <circle cx="23" cy="18" r="1" fill="rgba(90.4402%,90.4097%,90.3807%,1)"/>
  <circle cx="0" cy="19" r="1" fill="rgba(90.2281%,90.1961%,90.164%,1)"/>
  <circle cx="1" cy="19" r="1" fill="rgba(66.096%,67.0314%,67.8859%,1)"/>
  <circle cx="2" cy="19" r="1" fill="rgba(67.0344%,68.9494%,70.7729%,1)"/>
  <circle cx="3" cy="19" r="1" fill="rgba(67.5044%,69.3919%,71.1589%,1)"/>
  <circle cx="4" cy="19" r="1" fill="rgba(67.8035%,69.6529%,71.3588%,1)"/>
  <circle cx="5" cy="19" r="1" fill="rgba(68.0735%,69.868%,71.632%,1)"/>
  <circle cx="6" cy="19" r="1" fill="rgba(68.2399%,69.9947%,71.7754%,1)"/>
  <circle cx="7" cy="19" r="1" fill="rgba(66.569%,68.0308%,69.4911%,1)"/>
  <circle cx="8" cy="19" r="1" fill="rgba(67.2358%,68.0797%,68.8457%,1)"/>
  <circle cx="9" cy="19" r="1" fill="rgba(72.9427%,73.2403%,73.5317%,1)"/>
  <circle cx="10" cy="19" r="1" fill="rgba(78.5443%,78.6481%,78.7533%,1)"/>
  <circle cx="11" cy="19" r="1" fill="rgba(81.5518%,81.5824%,81.6022%,1)"/>
  <circle cx="12" cy="19" r="1" fill="rgba(81.5412%,81.5717%,81.5854%,1)"/>
  <circle cx="13" cy="19" r="1" fill="rgba(78.4771%,78.5824%,78.6831%,1)"/>
  <circle cx="14" cy="19" r="1" fill="rgba(72.8893%,73.2143%,73.5302%,1)"/>
  <circle cx="15" cy="19" r="1" fill="rgba(67.2572%,68.069%,68.8746%,1)"/>
  <circle cx="16" cy="19" r="1" fill="rgba(66.6056%,68.0766%,69.5384%,1)"/>
  <circle cx="17" cy="19" r="1" fill="rgba(68.1407%,69.9275%,71.6915%,1)"/>
  <circle cx="18" cy="19" r="1" fill="rgba(67.895%,69.7292%,71.4473%,1)"/>
  <circle cx="19" cy="19" r="1" fill="rgba(67.5792%,69.4652%,71.2078%,1)"/>
  <circle cx="20" cy="19" r="1" fill="rgba(67.2633%,69.1493%,70.9514%,1)"/>
  <circle cx="21" cy="19" r="1" fill="rgba(66.9368%,68.8502%,70.6722%,1)"/>
  <circle cx="22" cy="19" r="1" fill="rgba(66.1006%,67.0359%,67.8904%,1)"/>
  <circle cx="23" cy="19" r="1" fill="rgba(90.2281%,90.1961%,90.164%,1)"/>
  <circle cx="0" cy="20" r="1" fill="rgba(90.0206%,89.9886%,89.955%,1)"/>
  <circle cx="1" cy="20" r="1" fill="rgba(65.4566%,66.363%,67.3045%,1)"/>
  <circle cx="2" cy="20" r="1" fill="rgba(66.1173%,67.9622%,69.9413%,1)"/>
  <circle cx="3" cy="20" r="1" fill="rgba(66.3325%,68.1468%,70.1015%,1)"/>
  <circle cx="4" cy="20" r="1" fill="rgba(66.5354%,68.3528%,70.2876%,1)"/>
  <circle cx="5" cy="20" r="1" fill="rgba(66.6819%,68.4962%,70.3975%,1)"/>
  <circle cx="6" cy="20" r="1" fill="rgba(66.7735%,68.5801%,70.4677%,1)"/>
  <circle cx="7" cy="20" r="1" fill="rgba(66.9444%,68.7602%,70.6386%,1)"/>
  <circle cx="8" cy="20" r="1" fill="rgba(66.7216%,68.4916%,70.2968%,1)"/>
  <circle cx="9" cy="20" r="1" fill="rgba(65.774%,67.3121%,68.8945%,1)"/>
  <circle cx="10" cy="20" r="1" fill="rgba(65.3132%,66.5919%,67.9332%,1)"/>
  <circle cx="11" cy="20" r="1" fill="rgba(65.0263%,66.1585%,67.2724%,1)"/>
  <circle cx="12" cy="20" r="1" fill="rgba(65.0507%,66.186%,67.2786%,1)"/>
  <circle cx="13" cy="20" r="1" fill="rgba(65.3147%,66.6209%,67.9347%,1)"/>
  <circle cx="14" cy="20" r="1" fill="rgba(65.7542%,67.3182%,68.9204%,1)"/>
  <circle cx="15" cy="20" r="1" fill="rgba(66.7338%,68.4962%,70.3014%,1)"/>
  <circle cx="16" cy="20" r="1" fill="rgba(66.9306%,68.7449%,70.6294%,1)"/>
  <circle cx="17" cy="20" r="1" fill="rgba(66.7002%,68.5145%,70.4143%,1)"/>
  <circle cx="18" cy="20" r="1" fill="rgba(66.5766%,68.394%,70.3182%,1)"/>
  <circle cx="19" cy="20" r="1" fill="rgba(66.3813%,68.1956%,70.1488%,1)"/>
  <circle cx="20" cy="20" r="1" fill="rgba(66.2318%,68.0461%,69.9977%,1)"/>
  <circle cx="21" cy="20" r="1" fill="rgba(66.1112%,67.9576%,69.9367%,1)"/>
  <circle cx="22" cy="20" r="1" fill="rgba(65.4414%,66.3493%,67.2984%,1)"/>
  <circle cx="23" cy="20" r="1" fill="rgba(90.0221%,89.9916%,89.9565%,1)"/>
  <circle cx="0" cy="21" r="1" fill="rgba(91.1254%,91.0933%,91.0628%,1)"/>
  <circle cx="1" cy="21" r="1" fill="rgba(62.7115%,63.4363%,64.1398%,1)"/>
  <circle cx="2" cy="21" r="1" fill="rgba(63.9033%,65.8122%,67.7226%,1)"/>
  <circle cx="3" cy="21" r="1" fill="rgba(65.6779%,67.6432%,69.6223%,1)"/>
  <circle cx="4" cy="21" r="1" fill="rgba(65.7527%,67.7119%,69.6849%,1)"/>
  <circle cx="5" cy="21" r="1" fill="rgba(65.8946%,67.8553%,69.8299%,1)"/>
  <circle cx="6" cy="21" r="1" fill="rgba(66.0426%,67.9896%,69.9489%,1)"/>
  <circle cx="7" cy="21" r="1" fill="rgba(66.1357%,68.0812%,70.0374%,1)"/>
  <circle cx="8" cy="21" r="1" fill="rgba(66.1997%,68.1514%,70.1106%,1)"/>
  <circle cx="9" cy="21" r="1" fill="rgba(66.4027%,68.3619%,70.3197%,1)"/>
  <circle cx="10" cy="21" r="1" fill="rgba(66.6102%,68.5496%,70.5043%,1)"/>
  <circle cx="11" cy="21" r="1" fill="rgba(66.6789%,68.6198%,70.5684%,1)"/>
  <circle cx="12" cy="21" r="1" fill="rgba(66.6789%,68.6198%,70.5684%,1)"/>
  <circle cx="13" cy="21" r="1" fill="rgba(66.6087%,68.5512%,70.5043%,1)"/>
  <circle cx="14" cy="21" r="1" fill="rgba(66.4012%,68.3604%,70.3182%,1)"/>
  <circle cx="15" cy="21" r="1" fill="rgba(66.1997%,68.1514%,70.1106%,1)"/>
  <circle cx="16" cy="21" r="1" fill="rgba(66.1234%,68.0705%,70.0267%,1)"/>
  <circle cx="17" cy="21" r="1" fill="rgba(65.9922%,67.9393%,69.8985%,1)"/>
  <circle cx="18" cy="21" r="1" fill="rgba(65.8442%,67.805%,69.7795%,1)"/>
  <circle cx="19" cy="21" r="1" fill="rgba(65.7191%,67.6783%,69.6498%,1)"/>
  <circle cx="20" cy="21" r="1" fill="rgba(65.6809%,67.6463%,69.6254%,1)"/>
  <circle cx="21" cy="21" r="1" fill="rgba(63.8911%,65.7954%,67.7089%,1)"/>
  <circle cx="22" cy="21" r="1" fill="rgba(62.6993%,63.4165%,64.1352%,1)"/>
  <circle cx="23" cy="21" r="1" fill="rgba(91.1604%,91.1284%,91.0979%,1)"/>
  <circle cx="0" cy="22" r="1" fill="rgba(97.3587%,97.351%,97.3449%,1)"/>
  <circle cx="1" cy="22" r="1" fill="rgba(73.4432%,73.5424%,73.64%,1)"/>
  <circle cx="2" cy="22" r="1" fill="rgba(55.1339%,55.8373%,56.5484%,1)"/>
  <circle cx="3" cy="22" r="1" fill="rgba(54.9218%,55.848%,56.7864%,1)"/>
  <circle cx="4" cy="22" r="1" fill="rgba(55.1919%,56.1074%,57.0321%,1)"/>
  <circle cx="5" cy="22" r="1" fill="rgba(55.3964%,56.3149%,57.2351%,1)"/>
  <circle cx="6" cy="22" r="1" fill="rgba(55.6344%,56.5133%,57.3907%,1)"/>
  <circle cx="7" cy="22" r="1" fill="rgba(55.8373%,56.7117%,57.5845%,1)"/>
  <circle cx="8" cy="22" r="1" fill="rgba(56.0418%,56.9238%,57.7859%,1)"/>
  <circle cx="9" cy="22" r="1" fill="rgba(56.2768%,57.1527%,57.9995%,1)"/>
  <circle cx="10" cy="22" r="1" fill="rgba(56.524%,57.3526%,58.1765%,1)"/>
  <circle cx="11" cy="22" r="1" fill="rgba(56.7041%,57.5296%,58.3536%,1)"/>
  <circle cx="12" cy="22" r="1" fill="rgba(56.7041%,57.5296%,58.3536%,1)"/>
  <circle cx="13" cy="22" r="1" fill="rgba(56.524%,57.3526%,58.1765%,1)"/>
  <circle cx="14" cy="22" r="1" fill="rgba(56.2768%,57.1527%,57.9995%,1)"/>
  <circle cx="15" cy="22" r="1" fill="rgba(56.0418%,56.9238%,57.7859%,1)"/>
  <circle cx="16" cy="22" r="1" fill="rgba(55.8373%,56.7102%,57.5845%,1)"/>
  <circle cx="17" cy="22" r="1" fill="rgba(55.6344%,56.5133%,57.3907%,1)"/>
  <circle cx="18" cy="22" r="1" fill="rgba(55.3979%,56.318%,57.2381%,1)"/>
  <circle cx="19" cy="22" r="1" fill="rgba(55.1934%,56.1089%,57.0352%,1)"/>
  <circle cx="20" cy="22" r="1" fill="rgba(54.9233%,55.8495%,56.788%,1)"/>
  <circle cx="21" cy="22" r="1" fill="rgba(55.14%,55.8373%,56.5484%,1)"/>
  <circle cx="22" cy="22" r="1" fill="rgba(73.5241%,73.611%,73.7087%,1)"/>
  <circle cx="23" cy="22" r="1" fill="rgba(97.3724%,97.3663%,97.3602%,1)"/>
  <circle cx="0" cy="23" r="1" fill="white"/>
  <circle cx="1" cy="23" r="1" fill="rgba(95.7824%,95.7763%,95.7687%,1)"/>
  <circle cx="2" cy="23" r="1" fill="rgba(83.5492%,83.5172%,83.4867%,1)"/>
  <circle cx="3" cy="23" r="1" fill="rgba(79.234%,79.2004%,79.1684%,1)"/>
  <circle cx="4" cy="23" r="1" fill="rgba(79.3149%,79.2828%,79.2508%,1)"/>
  <circle cx="5" cy="23" r="1" fill="rgba(79.3149%,79.2813%,79.2493%,1)"/>
  <circle cx="6" cy="23" r="1" fill="rgba(79.3088%,79.2782%,79.2462%,1)"/>
  <circle cx="7" cy="23" r="1" fill="rgba(79.3042%,79.2721%,79.2416%,1)"/>
  <circle cx="8" cy="23" r="1" fill="rgba(79.2996%,79.2676%,79.237%,1)"/>
  <circle cx="9" cy="23" r="1" fill="rgba(79.295%,79.263%,79.2325%,1)"/>
  <circle cx="10" cy="23" r="1" fill="rgba(79.2889%,79.2584%,79.2279%,1)"/>
  <circle cx="11" cy="23" r="1" fill="rgba(79.2859%,79.2554%,79.2248%,1)"/>
  <circle cx="12" cy="23" r="1" fill="rgba(79.2859%,79.2554%,79.2248%,1)"/>
  <circle cx="13" cy="23" r="1" fill="rgba(79.2889%,79.2584%,79.2279%,1)"/>
  <circle cx="14" cy="23" r="1" fill="rgba(79.295%,79.263%,79.2325%,1)"/>
  <circle cx="15" cy="23" r="1" fill="rgba(79.2996%,79.2676%,79.237%,1)"/>
  <circle cx="16" cy="23" r="1" fill="rgba(79.3042%,79.2721%,79.2416%,1)"/>
  <circle cx="17" cy="23" r="1" fill="rgba(79.3088%,79.2782%,79.2462%,1)"/>
  <circle cx="18" cy="23" r="1" fill="rgba(79.3149%,79.2813%,79.2493%,1)"/>
  <circle cx="19" cy="23" r="1" fill="rgba(79.3149%,79.2828%,79.2508%,1)"/>
  <circle cx="20" cy="23" r="1" fill="rgba(79.2355%,79.2035%,79.1699%,1)"/>
  <circle cx="21" cy="23" r="1" fill="rgba(83.592%,83.5615%,83.5309%,1)"/>
  <circle cx="22" cy="23" r="1" fill="rgba(95.8267%,95.8206%,95.8129%,1)"/>
  <circle cx="23" cy="23" r="1" fill="white"/>
</svg>
