<?xml version="1.0" standalone="no"?>
<!DOCTYPE svg PUBLIC "-//W3C//DTD SVG 20010904//EN"
  "http://www.w3.org/TR/2001/REC-SVG-20010904/DTD/svg10.dtd">
<svg width="8" height="8">
  <circle cx="0" cy="0" r="1" fill="rgba(93.2937%,93.579%,93.7636%,1)"/>
  <circle cx="1" cy="0" r="1" fill="rgba(90.1137%,90.6889%,91.0765%,1)"/>
  <circle cx="2" cy="0" r="1" fill="rgba(90.1152%,90.7134%,91.107%,1)"/>
  <circle cx="3" cy="0" r="1" fill="rgba(90.0832%,90.6859%,91.078%,1)"/>
  <circle cx="4" cy="0" r="1" fill="rgba(90.0847%,90.6889%,91.0796%,1)"/>
  <circle cx="5" cy="0" r="1" fill="rgba(90.0999%,90.695%,91.0903%,1)"/>
  <circle cx="6" cy="0" r="1" fill="rgba(90.0725%,90.6523%,91.0384%,1)"/>
  <circle cx="7" cy="0" r="1" fill="rgba(93.2998%,93.5836%,93.7697%,1)"/>
  <circle cx="0" cy="1" r="1" fill="rgba(83.9826%,84.6738%,85.185%,1)"/>
  <circle cx="1" cy="1" r="1" fill="rgba(80.9628%,82.2248%,83.1525%,1)"/>
  <circle cx="2" cy="1" r="1" fill="rgba(83.5264%,84.5029%,85.1804%,1)"/>
  <circle cx="3" cy="1" r="1" fill="rgba(86.1524%,86.7323%,87.1336%,1)"/>
  <circle cx="4" cy="1" r="1" fill="rgba(86.1509%,86.7292%,87.129%,1)"/>
  <circle cx="5" cy="1" r="1" fill="rgba(83.4714%,84.4404%,85.1331%,1)"/>
  <circle cx="6" cy="1" r="1" fill="rgba(80.7294%,82.0066%,82.9496%,1)"/>
  <circle cx="7" cy="1" r="1" fill="rgba(83.8972%,84.5899%,85.1072%,1)"/>
  <circle cx="0" cy="2" r="1" fill="rgba(81.4466%,82.1912%,82.829%,1)"/>
  <circle cx="1" cy="2" r="1" fill="rgba(80.8331%,81.8265%,82.6596%,1)"/>
  <circle cx="2" cy="2" r="1" fill="rgba(89.8405%,89.9947%,90.1152%,1)"/>
  <circle cx="3" cy="2" r="1" fill="rgba(86.4973%,86.6911%,86.8727%,1)"/>
  <circle cx="4" cy="2" r="1" fill="rgba(86.5049%,86.6972%,86.8757%,1)"/>
  <circle cx="5" cy="2" r="1" fill="rgba(89.8192%,89.9702%,90.0954%,1)"/>
  <circle cx="6" cy="2" r="1" fill="rgba(80.5432%,81.5564%,82.4125%,1)"/>
  <circle cx="7" cy="2" r="1" fill="rgba(81.2589%,82.0127%,82.6627%,1)"/>
  <circle cx="0" cy="3" r="1" fill="rgba(79.0921%,79.9008%,80.6287%,1)"/>
  <circle cx="1" cy="3" r="1" fill="rgba(81.7044%,82.2965%,82.8214%,1)"/>
  <circle cx="2" cy="3" r="1" fill="rgba(85.6748%,85.9236%,86.1402%,1)"/>
  <circle cx="3" cy="3" r="1" fill="rgba(80.0992%,81.1414%,82.0401%,1)"/>
  <circle cx="4" cy="3" r="1" fill="rgba(80.1816%,81.2268%,82.1118%,1)"/>
  <circle cx="5" cy="3" r="1" fill="rgba(85.7313%,85.9937%,86.2028%,1)"/>
  <circle cx="6" cy="3" r="1" fill="rgba(81.5427%,82.1378%,82.6734%,1)"/>
  <circle cx="7" cy="3" r="1" fill="rgba(78.9166%,79.7238%,80.4608%,1)"/>
  <circle cx="0" cy="4" r="1" fill="rgba(76.7987%,77.6944%,78.4863%,1)"/>
  <circle cx="1" cy="4" r="1" fill="rgba(79.4171%,80.0275%,80.5737%,1)"/>
  <circle cx="2" cy="4" r="1" fill="rgba(84.4007%,84.7181%,84.9546%,1)"/>
  <circle cx="3" cy="4" r="1" fill="rgba(76.4187%,77.6455%,78.5336%,1)"/>
  <circle cx="4" cy="4" r="1" fill="rgba(76.5026%,77.731%,78.616%,1)"/>
  <circle cx="5" cy="4" r="1" fill="rgba(84.4495%,84.773%,85.0095%,1)"/>
  <circle cx="6" cy="4" r="1" fill="rgba(79.2859%,79.9069%,80.4532%,1)"/>
  <circle cx="7" cy="4" r="1" fill="rgba(76.6232%,77.5326%,78.3307%,1)"/>
  <circle cx="0" cy="5" r="1" fill="rgba(74.8287%,75.8251%,76.7788%,1)"/>
  <circle cx="1" cy="5" r="1" fill="rgba(73.2113%,74.3877%,75.5123%,1)"/>
  <circle cx="2" cy="5" r="1" fill="rgba(87.3259%,87.4434%,87.5517%,1)"/>
  <circle cx="3" cy="5" r="1" fill="rgba(84.3198%,84.7272%,84.9958%,1)"/>
  <circle cx="4" cy="5" r="1" fill="rgba(84.3153%,84.7196%,84.9943%,1)"/>
  <circle cx="5" cy="5" r="1" fill="rgba(87.2999%,87.4189%,87.5257%,1)"/>
  <circle cx="6" cy="5" r="1" fill="rgba(72.9732%,74.1634%,75.3063%,1)"/>
  <circle cx="7" cy="5" r="1" fill="rgba(74.6609%,75.6695%,76.6323%,1)"/>
  <circle cx="0" cy="6" r="1" fill="rgba(72.5948%,73.6294%,74.6609%,1)"/>
  <circle cx="1" cy="6" r="1" fill="rgba(66.836%,68.6275%,70.4265%,1)"/>
  <circle cx="2" cy="6" r="1" fill="rgba(70.8263%,72.018%,73.225%,1)"/>
  <circle cx="3" cy="6" r="1" fill="rgba(77.4487%,78.0224%,78.6069%,1)"/>
  <circle cx="4" cy="6" r="1" fill="rgba(77.435%,78.0133%,78.5977%,1)"/>
  <circle cx="5" cy="6" r="1" fill="rgba(70.7897%,71.9875%,73.1991%,1)"/>
  <circle cx="6" cy="6" r="1" fill="rgba(66.6667%,68.4703%,70.2785%,1)"/>
  <circle cx="7" cy="6" r="1" fill="rgba(72.5322%,73.5698%,74.6044%,1)"/>
  <circle cx="0" cy="7" r="1" fill="rgba(76.9635%,77.4807%,78.0056%,1)"/>
  <circle cx="1" cy="7" r="1" fill="rgba(65.8152%,66.8833%,67.9698%,1)"/>
  <circle cx="2" cy="7" r="1" fill="rgba(66.0883%,67.1611%,68.2414%,1)"/>
  <circle cx="3" cy="7" r="1" fill="rgba(66.1936%,67.187%,68.1819%,1)"/>
  <circle cx="4" cy="7" r="1" fill="rgba(66.1921%,67.1885%,68.1834%,1)"/>
  <circle cx="5" cy="7" r="1" fill="rgba(66.0792%,67.1519%,68.2338%,1)"/>
  <circle cx="6" cy="7" r="1" fill="rgba(65.8%,66.8666%,67.9545%,1)"/>
  <circle cx="7" cy="7" r="1" fill="rgba(76.9818%,77.496%,78.0224%,1)"/>
</svg>
