<?xml version="1.0" standalone="no"?>
<!DOCTYPE svg PUBLIC "-//W3C//DTD SVG 20010904//EN"
  "http://www.w3.org/TR/2001/REC-SVG-20010904/DTD/svg10.dtd">
<svg width="8" height="8">
  <circle cx="0" cy="0" r="1" fill="white"/>
  <circle cx="1" cy="0" r="1" fill="white"/>
  <circle cx="2" cy="0" r="1" fill="white"/>
  <circle cx="3" cy="0" r="1" fill="white"/>
  <circle cx="4" cy="0" r="1" fill="rgba(93.962%,93.962%,93.962%,1)"/>
  <circle cx="5" cy="0" r="1" fill="rgba(71.6487%,71.6487%,71.6487%,1)"/>
  <circle cx="6" cy="0" r="1" fill="rgba(96.054%,96.054%,96.054%,1)"/>
  <circle cx="7" cy="0" r="1" fill="white"/>
  <circle cx="0" cy="1" r="1" fill="white"/>
  <circle cx="1" cy="1" r="1" fill="white"/>
  <circle cx="2" cy="1" r="1" fill="white"/>
  <circle cx="3" cy="1" r="1" fill="rgba(99.7986%,99.7986%,99.7986%,1)"/>
  <circle cx="4" cy="1" r="1" fill="rgba(76.6354%,76.6354%,76.6354%,1)"/>
  <circle cx="5" cy="1" r="1" fill="rgba(52.0623%,52.0623%,52.0623%,1)"/>
  <circle cx="6" cy="1" r="1" fill="rgba(93.7682%,93.7682%,93.7682%,1)"/>
  <circle cx="7" cy="1" r="1" fill="white"/>
  <circle cx="0" cy="2" r="1" fill="white"/>
  <circle cx="1" cy="2" r="1" fill="white"/>
  <circle cx="2" cy="2" r="1" fill="white"/>
  <circle cx="3" cy="2" r="1" fill="rgba(90.9941%,90.9941%,90.9941%,1)"/>
  <circle cx="4" cy="2" r="1" fill="rgba(74.4656%,74.4656%,74.4656%,1)"/>
  <circle cx="5" cy="2" r="1" fill="rgba(50.6142%,50.6142%,50.6142%,1)"/>
  <circle cx="6" cy="2" r="1" fill="rgba(86.9795%,86.9795%,86.9795%,1)"/>
  <circle cx="7" cy="2" r="1" fill="white"/>
  <circle cx="0" cy="3" r="1" fill="white"/>
  <circle cx="1" cy="3" r="1" fill="white"/>
  <circle cx="2" cy="3" r="1" fill="rgba(97.7981%,97.7981%,97.7981%,1)"/>
  <circle cx="3" cy="3" r="1" fill="rgba(79.3576%,79.3576%,79.3576%,1)"/>
  <circle cx="4" cy="3" r="1" fill="rgba(89.9199%,89.9199%,89.9199%,1)"/>
  <circle cx="5" cy="3" r="1" fill="rgba(54.8302%,54.8302%,54.8302%,1)"/>
  <circle cx="6" cy="3" r="1" fill="rgba(77.7569%,77.7569%,77.7569%,1)"/>
  <circle cx="7" cy="3" r="1" fill="white"/>
  <circle cx="0" cy="4" r="1" fill="white"/>
  <circle cx="1" cy="4" r="1" fill="white"/>
  <circle cx="2" cy="4" r="1" fill="rgba(81.8448%,81.8448%,81.8448%,1)"/>
  <circle cx="3" cy="4" r="1" fill="rgba(68.4916%,68.4916%,68.4916%,1)"/>
  <circle cx="4" cy="4" r="1" fill="rgba(82.5681%,82.5681%,82.5681%,1)"/>
  <circle cx="5" cy="4" r="1" fill="rgba(51.4214%,51.4214%,51.4214%,1)"/>
  <circle cx="6" cy="4" r="1" fill="rgba(68.3192%,68.3192%,68.3192%,1)"/>
  <circle cx="7" cy="4" r="1" fill="white"/>
  <circle cx="0" cy="5" r="1" fill="white"/>
  <circle cx="1" cy="5" r="1" fill="rgba(93.991%,93.991%,93.991%,1)"/>
  <circle cx="2" cy="5" r="1" fill="rgba(66.1448%,66.1448%,66.1448%,1)"/>
  <circle cx="3" cy="5" r="1" fill="rgba(72.0241%,72.0241%,72.0241%,1)"/>
  <circle cx="4" cy="5" r="1" fill="rgba(74.9126%,74.9126%,74.9126%,1)"/>
  <circle cx="5" cy="5" r="1" fill="rgba(52.1599%,52.1599%,52.1599%,1)"/>
  <circle cx="6" cy="5" r="1" fill="rgba(58.4634%,58.4634%,58.4634%,1)"/>
  <circle cx="7" cy="5" r="1" fill="rgba(98.8525%,98.8525%,98.8525%,1)"/>
  <circle cx="0" cy="6" r="1" fill="rgba(99.2233%,99.2233%,99.2233%,1)"/>
  <circle cx="1" cy="6" r="1" fill="rgba(72.4331%,72.4331%,72.4331%,1)"/>
  <circle cx="2" cy="6" r="1" fill="rgba(80.5585%,80.5585%,80.5585%,1)"/>
  <circle cx="3" cy="6" r="1" fill="white"/>
  <circle cx="4" cy="6" r="1" fill="white"/>
  <circle cx="5" cy="6" r="1" fill="rgba(70.8354%,70.8354%,70.8354%,1)"/>
  <circle cx="6" cy="6" r="1" fill="rgba(48.7526%,48.7526%,48.7526%,1)"/>
  <circle cx="7" cy="6" r="1" fill="rgba(95.0912%,95.0912%,95.0912%,1)"/>
  <circle cx="0" cy="7" r="1" fill="rgba(75.613%,75.613%,75.613%,1)"/>
  <circle cx="1" cy="7" r="1" fill="rgba(45.0675%,45.0675%,45.0675%,1)"/>
  <circle cx="2" cy="7" r="1" fill="rgba(82.8931%,82.8931%,82.8931%,1)"/>
  <circle cx="3" cy="7" r="1" fill="white"/>
  <circle cx="4" cy="7" r="1" fill="rgba(97.3312%,97.3312%,97.3312%,1)"/>
  <circle cx="5" cy="7" r="1" fill="rgba(62.8092%,62.8092%,62.8092%,1)"/>
  <circle cx="6" cy="7" r="1" fill="rgba(37.818%,37.818%,37.818%,1)"/>
  <circle cx="7" cy="7" r="1" fill="rgba(77.6135%,77.6135%,77.6135%,1)"/>
</svg>
