<?xml version="1.0" standalone="no"?>
<!DOCTYPE svg PUBLIC "-//W3C//DTD SVG 20010904//EN"
  "http://www.w3.org/TR/2001/REC-SVG-20010904/DTD/svg10.dtd">
<svg width="22" height="22">
  <circle cx="0" cy="0" r="1" fill="white"/>
  <circle cx="1" cy="0" r="1" fill="white"/>
  <circle cx="2" cy="0" r="1" fill="white"/>
  <circle cx="3" cy="0" r="1" fill="white"/>
  <circle cx="4" cy="0" r="1" fill="white"/>
  <circle cx="5" cy="0" r="1" fill="white"/>
  <circle cx="6" cy="0" r="1" fill="white"/>
  <circle cx="7" cy="0" r="1" fill="white"/>
  <circle cx="8" cy="0" r="1" fill="white"/>
  <circle cx="9" cy="0" r="1" fill="white"/>
  <circle cx="10" cy="0" r="1" fill="white"/>
  <circle cx="11" cy="0" r="1" fill="white"/>
  <circle cx="12" cy="0" r="1" fill="white"/>
  <circle cx="13" cy="0" r="1" fill="rgba(95.2728%,95.2728%,95.2728%,1)"/>
  <circle cx="14" cy="0" r="1" fill="rgba(83.4409%,83.4409%,83.4409%,1)"/>
  <circle cx="15" cy="0" r="1" fill="rgba(73.9651%,73.9651%,73.9651%,1)"/>
  <circle cx="16" cy="0" r="1" fill="rgba(85.6611%,85.6611%,85.6611%,1)"/>
  <circle cx="17" cy="0" r="1" fill="white"/>
  <circle cx="18" cy="0" r="1" fill="white"/>
  <circle cx="19" cy="0" r="1" fill="white"/>
  <circle cx="20" cy="0" r="1" fill="white"/>
  <circle cx="21" cy="0" r="1" fill="white"/>
  <circle cx="0" cy="1" r="1" fill="white"/>
  <circle cx="1" cy="1" r="1" fill="white"/>
  <circle cx="2" cy="1" r="1" fill="white"/>
  <circle cx="3" cy="1" r="1" fill="white"/>
  <circle cx="4" cy="1" r="1" fill="white"/>
  <circle cx="5" cy="1" r="1" fill="white"/>
  <circle cx="6" cy="1" r="1" fill="white"/>
  <circle cx="7" cy="1" r="1" fill="white"/>
  <circle cx="8" cy="1" r="1" fill="white"/>
  <circle cx="9" cy="1" r="1" fill="white"/>
  <circle cx="10" cy="1" r="1" fill="white"/>
  <circle cx="11" cy="1" r="1" fill="rgba(99.9985%,99.9985%,99.9985%,1)"/>
  <circle cx="12" cy="1" r="1" fill="white"/>
  <circle cx="13" cy="1" r="1" fill="rgba(88.6336%,88.6336%,88.6336%,1)"/>
  <circle cx="14" cy="1" r="1" fill="rgba(65.5482%,65.5482%,65.5482%,1)"/>
  <circle cx="15" cy="1" r="1" fill="rgba(64.9607%,64.9607%,64.9607%,1)"/>
  <circle cx="16" cy="1" r="1" fill="rgba(83.3875%,83.3875%,83.3875%,1)"/>
  <circle cx="17" cy="1" r="1" fill="white"/>
  <circle cx="18" cy="1" r="1" fill="white"/>
  <circle cx="19" cy="1" r="1" fill="white"/>
  <circle cx="20" cy="1" r="1" fill="white"/>
  <circle cx="21" cy="1" r="1" fill="white"/>
  <circle cx="0" cy="2" r="1" fill="white"/>
  <circle cx="1" cy="2" r="1" fill="white"/>
  <circle cx="2" cy="2" r="1" fill="white"/>
  <circle cx="3" cy="2" r="1" fill="white"/>
  <circle cx="4" cy="2" r="1" fill="white"/>
  <circle cx="5" cy="2" r="1" fill="white"/>
  <circle cx="6" cy="2" r="1" fill="white"/>
  <circle cx="7" cy="2" r="1" fill="white"/>
  <circle cx="8" cy="2" r="1" fill="white"/>
  <circle cx="9" cy="2" r="1" fill="white"/>
  <circle cx="10" cy="2" r="1" fill="white"/>
  <circle cx="11" cy="2" r="1" fill="white"/>
  <circle cx="12" cy="2" r="1" fill="rgba(95.1247%,95.1247%,95.1247%,1)"/>
  <circle cx="13" cy="2" r="1" fill="rgba(75.465%,75.465%,75.465%,1)"/>
  <circle cx="14" cy="2" r="1" fill="rgba(48.4245%,48.4245%,48.4245%,1)"/>
  <circle cx="15" cy="2" r="1" fill="rgba(54.4289%,54.4289%,54.4289%,1)"/>
  <circle cx="16" cy="2" r="1" fill="rgba(79.7421%,79.7421%,79.7421%,1)"/>
  <circle cx="17" cy="2" r="1" fill="white"/>
  <circle cx="18" cy="2" r="1" fill="white"/>
  <circle cx="19" cy="2" r="1" fill="white"/>
  <circle cx="20" cy="2" r="1" fill="white"/>
  <circle cx="21" cy="2" r="1" fill="white"/>
  <circle cx="0" cy="3" r="1" fill="white"/>
  <circle cx="1" cy="3" r="1" fill="white"/>
  <circle cx="2" cy="3" r="1" fill="white"/>
  <circle cx="3" cy="3" r="1" fill="white"/>
  <circle cx="4" cy="3" r="1" fill="white"/>
  <circle cx="5" cy="3" r="1" fill="white"/>
  <circle cx="6" cy="3" r="1" fill="white"/>
  <circle cx="7" cy="3" r="1" fill="white"/>
  <circle cx="8" cy="3" r="1" fill="white"/>
  <circle cx="9" cy="3" r="1" fill="white"/>
  <circle cx="10" cy="3" r="1" fill="rgba(99.9313%,99.9313%,99.9313%,1)"/>
  <circle cx="11" cy="3" r="1" fill="rgba(99.4217%,99.4217%,99.4217%,1)"/>
  <circle cx="12" cy="3" r="1" fill="rgba(82.1561%,82.1561%,82.1561%,1)"/>
  <circle cx="13" cy="3" r="1" fill="rgba(59.4324%,59.4324%,59.4324%,1)"/>
  <circle cx="14" cy="3" r="1" fill="rgba(43.3982%,43.3982%,43.3982%,1)"/>
  <circle cx="15" cy="3" r="1" fill="rgba(47.6432%,47.6432%,47.6432%,1)"/>
  <circle cx="16" cy="3" r="1" fill="rgba(75.7641%,75.7641%,75.7641%,1)"/>
  <circle cx="17" cy="3" r="1" fill="white"/>
  <circle cx="18" cy="3" r="1" fill="rgba(99.9954%,99.9954%,99.9954%,1)"/>
  <circle cx="19" cy="3" r="1" fill="white"/>
  <circle cx="20" cy="3" r="1" fill="white"/>
  <circle cx="21" cy="3" r="1" fill="white"/>
  <circle cx="0" cy="4" r="1" fill="white"/>
  <circle cx="1" cy="4" r="1" fill="white"/>
  <circle cx="2" cy="4" r="1" fill="white"/>
  <circle cx="3" cy="4" r="1" fill="white"/>
  <circle cx="4" cy="4" r="1" fill="white"/>
  <circle cx="5" cy="4" r="1" fill="white"/>
  <circle cx="6" cy="4" r="1" fill="white"/>
  <circle cx="7" cy="4" r="1" fill="white"/>
  <circle cx="8" cy="4" r="1" fill="white"/>
  <circle cx="9" cy="4" r="1" fill="white"/>
  <circle cx="10" cy="4" r="1" fill="rgba(99.4095%,99.4095%,99.4095%,1)"/>
  <circle cx="11" cy="4" r="1" fill="rgba(95.2743%,95.2743%,95.2743%,1)"/>
  <circle cx="12" cy="4" r="1" fill="rgba(69.1096%,69.1096%,69.1096%,1)"/>
  <circle cx="13" cy="4" r="1" fill="rgba(46.7567%,46.7567%,46.7567%,1)"/>
  <circle cx="14" cy="4" r="1" fill="rgba(41.1917%,41.1917%,41.1917%,1)"/>
  <circle cx="15" cy="4" r="1" fill="rgba(41.9867%,41.9867%,41.9867%,1)"/>
  <circle cx="16" cy="4" r="1" fill="rgba(71.6976%,71.6976%,71.6976%,1)"/>
  <circle cx="17" cy="4" r="1" fill="white"/>
  <circle cx="18" cy="4" r="1" fill="rgba(99.9695%,99.9695%,99.9695%,1)"/>
  <circle cx="19" cy="4" r="1" fill="white"/>
  <circle cx="20" cy="4" r="1" fill="white"/>
  <circle cx="21" cy="4" r="1" fill="white"/>
  <circle cx="0" cy="5" r="1" fill="white"/>
  <circle cx="1" cy="5" r="1" fill="white"/>
  <circle cx="2" cy="5" r="1" fill="white"/>
  <circle cx="3" cy="5" r="1" fill="white"/>
  <circle cx="4" cy="5" r="1" fill="white"/>
  <circle cx="5" cy="5" r="1" fill="white"/>
  <circle cx="6" cy="5" r="1" fill="white"/>
  <circle cx="7" cy="5" r="1" fill="white"/>
  <circle cx="8" cy="5" r="1" fill="white"/>
  <circle cx="9" cy="5" r="1" fill="white"/>
  <circle cx="10" cy="5" r="1" fill="rgba(96.8963%,96.8963%,96.8963%,1)"/>
  <circle cx="11" cy="5" r="1" fill="rgba(77.7981%,77.7981%,77.7981%,1)"/>
  <circle cx="12" cy="5" r="1" fill="rgba(69.2714%,69.2714%,69.2714%,1)"/>
  <circle cx="13" cy="5" r="1" fill="rgba(57.4685%,57.4685%,57.4685%,1)"/>
  <circle cx="14" cy="5" r="1" fill="rgba(40.502%,40.502%,40.502%,1)"/>
  <circle cx="15" cy="5" r="1" fill="rgba(38.7442%,38.7442%,38.7442%,1)"/>
  <circle cx="16" cy="5" r="1" fill="rgba(67.3106%,67.3106%,67.3106%,1)"/>
  <circle cx="17" cy="5" r="1" fill="rgba(96.8139%,96.8139%,96.8139%,1)"/>
  <circle cx="18" cy="5" r="1" fill="rgba(99.6048%,99.6048%,99.6048%,1)"/>
  <circle cx="19" cy="5" r="1" fill="white"/>
  <circle cx="20" cy="5" r="1" fill="white"/>
  <circle cx="21" cy="5" r="1" fill="white"/>
  <circle cx="0" cy="6" r="1" fill="white"/>
  <circle cx="1" cy="6" r="1" fill="white"/>
  <circle cx="2" cy="6" r="1" fill="white"/>
  <circle cx="3" cy="6" r="1" fill="white"/>
  <circle cx="4" cy="6" r="1" fill="white"/>
  <circle cx="5" cy="6" r="1" fill="white"/>
  <circle cx="6" cy="6" r="1" fill="white"/>
  <circle cx="7" cy="6" r="1" fill="white"/>
  <circle cx="8" cy="6" r="1" fill="white"/>
  <circle cx="9" cy="6" r="1" fill="rgba(98.5626%,98.5626%,98.5626%,1)"/>
  <circle cx="10" cy="6" r="1" fill="rgba(90.3655%,90.3655%,90.3655%,1)"/>
  <circle cx="11" cy="6" r="1" fill="rgba(63.0106%,63.0106%,63.0106%,1)"/>
  <circle cx="12" cy="6" r="1" fill="rgba(77.6165%,77.6165%,77.6165%,1)"/>
  <circle cx="13" cy="6" r="1" fill="rgba(75.8007%,75.8007%,75.8007%,1)"/>
  <circle cx="14" cy="6" r="1" fill="rgba(41.8585%,41.8585%,41.8585%,1)"/>
  <circle cx="15" cy="6" r="1" fill="rgba(37.6379%,37.6379%,37.6379%,1)"/>
  <circle cx="16" cy="6" r="1" fill="rgba(62.6886%,62.6886%,62.6886%,1)"/>
  <circle cx="17" cy="6" r="1" fill="rgba(91.1528%,91.1528%,91.1528%,1)"/>
  <circle cx="18" cy="6" r="1" fill="rgba(99.0173%,99.0173%,99.0173%,1)"/>
  <circle cx="19" cy="6" r="1" fill="white"/>
  <circle cx="20" cy="6" r="1" fill="white"/>
  <circle cx="21" cy="6" r="1" fill="white"/>
  <circle cx="0" cy="7" r="1" fill="white"/>
  <circle cx="1" cy="7" r="1" fill="white"/>
  <circle cx="2" cy="7" r="1" fill="white"/>
  <circle cx="3" cy="7" r="1" fill="white"/>
  <circle cx="4" cy="7" r="1" fill="white"/>
  <circle cx="5" cy="7" r="1" fill="white"/>
  <circle cx="6" cy="7" r="1" fill="white"/>
  <circle cx="7" cy="7" r="1" fill="rgba(99.9969%,99.9969%,99.9969%,1)"/>
  <circle cx="8" cy="7" r="1" fill="white"/>
  <circle cx="9" cy="7" r="1" fill="rgba(92.6467%,92.6467%,92.6467%,1)"/>
  <circle cx="10" cy="7" r="1" fill="rgba(78.4436%,78.4436%,78.4436%,1)"/>
  <circle cx="11" cy="7" r="1" fill="rgba(67.0298%,67.0298%,67.0298%,1)"/>
  <circle cx="12" cy="7" r="1" fill="rgba(86.6392%,86.6392%,86.6392%,1)"/>
  <circle cx="13" cy="7" r="1" fill="rgba(83.4211%,83.4211%,83.4211%,1)"/>
  <circle cx="14" cy="7" r="1" fill="rgba(45.9113%,45.9113%,45.9113%,1)"/>
  <circle cx="15" cy="7" r="1" fill="rgba(38.0194%,38.0194%,38.0194%,1)"/>
  <circle cx="16" cy="7" r="1" fill="rgba(57.9644%,57.9644%,57.9644%,1)"/>
  <circle cx="17" cy="7" r="1" fill="rgba(84.9866%,84.9866%,84.9866%,1)"/>
  <circle cx="18" cy="7" r="1" fill="rgba(98.3902%,98.3902%,98.3902%,1)"/>
  <circle cx="19" cy="7" r="1" fill="white"/>
  <circle cx="20" cy="7" r="1" fill="white"/>
  <circle cx="21" cy="7" r="1" fill="white"/>
  <circle cx="0" cy="8" r="1" fill="white"/>
  <circle cx="1" cy="8" r="1" fill="white"/>
  <circle cx="2" cy="8" r="1" fill="white"/>
  <circle cx="3" cy="8" r="1" fill="white"/>
  <circle cx="4" cy="8" r="1" fill="white"/>
  <circle cx="5" cy="8" r="1" fill="white"/>
  <circle cx="6" cy="8" r="1" fill="white"/>
  <circle cx="7" cy="8" r="1" fill="rgba(99.9878%,99.9878%,99.9878%,1)"/>
  <circle cx="8" cy="8" r="1" fill="white"/>
  <circle cx="9" cy="8" r="1" fill="rgba(82.0081%,82.0081%,82.0081%,1)"/>
  <circle cx="10" cy="8" r="1" fill="rgba(61.7472%,61.7472%,61.7472%,1)"/>
  <circle cx="11" cy="8" r="1" fill="rgba(81.3199%,81.3199%,81.3199%,1)"/>
  <circle cx="12" cy="8" r="1" fill="rgba(96.3165%,96.3165%,96.3165%,1)"/>
  <circle cx="13" cy="8" r="1" fill="rgba(85.89%,85.89%,85.89%,1)"/>
  <circle cx="14" cy="8" r="1" fill="rgba(51.5816%,51.5816%,51.5816%,1)"/>
  <circle cx="15" cy="8" r="1" fill="rgba(38.967%,38.967%,38.967%,1)"/>
  <circle cx="16" cy="8" r="1" fill="rgba(53.193%,53.193%,53.193%,1)"/>
  <circle cx="17" cy="8" r="1" fill="rgba(78.8876%,78.8876%,78.8876%,1)"/>
  <circle cx="18" cy="8" r="1" fill="rgba(97.7691%,97.7691%,97.7691%,1)"/>
  <circle cx="19" cy="8" r="1" fill="white"/>
  <circle cx="20" cy="8" r="1" fill="white"/>
  <circle cx="21" cy="8" r="1" fill="white"/>
  <circle cx="0" cy="9" r="1" fill="white"/>
  <circle cx="1" cy="9" r="1" fill="white"/>
  <circle cx="2" cy="9" r="1" fill="white"/>
  <circle cx="3" cy="9" r="1" fill="white"/>
  <circle cx="4" cy="9" r="1" fill="white"/>
  <circle cx="5" cy="9" r="1" fill="white"/>
  <circle cx="6" cy="9" r="1" fill="white"/>
  <circle cx="7" cy="9" r="1" fill="rgba(99.7772%,99.7772%,99.7772%,1)"/>
  <circle cx="8" cy="9" r="1" fill="rgba(91.1543%,91.1543%,91.1543%,1)"/>
  <circle cx="9" cy="9" r="1" fill="rgba(72.6299%,72.6299%,72.6299%,1)"/>
  <circle cx="10" cy="9" r="1" fill="rgba(63.0671%,63.0671%,63.0671%,1)"/>
  <circle cx="11" cy="9" r="1" fill="rgba(92.0485%,92.0485%,92.0485%,1)"/>
  <circle cx="12" cy="9" r="1" fill="white"/>
  <circle cx="13" cy="9" r="1" fill="rgba(87.6783%,87.6783%,87.6783%,1)"/>
  <circle cx="14" cy="9" r="1" fill="rgba(57.9095%,57.9095%,57.9095%,1)"/>
  <circle cx="15" cy="9" r="1" fill="rgba(40.1358%,40.1358%,40.1358%,1)"/>
  <circle cx="16" cy="9" r="1" fill="rgba(48.0217%,48.0217%,48.0217%,1)"/>
  <circle cx="17" cy="9" r="1" fill="rgba(72.2332%,72.2332%,72.2332%,1)"/>
  <circle cx="18" cy="9" r="1" fill="rgba(97.0916%,97.0916%,97.0916%,1)"/>
  <circle cx="19" cy="9" r="1" fill="white"/>
  <circle cx="20" cy="9" r="1" fill="white"/>
  <circle cx="21" cy="9" r="1" fill="white"/>
  <circle cx="0" cy="10" r="1" fill="white"/>
  <circle cx="1" cy="10" r="1" fill="white"/>
  <circle cx="2" cy="10" r="1" fill="white"/>
  <circle cx="3" cy="10" r="1" fill="white"/>
  <circle cx="4" cy="10" r="1" fill="white"/>
  <circle cx="5" cy="10" r="1" fill="white"/>
  <circle cx="6" cy="10" r="1" fill="rgba(99.7986%,99.7986%,99.7986%,1)"/>
  <circle cx="7" cy="10" r="1" fill="rgba(97.6303%,97.6303%,97.6303%,1)"/>
  <circle cx="8" cy="10" r="1" fill="rgba(74.2107%,74.2107%,74.2107%,1)"/>
  <circle cx="9" cy="10" r="1" fill="rgba(67.3182%,67.3182%,67.3182%,1)"/>
  <circle cx="10" cy="10" r="1" fill="rgba(80.3876%,80.3876%,80.3876%,1)"/>
  <circle cx="11" cy="10" r="1" fill="rgba(96.8536%,96.8536%,96.8536%,1)"/>
  <circle cx="12" cy="10" r="1" fill="white"/>
  <circle cx="13" cy="10" r="1" fill="rgba(90.219%,90.219%,90.219%,1)"/>
  <circle cx="14" cy="10" r="1" fill="rgba(64.5808%,64.5808%,64.5808%,1)"/>
  <circle cx="15" cy="10" r="1" fill="rgba(41.3962%,41.3962%,41.3962%,1)"/>
  <circle cx="16" cy="10" r="1" fill="rgba(42.5727%,42.5727%,42.5727%,1)"/>
  <circle cx="17" cy="10" r="1" fill="rgba(65.185%,65.185%,65.185%,1)"/>
  <circle cx="18" cy="10" r="1" fill="rgba(96.3806%,96.3806%,96.3806%,1)"/>
  <circle cx="19" cy="10" r="1" fill="white"/>
  <circle cx="20" cy="10" r="1" fill="white"/>
  <circle cx="21" cy="10" r="1" fill="white"/>
  <circle cx="0" cy="11" r="1" fill="white"/>
  <circle cx="1" cy="11" r="1" fill="white"/>
  <circle cx="2" cy="11" r="1" fill="white"/>
  <circle cx="3" cy="11" r="1" fill="white"/>
  <circle cx="4" cy="11" r="1" fill="white"/>
  <circle cx="5" cy="11" r="1" fill="white"/>
  <circle cx="6" cy="11" r="1" fill="rgba(98.5153%,98.5153%,98.5153%,1)"/>
  <circle cx="7" cy="11" r="1" fill="rgba(90.4997%,90.4997%,90.4997%,1)"/>
  <circle cx="8" cy="11" r="1" fill="rgba(61.3397%,61.3397%,61.3397%,1)"/>
  <circle cx="9" cy="11" r="1" fill="rgba(66.9688%,66.9688%,66.9688%,1)"/>
  <circle cx="10" cy="11" r="1" fill="rgba(96.1318%,96.1318%,96.1318%,1)"/>
  <circle cx="11" cy="11" r="1" fill="rgba(99.4568%,99.4568%,99.4568%,1)"/>
  <circle cx="12" cy="11" r="1" fill="rgba(99.9588%,99.9588%,99.9588%,1)"/>
  <circle cx="13" cy="11" r="1" fill="rgba(92.6146%,92.6146%,92.6146%,1)"/>
  <circle cx="14" cy="11" r="1" fill="rgba(71.2047%,71.2047%,71.2047%,1)"/>
  <circle cx="15" cy="11" r="1" fill="rgba(42.6444%,42.6444%,42.6444%,1)"/>
  <circle cx="16" cy="11" r="1" fill="rgba(37.2824%,37.2824%,37.2824%,1)"/>
  <circle cx="17" cy="11" r="1" fill="rgba(58.3673%,58.3673%,58.3673%,1)"/>
  <circle cx="18" cy="11" r="1" fill="rgba(95.6771%,95.6771%,95.6771%,1)"/>
  <circle cx="19" cy="11" r="1" fill="white"/>
  <circle cx="20" cy="11" r="1" fill="white"/>
  <circle cx="21" cy="11" r="1" fill="white"/>
  <circle cx="0" cy="12" r="1" fill="white"/>
  <circle cx="1" cy="12" r="1" fill="white"/>
  <circle cx="2" cy="12" r="1" fill="white"/>
  <circle cx="3" cy="12" r="1" fill="white"/>
  <circle cx="4" cy="12" r="1" fill="white"/>
  <circle cx="5" cy="12" r="1" fill="white"/>
  <circle cx="6" cy="12" r="1" fill="rgba(93.785%,93.785%,93.785%,1)"/>
  <circle cx="7" cy="12" r="1" fill="rgba(70.5379%,70.5379%,70.5379%,1)"/>
  <circle cx="8" cy="12" r="1" fill="rgba(58.0789%,58.0789%,58.0789%,1)"/>
  <circle cx="9" cy="12" r="1" fill="rgba(68.5847%,68.5847%,68.5847%,1)"/>
  <circle cx="10" cy="12" r="1" fill="rgba(88.2689%,88.2689%,88.2689%,1)"/>
  <circle cx="11" cy="12" r="1" fill="rgba(88.1178%,88.1178%,88.1178%,1)"/>
  <circle cx="12" cy="12" r="1" fill="rgba(88.2048%,88.2048%,88.2048%,1)"/>
  <circle cx="13" cy="12" r="1" fill="rgba(83.5996%,83.5996%,83.5996%,1)"/>
  <circle cx="14" cy="12" r="1" fill="rgba(68.7816%,68.7816%,68.7816%,1)"/>
  <circle cx="15" cy="12" r="1" fill="rgba(41.7563%,41.7563%,41.7563%,1)"/>
  <circle cx="16" cy="12" r="1" fill="rgba(32.6635%,32.6635%,32.6635%,1)"/>
  <circle cx="17" cy="12" r="1" fill="rgba(51.8929%,51.8929%,51.8929%,1)"/>
  <circle cx="18" cy="12" r="1" fill="rgba(94.5418%,94.5418%,94.5418%,1)"/>
  <circle cx="19" cy="12" r="1" fill="white"/>
  <circle cx="20" cy="12" r="1" fill="white"/>
  <circle cx="21" cy="12" r="1" fill="white"/>
  <circle cx="0" cy="13" r="1" fill="white"/>
  <circle cx="1" cy="13" r="1" fill="white"/>
  <circle cx="2" cy="13" r="1" fill="white"/>
  <circle cx="3" cy="13" r="1" fill="white"/>
  <circle cx="4" cy="13" r="1" fill="white"/>
  <circle cx="5" cy="13" r="1" fill="rgba(97.8668%,97.8668%,97.8668%,1)"/>
  <circle cx="6" cy="13" r="1" fill="rgba(83.6011%,83.6011%,83.6011%,1)"/>
  <circle cx="7" cy="13" r="1" fill="rgba(49.9184%,49.9184%,49.9184%,1)"/>
  <circle cx="8" cy="13" r="1" fill="rgba(50.2129%,50.2129%,50.2129%,1)"/>
  <circle cx="9" cy="13" r="1" fill="rgba(58.6603%,58.6603%,58.6603%,1)"/>
  <circle cx="10" cy="13" r="1" fill="rgba(64.4709%,64.4709%,64.4709%,1)"/>
  <circle cx="11" cy="13" r="1" fill="rgba(64.5304%,64.5304%,64.5304%,1)"/>
  <circle cx="12" cy="13" r="1" fill="rgba(64.7593%,64.7593%,64.7593%,1)"/>
  <circle cx="13" cy="13" r="1" fill="rgba(62.7726%,62.7726%,62.7726%,1)"/>
  <circle cx="14" cy="13" r="1" fill="rgba(55.4864%,55.4864%,55.4864%,1)"/>
  <circle cx="15" cy="13" r="1" fill="rgba(38.1491%,38.1491%,38.1491%,1)"/>
  <circle cx="16" cy="13" r="1" fill="rgba(30.2007%,30.2007%,30.2007%,1)"/>
  <circle cx="17" cy="13" r="1" fill="rgba(47.0771%,47.0771%,47.0771%,1)"/>
  <circle cx="18" cy="13" r="1" fill="rgba(90.5516%,90.5516%,90.5516%,1)"/>
  <circle cx="19" cy="13" r="1" fill="rgba(99.2966%,99.2966%,99.2966%,1)"/>
  <circle cx="20" cy="13" r="1" fill="white"/>
  <circle cx="21" cy="13" r="1" fill="white"/>
  <circle cx="0" cy="14" r="1" fill="white"/>
  <circle cx="1" cy="14" r="1" fill="white"/>
  <circle cx="2" cy="14" r="1" fill="white"/>
  <circle cx="3" cy="14" r="1" fill="rgba(99.9847%,99.9847%,99.9847%,1)"/>
  <circle cx="4" cy="14" r="1" fill="rgba(99.9115%,99.9115%,99.9115%,1)"/>
  <circle cx="5" cy="14" r="1" fill="rgba(89.6315%,89.6315%,89.6315%,1)"/>
  <circle cx="6" cy="14" r="1" fill="rgba(68.2094%,68.2094%,68.2094%,1)"/>
  <circle cx="7" cy="14" r="1" fill="rgba(42.7329%,42.7329%,42.7329%,1)"/>
  <circle cx="8" cy="14" r="1" fill="rgba(43.5996%,43.5996%,43.5996%,1)"/>
  <circle cx="9" cy="14" r="1" fill="rgba(47.0344%,47.0344%,47.0344%,1)"/>
  <circle cx="10" cy="14" r="1" fill="rgba(47.1763%,47.1763%,47.1763%,1)"/>
  <circle cx="11" cy="14" r="1" fill="rgba(47.1809%,47.1809%,47.1809%,1)"/>
  <circle cx="12" cy="14" r="1" fill="rgba(47.2038%,47.2038%,47.2038%,1)"/>
  <circle cx="13" cy="14" r="1" fill="rgba(47.1412%,47.1412%,47.1412%,1)"/>
  <circle cx="14" cy="14" r="1" fill="rgba(45.3086%,45.3086%,45.3086%,1)"/>
  <circle cx="15" cy="14" r="1" fill="rgba(35.4177%,35.4177%,35.4177%,1)"/>
  <circle cx="16" cy="14" r="1" fill="rgba(29.8283%,29.8283%,29.8283%,1)"/>
  <circle cx="17" cy="14" r="1" fill="rgba(44.1169%,44.1169%,44.1169%,1)"/>
  <circle cx="18" cy="14" r="1" fill="rgba(83.2349%,83.2349%,83.2349%,1)"/>
  <circle cx="19" cy="14" r="1" fill="rgba(97.2122%,97.2122%,97.2122%,1)"/>
  <circle cx="20" cy="14" r="1" fill="white"/>
  <circle cx="21" cy="14" r="1" fill="white"/>
  <circle cx="0" cy="15" r="1" fill="white"/>
  <circle cx="1" cy="15" r="1" fill="white"/>
  <circle cx="2" cy="15" r="1" fill="white"/>
  <circle cx="3" cy="15" r="1" fill="rgba(99.8856%,99.8856%,99.8856%,1)"/>
  <circle cx="4" cy="15" r="1" fill="rgba(99.5071%,99.5071%,99.5071%,1)"/>
  <circle cx="5" cy="15" r="1" fill="rgba(71.9829%,71.9829%,71.9829%,1)"/>
  <circle cx="6" cy="15" r="1" fill="rgba(50.956%,50.956%,50.956%,1)"/>
  <circle cx="7" cy="15" r="1" fill="rgba(68.0278%,68.0278%,68.0278%,1)"/>
  <circle cx="8" cy="15" r="1" fill="rgba(81.8723%,81.8723%,81.8723%,1)"/>
  <circle cx="9" cy="15" r="1" fill="rgba(86.7491%,86.7491%,86.7491%,1)"/>
  <circle cx="10" cy="15" r="1" fill="rgba(86.5782%,86.5782%,86.5782%,1)"/>
  <circle cx="11" cy="15" r="1" fill="rgba(86.5766%,86.5766%,86.5766%,1)"/>
  <circle cx="12" cy="15" r="1" fill="rgba(86.5766%,86.5766%,86.5766%,1)"/>
  <circle cx="13" cy="15" r="1" fill="rgba(86.627%,86.627%,86.627%,1)"/>
  <circle cx="14" cy="15" r="1" fill="rgba(82.0401%,82.0401%,82.0401%,1)"/>
  <circle cx="15" cy="15" r="1" fill="rgba(44.9287%,44.9287%,44.9287%,1)"/>
  <circle cx="16" cy="15" r="1" fill="rgba(28.7266%,28.7266%,28.7266%,1)"/>
  <circle cx="17" cy="15" r="1" fill="rgba(41.3291%,41.3291%,41.3291%,1)"/>
  <circle cx="18" cy="15" r="1" fill="rgba(75.4025%,75.4025%,75.4025%,1)"/>
  <circle cx="19" cy="15" r="1" fill="rgba(94.3893%,94.3893%,94.3893%,1)"/>
  <circle cx="20" cy="15" r="1" fill="white"/>
  <circle cx="21" cy="15" r="1" fill="white"/>
  <circle cx="0" cy="16" r="1" fill="white"/>
  <circle cx="1" cy="16" r="1" fill="white"/>
  <circle cx="2" cy="16" r="1" fill="white"/>
  <circle cx="3" cy="16" r="1" fill="rgba(98.8983%,98.8983%,98.8983%,1)"/>
  <circle cx="4" cy="16" r="1" fill="rgba(86.2699%,86.2699%,86.2699%,1)"/>
  <circle cx="5" cy="16" r="1" fill="rgba(58.7243%,58.7243%,58.7243%,1)"/>
  <circle cx="6" cy="16" r="1" fill="rgba(51.2016%,51.2016%,51.2016%,1)"/>
  <circle cx="7" cy="16" r="1" fill="rgba(87.631%,87.631%,87.631%,1)"/>
  <circle cx="8" cy="16" r="1" fill="rgba(99.2462%,99.2462%,99.2462%,1)"/>
  <circle cx="9" cy="16" r="1" fill="white"/>
  <circle cx="10" cy="16" r="1" fill="white"/>
  <circle cx="11" cy="16" r="1" fill="white"/>
  <circle cx="12" cy="16" r="1" fill="white"/>
  <circle cx="13" cy="16" r="1" fill="white"/>
  <circle cx="14" cy="16" r="1" fill="rgba(96.7086%,96.7086%,96.7086%,1)"/>
  <circle cx="15" cy="16" r="1" fill="rgba(52.195%,52.195%,52.195%,1)"/>
  <circle cx="16" cy="16" r="1" fill="rgba(30.6111%,30.6111%,30.6111%,1)"/>
  <circle cx="17" cy="16" r="1" fill="rgba(38.5168%,38.5168%,38.5168%,1)"/>
  <circle cx="18" cy="16" r="1" fill="rgba(67.5166%,67.5166%,67.5166%,1)"/>
  <circle cx="19" cy="16" r="1" fill="rgba(91.49%,91.49%,91.49%,1)"/>
  <circle cx="20" cy="16" r="1" fill="white"/>
  <circle cx="21" cy="16" r="1" fill="white"/>
  <circle cx="0" cy="17" r="1" fill="white"/>
  <circle cx="1" cy="17" r="1" fill="white"/>
  <circle cx="2" cy="17" r="1" fill="rgba(99.6689%,99.6689%,99.6689%,1)"/>
  <circle cx="3" cy="17" r="1" fill="rgba(94.5006%,94.5006%,94.5006%,1)"/>
  <circle cx="4" cy="17" r="1" fill="rgba(64.799%,64.799%,64.799%,1)"/>
  <circle cx="5" cy="17" r="1" fill="rgba(53.1106%,53.1106%,53.1106%,1)"/>
  <circle cx="6" cy="17" r="1" fill="rgba(66.3447%,66.3447%,66.3447%,1)"/>
  <circle cx="7" cy="17" r="1" fill="rgba(96.8612%,96.8612%,96.8612%,1)"/>
  <circle cx="8" cy="17" r="1" fill="white"/>
  <circle cx="9" cy="17" r="1" fill="white"/>
  <circle cx="10" cy="17" r="1" fill="white"/>
  <circle cx="11" cy="17" r="1" fill="white"/>
  <circle cx="12" cy="17" r="1" fill="white"/>
  <circle cx="13" cy="17" r="1" fill="white"/>
  <circle cx="14" cy="17" r="1" fill="rgba(95.5673%,95.5673%,95.5673%,1)"/>
  <circle cx="15" cy="17" r="1" fill="rgba(57.2839%,57.2839%,57.2839%,1)"/>
  <circle cx="16" cy="17" r="1" fill="rgba(34.1375%,34.1375%,34.1375%,1)"/>
  <circle cx="17" cy="17" r="1" fill="rgba(35.5215%,35.5215%,35.5215%,1)"/>
  <circle cx="18" cy="17" r="1" fill="rgba(59.469%,59.469%,59.469%,1)"/>
  <circle cx="19" cy="17" r="1" fill="rgba(88.5557%,88.5557%,88.5557%,1)"/>
  <circle cx="20" cy="17" r="1" fill="white"/>
  <circle cx="21" cy="17" r="1" fill="white"/>
  <circle cx="0" cy="18" r="1" fill="white"/>
  <circle cx="1" cy="18" r="1" fill="rgba(99.9481%,99.9481%,99.9481%,1)"/>
  <circle cx="2" cy="18" r="1" fill="rgba(96.8688%,96.8688%,96.8688%,1)"/>
  <circle cx="3" cy="18" r="1" fill="rgba(82.9389%,82.9389%,82.9389%,1)"/>
  <circle cx="4" cy="18" r="1" fill="rgba(44.0925%,44.0925%,44.0925%,1)"/>
  <circle cx="5" cy="18" r="1" fill="rgba(55.6176%,55.6176%,55.6176%,1)"/>
  <circle cx="6" cy="18" r="1" fill="rgba(87.4205%,87.4205%,87.4205%,1)"/>
  <circle cx="7" cy="18" r="1" fill="rgba(98.6465%,98.6465%,98.6465%,1)"/>
  <circle cx="8" cy="18" r="1" fill="white"/>
  <circle cx="9" cy="18" r="1" fill="white"/>
  <circle cx="10" cy="18" r="1" fill="white"/>
  <circle cx="11" cy="18" r="1" fill="white"/>
  <circle cx="12" cy="18" r="1" fill="white"/>
  <circle cx="13" cy="18" r="1" fill="white"/>
  <circle cx="14" cy="18" r="1" fill="rgba(96.0861%,96.0861%,96.0861%,1)"/>
  <circle cx="15" cy="18" r="1" fill="rgba(62.4582%,62.4582%,62.4582%,1)"/>
  <circle cx="16" cy="18" r="1" fill="rgba(37.3129%,37.3129%,37.3129%,1)"/>
  <circle cx="17" cy="18" r="1" fill="rgba(32.2698%,32.2698%,32.2698%,1)"/>
  <circle cx="18" cy="18" r="1" fill="rgba(50.9316%,50.9316%,50.9316%,1)"/>
  <circle cx="19" cy="18" r="1" fill="rgba(85.4139%,85.4139%,85.4139%,1)"/>
  <circle cx="20" cy="18" r="1" fill="white"/>
  <circle cx="21" cy="18" r="1" fill="white"/>
  <circle cx="0" cy="19" r="1" fill="white"/>
  <circle cx="1" cy="19" r="1" fill="white"/>
  <circle cx="2" cy="19" r="1" fill="rgba(84.8112%,84.8112%,84.8112%,1)"/>
  <circle cx="3" cy="19" r="1" fill="rgba(54.4717%,54.4717%,54.4717%,1)"/>
  <circle cx="4" cy="19" r="1" fill="rgba(37.5158%,37.5158%,37.5158%,1)"/>
  <circle cx="5" cy="19" r="1" fill="rgba(65.5299%,65.5299%,65.5299%,1)"/>
  <circle cx="6" cy="19" r="1" fill="rgba(98.5611%,98.5611%,98.5611%,1)"/>
  <circle cx="7" cy="19" r="1" fill="white"/>
  <circle cx="8" cy="19" r="1" fill="white"/>
  <circle cx="9" cy="19" r="1" fill="white"/>
  <circle cx="10" cy="19" r="1" fill="white"/>
  <circle cx="11" cy="19" r="1" fill="white"/>
  <circle cx="12" cy="19" r="1" fill="white"/>
  <circle cx="13" cy="19" r="1" fill="white"/>
  <circle cx="14" cy="19" r="1" fill="rgba(97.8973%,97.8973%,97.8973%,1)"/>
  <circle cx="15" cy="19" r="1" fill="rgba(67.6722%,67.6722%,67.6722%,1)"/>
  <circle cx="16" cy="19" r="1" fill="rgba(40.3265%,40.3265%,40.3265%,1)"/>
  <circle cx="17" cy="19" r="1" fill="rgba(28.661%,28.661%,28.661%,1)"/>
  <circle cx="18" cy="19" r="1" fill="rgba(40.9293%,40.9293%,40.9293%,1)"/>
  <circle cx="19" cy="19" r="1" fill="rgba(82.5788%,82.5788%,82.5788%,1)"/>
  <circle cx="20" cy="19" r="1" fill="white"/>
  <circle cx="21" cy="19" r="1" fill="white"/>
  <circle cx="0" cy="20" r="1" fill="rgba(91.7357%,91.7357%,91.7357%,1)"/>
  <circle cx="1" cy="20" r="1" fill="rgba(80.3326%,80.3326%,80.3326%,1)"/>
  <circle cx="2" cy="20" r="1" fill="rgba(58.378%,58.378%,58.378%,1)"/>
  <circle cx="3" cy="20" r="1" fill="rgba(35.9594%,35.9594%,35.9594%,1)"/>
  <circle cx="4" cy="20" r="1" fill="rgba(33.9284%,33.9284%,33.9284%,1)"/>
  <circle cx="5" cy="20" r="1" fill="rgba(57.847%,57.847%,57.847%,1)"/>
  <circle cx="6" cy="20" r="1" fill="rgba(84.8356%,84.8356%,84.8356%,1)"/>
  <circle cx="7" cy="20" r="1" fill="rgba(95.7351%,95.7351%,95.7351%,1)"/>
  <circle cx="8" cy="20" r="1" fill="rgba(99.3805%,99.3805%,99.3805%,1)"/>
  <circle cx="9" cy="20" r="1" fill="white"/>
  <circle cx="10" cy="20" r="1" fill="white"/>
  <circle cx="11" cy="20" r="1" fill="rgba(99.9939%,99.9939%,99.9939%,1)"/>
  <circle cx="12" cy="20" r="1" fill="rgba(98.8312%,98.8312%,98.8312%,1)"/>
  <circle cx="13" cy="20" r="1" fill="rgba(92.0119%,92.0119%,92.0119%,1)"/>
  <circle cx="14" cy="20" r="1" fill="rgba(78.4527%,78.4527%,78.4527%,1)"/>
  <circle cx="15" cy="20" r="1" fill="rgba(55.6954%,55.6954%,55.6954%,1)"/>
  <circle cx="16" cy="20" r="1" fill="rgba(37.3922%,37.3922%,37.3922%,1)"/>
  <circle cx="17" cy="20" r="1" fill="rgba(28.8334%,28.8334%,28.8334%,1)"/>
  <circle cx="18" cy="20" r="1" fill="rgba(34.2565%,34.2565%,34.2565%,1)"/>
  <circle cx="19" cy="20" r="1" fill="rgba(62.8824%,62.8824%,62.8824%,1)"/>
  <circle cx="20" cy="20" r="1" fill="rgba(83.4943%,83.4943%,83.4943%,1)"/>
  <circle cx="21" cy="20" r="1" fill="rgba(91.751%,91.751%,91.751%,1)"/>
  <circle cx="0" cy="21" r="1" fill="rgba(80.3388%,80.3388%,80.3388%,1)"/>
  <circle cx="1" cy="21" r="1" fill="rgba(55.3902%,55.3902%,55.3902%,1)"/>
  <circle cx="2" cy="21" r="1" fill="rgba(33.8811%,33.8811%,33.8811%,1)"/>
  <circle cx="3" cy="21" r="1" fill="rgba(31.5999%,31.5999%,31.5999%,1)"/>
  <circle cx="4" cy="21" r="1" fill="rgba(31.1803%,31.1803%,31.1803%,1)"/>
  <circle cx="5" cy="21" r="1" fill="rgba(41.6785%,41.6785%,41.6785%,1)"/>
  <circle cx="6" cy="21" r="1" fill="rgba(63.0091%,63.0091%,63.0091%,1)"/>
  <circle cx="7" cy="21" r="1" fill="rgba(89.7459%,89.7459%,89.7459%,1)"/>
  <circle cx="8" cy="21" r="1" fill="rgba(98.526%,98.526%,98.526%,1)"/>
  <circle cx="9" cy="21" r="1" fill="white"/>
  <circle cx="10" cy="21" r="1" fill="white"/>
  <circle cx="11" cy="21" r="1" fill="rgba(99.9863%,99.9863%,99.9863%,1)"/>
  <circle cx="12" cy="21" r="1" fill="rgba(97.2183%,97.2183%,97.2183%,1)"/>
  <circle cx="13" cy="21" r="1" fill="rgba(80.9781%,80.9781%,80.9781%,1)"/>
  <circle cx="14" cy="21" r="1" fill="rgba(53.2494%,53.2494%,53.2494%,1)"/>
  <circle cx="15" cy="21" r="1" fill="rgba(37.9706%,37.9706%,37.9706%,1)"/>
  <circle cx="16" cy="21" r="1" fill="rgba(32.0974%,32.0974%,32.0974%,1)"/>
  <circle cx="17" cy="21" r="1" fill="rgba(31.133%,31.133%,31.133%,1)"/>
  <circle cx="18" cy="21" r="1" fill="rgba(31.8685%,31.8685%,31.8685%,1)"/>
  <circle cx="19" cy="21" r="1" fill="rgba(40.1266%,40.1266%,40.1266%,1)"/>
  <circle cx="20" cy="21" r="1" fill="rgba(60.6989%,60.6989%,60.6989%,1)"/>
  <circle cx="21" cy="21" r="1" fill="rgba(80.3586%,80.3586%,80.3586%,1)"/>
</svg>
