/* XPM */
static char *locked[] = {
/* columns rows colors chars-per-pixel */
"22 22 2 1 ",
"  c #031203120312",
". c None",
/* pixels */
"......................",
"......................",
"......................",
".........    .........",
"........      ........",
"....... ...... .......",
"......................",
"......................",
"...... ..    .. ......",
".....  ...............",
"......................",
"......................",
"......................",
"......................",
"......................",
"......................",
"......................",
"......................",
"......................",
"......................",
"......................",
"......................"
};
