<?xml version="1.0" standalone="no"?>
<!DOCTYPE svg PUBLIC "-//W3C//DTD SVG 20010904//EN"
  "http://www.w3.org/TR/2001/REC-SVG-20010904/DTD/svg10.dtd">
<svg width="22" height="22">
  <circle cx="0" cy="0" r="1" fill="white"/>
  <circle cx="1" cy="0" r="1" fill="rgba(99.8337%,99.8291%,99.826%,1)"/>
  <circle cx="2" cy="0" r="1" fill="rgba(99.0921%,99.0799%,99.0707%,1)"/>
  <circle cx="3" cy="0" r="1" fill="rgba(98.8678%,98.851%,98.8434%,1)"/>
  <circle cx="4" cy="0" r="1" fill="rgba(98.8678%,98.8556%,98.8464%,1)"/>
  <circle cx="5" cy="0" r="1" fill="rgba(98.8663%,98.851%,98.8434%,1)"/>
  <circle cx="6" cy="0" r="1" fill="rgba(98.8663%,98.8495%,98.8418%,1)"/>
  <circle cx="7" cy="0" r="1" fill="rgba(98.8663%,98.8495%,98.8418%,1)"/>
  <circle cx="8" cy="0" r="1" fill="rgba(98.8663%,98.8495%,98.8418%,1)"/>
  <circle cx="9" cy="0" r="1" fill="rgba(98.8663%,98.8495%,98.8418%,1)"/>
  <circle cx="10" cy="0" r="1" fill="rgba(98.8663%,98.8495%,98.8418%,1)"/>
  <circle cx="11" cy="0" r="1" fill="rgba(98.8663%,98.8495%,98.8418%,1)"/>
  <circle cx="12" cy="0" r="1" fill="rgba(98.8663%,98.8495%,98.8418%,1)"/>
  <circle cx="13" cy="0" r="1" fill="rgba(98.8663%,98.8495%,98.8418%,1)"/>
  <circle cx="14" cy="0" r="1" fill="rgba(98.8663%,98.8495%,98.8418%,1)"/>
  <circle cx="15" cy="0" r="1" fill="rgba(98.8663%,98.851%,98.8418%,1)"/>
  <circle cx="16" cy="0" r="1" fill="rgba(98.8678%,98.854%,98.8464%,1)"/>
  <circle cx="17" cy="0" r="1" fill="rgba(98.8708%,98.8556%,98.8479%,1)"/>
  <circle cx="18" cy="0" r="1" fill="rgba(98.8678%,98.851%,98.8434%,1)"/>
  <circle cx="19" cy="0" r="1" fill="rgba(99.0936%,99.0784%,99.0707%,1)"/>
  <circle cx="20" cy="0" r="1" fill="rgba(99.8352%,99.8291%,99.826%,1)"/>
  <circle cx="21" cy="0" r="1" fill="white"/>
  <circle cx="0" cy="1" r="1" fill="rgba(99.4598%,99.4537%,99.4507%,1)"/>
  <circle cx="1" cy="1" r="1" fill="rgba(94.287%,94.3999%,94.4701%,1)"/>
  <circle cx="2" cy="1" r="1" fill="rgba(90.6203%,91.0552%,91.3497%,1)"/>
  <circle cx="3" cy="1" r="1" fill="rgba(90.3304%,90.7759%,91.0994%,1)"/>
  <circle cx="4" cy="1" r="1" fill="rgba(90.4005%,90.808%,91.1284%,1)"/>
  <circle cx="5" cy="1" r="1" fill="rgba(90.4341%,90.8492%,91.1727%,1)"/>
  <circle cx="6" cy="1" r="1" fill="rgba(90.4326%,90.8751%,91.1971%,1)"/>
  <circle cx="7" cy="1" r="1" fill="rgba(90.4326%,90.8736%,91.1955%,1)"/>
  <circle cx="8" cy="1" r="1" fill="rgba(90.4326%,90.8736%,91.1955%,1)"/>
  <circle cx="9" cy="1" r="1" fill="rgba(90.4326%,90.8736%,91.1955%,1)"/>
  <circle cx="10" cy="1" r="1" fill="rgba(90.4326%,90.8736%,91.1955%,1)"/>
  <circle cx="11" cy="1" r="1" fill="rgba(90.4326%,90.8736%,91.1955%,1)"/>
  <circle cx="12" cy="1" r="1" fill="rgba(90.4326%,90.8736%,91.1955%,1)"/>
  <circle cx="13" cy="1" r="1" fill="rgba(90.4326%,90.8736%,91.1955%,1)"/>
  <circle cx="14" cy="1" r="1" fill="rgba(90.4326%,90.8751%,91.1971%,1)"/>
  <circle cx="15" cy="1" r="1" fill="rgba(90.4341%,90.8629%,91.1849%,1)"/>
  <circle cx="16" cy="1" r="1" fill="rgba(90.4189%,90.8171%,91.1406%,1)"/>
  <circle cx="17" cy="1" r="1" fill="rgba(90.3609%,90.7942%,91.1131%,1)"/>
  <circle cx="18" cy="1" r="1" fill="rgba(90.3288%,90.7744%,91.1009%,1)"/>
  <circle cx="19" cy="1" r="1" fill="rgba(90.6569%,91.0735%,91.3588%,1)"/>
  <circle cx="20" cy="1" r="1" fill="rgba(94.3069%,94.4213%,94.49%,1)"/>
  <circle cx="21" cy="1" r="1" fill="rgba(99.4583%,99.4537%,99.4507%,1)"/>
  <circle cx="0" cy="2" r="1" fill="rgba(95.2285%,95.2148%,95.2041%,1)"/>
  <circle cx="1" cy="2" r="1" fill="rgba(84.477%,85.0599%,85.4017%,1)"/>
  <circle cx="2" cy="2" r="1" fill="rgba(82.5681%,83.8407%,84.6235%,1)"/>
  <circle cx="3" cy="2" r="1" fill="rgba(82.2904%,83.5706%,84.3168%,1)"/>
  <circle cx="4" cy="2" r="1" fill="rgba(82.5132%,83.7415%,84.5258%,1)"/>
  <circle cx="5" cy="2" r="1" fill="rgba(82.623%,83.8804%,84.6616%,1)"/>
  <circle cx="6" cy="2" r="1" fill="rgba(82.6947%,83.9796%,84.7257%,1)"/>
  <circle cx="7" cy="2" r="1" fill="rgba(82.7054%,83.9948%,84.7318%,1)"/>
  <circle cx="8" cy="2" r="1" fill="rgba(82.7268%,84.0192%,84.7578%,1)"/>
  <circle cx="9" cy="2" r="1" fill="rgba(82.681%,83.978%,84.7227%,1)"/>
  <circle cx="10" cy="2" r="1" fill="rgba(82.6246%,83.9277%,84.6738%,1)"/>
  <circle cx="11" cy="2" r="1" fill="rgba(82.6246%,83.9277%,84.6738%,1)"/>
  <circle cx="12" cy="2" r="1" fill="rgba(82.6795%,83.9765%,84.7211%,1)"/>
  <circle cx="13" cy="2" r="1" fill="rgba(82.7268%,84.0177%,84.7578%,1)"/>
  <circle cx="14" cy="2" r="1" fill="rgba(82.7054%,83.9933%,84.7333%,1)"/>
  <circle cx="15" cy="2" r="1" fill="rgba(82.6505%,83.9185%,84.6921%,1)"/>
  <circle cx="16" cy="2" r="1" fill="rgba(82.5544%,83.7858%,84.5731%,1)"/>
  <circle cx="17" cy="2" r="1" fill="rgba(82.3819%,83.6423%,84.3946%,1)"/>
  <circle cx="18" cy="2" r="1" fill="rgba(82.1607%,83.4516%,84.2267%,1)"/>
  <circle cx="19" cy="2" r="1" fill="rgba(82.5559%,83.8285%,84.622%,1)"/>
  <circle cx="20" cy="2" r="1" fill="rgba(84.5029%,85.069%,85.4231%,1)"/>
  <circle cx="21" cy="2" r="1" fill="rgba(95.2605%,95.2468%,95.2392%,1)"/>
  <circle cx="0" cy="3" r="1" fill="rgba(92.137%,92.1218%,92.1111%,1)"/>
  <circle cx="1" cy="3" r="1" fill="rgba(80.0275%,80.676%,81.1826%,1)"/>
  <circle cx="2" cy="3" r="1" fill="rgba(81.12%,82.4155%,83.3814%,1)"/>
  <circle cx="3" cy="3" r="1" fill="rgba(81.3428%,82.5635%,83.5065%,1)"/>
  <circle cx="4" cy="3" r="1" fill="rgba(81.6602%,82.8748%,83.801%,1)"/>
  <circle cx="5" cy="3" r="1" fill="rgba(81.8967%,83.1235%,84.0314%,1)"/>
  <circle cx="6" cy="3" r="1" fill="rgba(82.0447%,83.2486%,84.1688%,1)"/>
  <circle cx="7" cy="3" r="1" fill="rgba(81.8097%,83.035%,83.9612%,1)"/>
  <circle cx="8" cy="3" r="1" fill="rgba(81.5747%,82.7436%,83.6332%,1)"/>
  <circle cx="9" cy="3" r="1" fill="rgba(82.1225%,83.1937%,84.0055%,1)"/>
  <circle cx="10" cy="3" r="1" fill="rgba(82.6169%,83.5843%,84.361%,1)"/>
  <circle cx="11" cy="3" r="1" fill="rgba(82.6307%,83.5966%,84.3641%,1)"/>
  <circle cx="12" cy="3" r="1" fill="rgba(82.1485%,83.2227%,84.0253%,1)"/>
  <circle cx="13" cy="3" r="1" fill="rgba(81.5732%,82.7497%,83.6393%,1)"/>
  <circle cx="14" cy="3" r="1" fill="rgba(81.8143%,83.035%,83.9597%,1)"/>
  <circle cx="15" cy="3" r="1" fill="rgba(81.9776%,83.1907%,84.1047%,1)"/>
  <circle cx="16" cy="3" r="1" fill="rgba(81.738%,82.9725%,83.8819%,1)"/>
  <circle cx="17" cy="3" r="1" fill="rgba(81.4511%,82.652%,83.6027%,1)"/>
  <circle cx="18" cy="3" r="1" fill="rgba(81.0971%,82.3651%,83.3051%,1)"/>
  <circle cx="19" cy="3" r="1" fill="rgba(80.9644%,82.2583%,83.2456%,1)"/>
  <circle cx="20" cy="3" r="1" fill="rgba(80.0443%,80.6897%,81.1963%,1)"/>
  <circle cx="21" cy="3" r="1" fill="rgba(92.1523%,92.1355%,92.1248%,1)"/>
  <circle cx="0" cy="4" r="1" fill="rgba(91.7617%,91.7464%,91.7357%,1)"/>
  <circle cx="1" cy="4" r="1" fill="rgba(79.0234%,79.7253%,80.2564%,1)"/>
  <circle cx="2" cy="4" r="1" fill="rgba(80.3998%,81.7899%,82.768%,1)"/>
  <circle cx="3" cy="4" r="1" fill="rgba(80.7324%,82.0462%,82.9999%,1)"/>
  <circle cx="4" cy="4" r="1" fill="rgba(81.2222%,82.501%,83.4134%,1)"/>
  <circle cx="5" cy="4" r="1" fill="rgba(81.4633%,82.7619%,83.6667%,1)"/>
  <circle cx="6" cy="4" r="1" fill="rgba(81.0941%,82.3148%,83.151%,1)"/>
  <circle cx="7" cy="4" r="1" fill="rgba(82.9404%,83.8193%,84.4144%,1)"/>
  <circle cx="8" cy="4" r="1" fill="rgba(87.219%,87.6341%,87.9301%,1)"/>
  <circle cx="9" cy="4" r="1" fill="rgba(90.3334%,90.518%,90.6355%,1)"/>
  <circle cx="10" cy="4" r="1" fill="rgba(90.0389%,90.1183%,90.193%,1)"/>
  <circle cx="11" cy="4" r="1" fill="rgba(90.0313%,90.1106%,90.1808%,1)"/>
  <circle cx="12" cy="4" r="1" fill="rgba(90.2785%,90.4662%,90.5821%,1)"/>
  <circle cx="13" cy="4" r="1" fill="rgba(87.2236%,87.6326%,87.9271%,1)"/>
  <circle cx="14" cy="4" r="1" fill="rgba(82.9313%,83.7598%,84.3915%,1)"/>
  <circle cx="15" cy="4" r="1" fill="rgba(81.0269%,82.2705%,83.151%,1)"/>
  <circle cx="16" cy="4" r="1" fill="rgba(81.3001%,82.5971%,83.5035%,1)"/>
  <circle cx="17" cy="4" r="1" fill="rgba(80.9064%,82.1942%,83.1418%,1)"/>
  <circle cx="18" cy="4" r="1" fill="rgba(80.3891%,81.7548%,82.71%,1)"/>
  <circle cx="19" cy="4" r="1" fill="rgba(80.1434%,81.5351%,82.5284%,1)"/>
  <circle cx="20" cy="4" r="1" fill="rgba(78.9715%,79.6735%,80.2014%,1)"/>
  <circle cx="21" cy="4" r="1" fill="rgba(91.7647%,91.7479%,91.7388%,1)"/>
  <circle cx="0" cy="5" r="1" fill="rgba(91.5145%,91.5023%,91.4916%,1)"/>
  <circle cx="1" cy="5" r="1" fill="rgba(78.114%,78.8342%,79.4217%,1)"/>
  <circle cx="2" cy="5" r="1" fill="rgba(79.6139%,80.9567%,82.0569%,1)"/>
  <circle cx="3" cy="5" r="1" fill="rgba(80.0855%,81.3565%,82.3804%,1)"/>
  <circle cx="4" cy="5" r="1" fill="rgba(80.6027%,81.7807%,82.8244%,1)"/>
  <circle cx="5" cy="5" r="1" fill="rgba(80.3372%,81.4649%,82.3255%,1)"/>
  <circle cx="6" cy="5" r="1" fill="rgba(84.947%,85.4887%,85.8091%,1)"/>
  <circle cx="7" cy="5" r="1" fill="rgba(90.9972%,91.0445%,91.0658%,1)"/>
  <circle cx="8" cy="5" r="1" fill="rgba(92.9595%,92.9412%,92.9305%,1)"/>
  <circle cx="9" cy="5" r="1" fill="rgba(92.871%,92.8588%,92.8511%,1)"/>
  <circle cx="10" cy="5" r="1" fill="rgba(82.8641%,82.8595%,82.855%,1)"/>
  <circle cx="11" cy="5" r="1" fill="rgba(82.8595%,82.855%,82.8504%,1)"/>
  <circle cx="12" cy="5" r="1" fill="rgba(92.8435%,92.8328%,92.8252%,1)"/>
  <circle cx="13" cy="5" r="1" fill="rgba(92.9778%,92.9564%,92.9473%,1)"/>
  <circle cx="14" cy="5" r="1" fill="rgba(90.9712%,91.0079%,91.0491%,1)"/>
  <circle cx="15" cy="5" r="1" fill="rgba(84.8875%,85.3971%,85.7511%,1)"/>
  <circle cx="16" cy="5" r="1" fill="rgba(80.2167%,81.2848%,82.2217%,1)"/>
  <circle cx="17" cy="5" r="1" fill="rgba(80.2457%,81.4939%,82.5299%,1)"/>
  <circle cx="18" cy="5" r="1" fill="rgba(79.6582%,80.9751%,82.0356%,1)"/>
  <circle cx="19" cy="5" r="1" fill="rgba(79.2874%,80.6378%,81.7533%,1)"/>
  <circle cx="20" cy="5" r="1" fill="rgba(78.0072%,78.7274%,79.3149%,1)"/>
  <circle cx="21" cy="5" r="1" fill="rgba(91.5221%,91.5084%,91.4977%,1)"/>
  <circle cx="0" cy="6" r="1" fill="rgba(91.2062%,91.1925%,91.1818%,1)"/>
  <circle cx="1" cy="6" r="1" fill="rgba(77.1725%,77.9034%,78.5397%,1)"/>
  <circle cx="2" cy="6" r="1" fill="rgba(78.7716%,80.0763%,81.265%,1)"/>
  <circle cx="3" cy="6" r="1" fill="rgba(79.2676%,80.5707%,81.6678%,1)"/>
  <circle cx="4" cy="6" r="1" fill="rgba(79.1089%,80.267%,81.2924%,1)"/>
  <circle cx="5" cy="6" r="1" fill="rgba(84.036%,84.5624%,84.9653%,1)"/>
  <circle cx="6" cy="6" r="1" fill="rgba(91.4946%,91.4961%,91.5053%,1)"/>
  <circle cx="7" cy="6" r="1" fill="rgba(93.1518%,93.1472%,93.1426%,1)"/>
  <circle cx="8" cy="6" r="1" fill="rgba(92.8939%,92.8939%,92.8923%,1)"/>
  <circle cx="9" cy="6" r="1" fill="rgba(91.4641%,91.4549%,91.4443%,1)"/>
  <circle cx="10" cy="6" r="1" fill="rgba(85.4582%,85.4398%,85.4246%,1)"/>
  <circle cx="11" cy="6" r="1" fill="rgba(85.4734%,85.4551%,85.4429%,1)"/>
  <circle cx="12" cy="6" r="1" fill="rgba(91.4687%,91.4595%,91.4504%,1)"/>
  <circle cx="13" cy="6" r="1" fill="rgba(92.8771%,92.8771%,92.8771%,1)"/>
  <circle cx="14" cy="6" r="1" fill="rgba(93.1701%,93.1655%,93.1609%,1)"/>
  <circle cx="15" cy="6" r="1" fill="rgba(91.4885%,91.49%,91.4839%,1)"/>
  <circle cx="16" cy="6" r="1" fill="rgba(83.9521%,84.4343%,84.8768%,1)"/>
  <circle cx="17" cy="6" r="1" fill="rgba(78.7579%,80.0015%,81.0285%,1)"/>
  <circle cx="18" cy="6" r="1" fill="rgba(78.8586%,80.1419%,81.2985%,1)"/>
  <circle cx="19" cy="6" r="1" fill="rgba(78.3886%,79.7498%,80.9491%,1)"/>
  <circle cx="20" cy="6" r="1" fill="rgba(77.0169%,77.7569%,78.3917%,1)"/>
  <circle cx="21" cy="6" r="1" fill="rgba(91.2139%,91.2001%,91.1894%,1)"/>
  <circle cx="0" cy="7" r="1" fill="rgba(90.956%,90.9422%,90.9331%,1)"/>
  <circle cx="1" cy="7" r="1" fill="rgba(76.2203%,76.9619%,77.6165%,1)"/>
  <circle cx="2" cy="7" r="1" fill="rgba(77.9385%,79.3057%,80.4181%,1)"/>
  <circle cx="3" cy="7" r="1" fill="rgba(78.0117%,79.379%,80.4486%,1)"/>
  <circle cx="4" cy="7" r="1" fill="rgba(79.9619%,80.7034%,81.384%,1)"/>
  <circle cx="5" cy="7" r="1" fill="rgba(89.955%,89.9794%,89.9977%,1)"/>
  <circle cx="6" cy="7" r="1" fill="rgba(93.1395%,93.135%,93.1319%,1)"/>
  <circle cx="7" cy="7" r="1" fill="rgba(92.3262%,92.3247%,92.3217%,1)"/>
  <circle cx="8" cy="7" r="1" fill="rgba(88.603%,88.6076%,88.6076%,1)"/>
  <circle cx="9" cy="7" r="1" fill="rgba(83.8605%,84.0284%,84.1947%,1)"/>
  <circle cx="10" cy="7" r="1" fill="rgba(81.5702%,81.9852%,82.3255%,1)"/>
  <circle cx="11" cy="7" r="1" fill="rgba(81.5579%,81.9883%,82.3011%,1)"/>
  <circle cx="12" cy="7" r="1" fill="rgba(83.8651%,84.0131%,84.1733%,1)"/>
  <circle cx="13" cy="7" r="1" fill="rgba(88.6015%,88.6046%,88.603%,1)"/>
  <circle cx="14" cy="7" r="1" fill="rgba(92.3049%,92.3018%,92.3003%,1)"/>
  <circle cx="15" cy="7" r="1" fill="rgba(93.1472%,93.1426%,93.1395%,1)"/>
  <circle cx="16" cy="7" r="1" fill="rgba(89.9321%,89.9611%,89.9901%,1)"/>
  <circle cx="17" cy="7" r="1" fill="rgba(79.707%,80.5142%,81.178%,1)"/>
  <circle cx="18" cy="7" r="1" fill="rgba(77.6196%,78.9731%,80.061%,1)"/>
  <circle cx="19" cy="7" r="1" fill="rgba(77.5402%,78.9303%,80.1007%,1)"/>
  <circle cx="20" cy="7" r="1" fill="rgba(76.0616%,76.8078%,77.4685%,1)"/>
  <circle cx="21" cy="7" r="1" fill="rgba(90.9651%,90.9514%,90.9407%,1)"/>
  <circle cx="0" cy="8" r="1" fill="rgba(90.631%,90.6188%,90.6081%,1)"/>
  <circle cx="1" cy="8" r="1" fill="rgba(75.1553%,75.9274%,76.6506%,1)"/>
  <circle cx="2" cy="8" r="1" fill="rgba(76.9162%,78.3398%,79.6033%,1)"/>
  <circle cx="3" cy="8" r="1" fill="rgba(76.3806%,77.6455%,78.732%,1)"/>
  <circle cx="4" cy="8" r="1" fill="rgba(83.83%,84.1398%,84.3839%,1)"/>
  <circle cx="5" cy="8" r="1" fill="rgba(92.3873%,92.3674%,92.3537%,1)"/>
  <circle cx="6" cy="8" r="1" fill="rgba(92.8054%,92.8054%,92.8038%,1)"/>
  <circle cx="7" cy="8" r="1" fill="rgba(88.5817%,88.5817%,88.5985%,1)"/>
  <circle cx="8" cy="8" r="1" fill="rgba(80.3983%,80.8118%,81.3062%,1)"/>
  <circle cx="9" cy="8" r="1" fill="rgba(77.8012%,78.8525%,79.8505%,1)"/>
  <circle cx="10" cy="8" r="1" fill="rgba(79.237%,80.5051%,81.6098%,1)"/>
  <circle cx="11" cy="8" r="1" fill="rgba(79.2538%,80.5173%,81.6129%,1)"/>
  <circle cx="12" cy="8" r="1" fill="rgba(77.8241%,78.8602%,79.8688%,1)"/>
  <circle cx="13" cy="8" r="1" fill="rgba(80.5722%,81.033%,81.445%,1)"/>
  <circle cx="14" cy="8" r="1" fill="rgba(88.5695%,88.5756%,88.5817%,1)"/>
  <circle cx="15" cy="8" r="1" fill="rgba(92.7932%,92.7916%,92.7901%,1)"/>
  <circle cx="16" cy="8" r="1" fill="rgba(92.3476%,92.3293%,92.3125%,1)"/>
  <circle cx="17" cy="8" r="1" fill="rgba(83.7186%,84.0177%,84.2878%,1)"/>
  <circle cx="18" cy="8" r="1" fill="rgba(75.9854%,77.2778%,78.4054%,1)"/>
  <circle cx="19" cy="8" r="1" fill="rgba(76.5393%,77.9767%,79.2828%,1)"/>
  <circle cx="20" cy="8" r="1" fill="rgba(75.0027%,75.7748%,76.5026%,1)"/>
  <circle cx="21" cy="8" r="1" fill="rgba(90.6401%,90.6264%,90.6157%,1)"/>
  <circle cx="0" cy="9" r="1" fill="rgba(90.4143%,90.4036%,90.3929%,1)"/>
  <circle cx="1" cy="9" r="1" fill="rgba(74.1329%,74.9706%,75.758%,1)"/>
  <circle cx="2" cy="9" r="1" fill="rgba(75.7626%,77.2641%,78.6465%,1)"/>
  <circle cx="3" cy="9" r="1" fill="rgba(75.671%,76.7605%,77.7615%,1)"/>
  <circle cx="4" cy="9" r="1" fill="rgba(87.2724%,87.3411%,87.4174%,1)"/>
  <circle cx="5" cy="9" r="1" fill="rgba(93.4142%,93.4096%,93.4051%,1)"/>
  <circle cx="6" cy="9" r="1" fill="rgba(91.6045%,91.5892%,91.5755%,1)"/>
  <circle cx="7" cy="9" r="1" fill="rgba(82.4521%,82.7436%,83.0045%,1)"/>
  <circle cx="8" cy="9" r="1" fill="rgba(75.5657%,76.7956%,77.9095%,1)"/>
  <circle cx="9" cy="9" r="1" fill="rgba(78.5672%,79.9176%,81.1643%,1)"/>
  <circle cx="10" cy="9" r="1" fill="rgba(80.5615%,81.8479%,82.977%,1)"/>
  <circle cx="11" cy="9" r="1" fill="rgba(80.4532%,81.7273%,82.8382%,1)"/>
  <circle cx="12" cy="9" r="1" fill="rgba(78.6206%,79.9512%,81.1856%,1)"/>
  <circle cx="13" cy="9" r="1" fill="rgba(75.6802%,76.9512%,78.0285%,1)"/>
  <circle cx="14" cy="9" r="1" fill="rgba(82.6535%,82.9786%,83.2181%,1)"/>
  <circle cx="15" cy="9" r="1" fill="rgba(91.6472%,91.6304%,91.6182%,1)"/>
  <circle cx="16" cy="9" r="1" fill="rgba(93.4142%,93.4081%,93.4035%,1)"/>
  <circle cx="17" cy="9" r="1" fill="rgba(87.2129%,87.2938%,87.361%,1)"/>
  <circle cx="18" cy="9" r="1" fill="rgba(75.2941%,76.3867%,77.3983%,1)"/>
  <circle cx="19" cy="9" r="1" fill="rgba(75.4177%,76.907%,78.3261%,1)"/>
  <circle cx="20" cy="9" r="1" fill="rgba(73.9971%,74.8257%,75.61%,1)"/>
  <circle cx="21" cy="9" r="1" fill="rgba(90.4219%,90.4112%,90.4005%,1)"/>
  <circle cx="0" cy="10" r="1" fill="rgba(90.0237%,90.0114%,90.0023%,1)"/>
  <circle cx="1" cy="10" r="1" fill="rgba(73.0068%,73.8857%,74.6777%,1)"/>
  <circle cx="2" cy="10" r="1" fill="rgba(74.728%,76.2417%,77.6486%,1)"/>
  <circle cx="3" cy="10" r="1" fill="rgba(74.7005%,75.6435%,76.4797%,1)"/>
  <circle cx="4" cy="10" r="1" fill="rgba(84.9775%,84.9912%,84.9973%,1)"/>
  <circle cx="5" cy="10" r="1" fill="rgba(87.953%,87.9515%,87.95%,1)"/>
  <circle cx="6" cy="10" r="1" fill="rgba(86.4057%,86.3859%,86.3752%,1)"/>
  <circle cx="7" cy="10" r="1" fill="rgba(77.3526%,78.0621%,78.6755%,1)"/>
  <circle cx="8" cy="10" r="1" fill="rgba(75.3719%,76.8399%,78.0301%,1)"/>
  <circle cx="9" cy="10" r="1" fill="rgba(82.9297%,83.8361%,84.6082%,1)"/>
  <circle cx="10" cy="10" r="1" fill="rgba(81.6831%,82.8%,83.679%,1)"/>
  <circle cx="11" cy="10" r="1" fill="rgba(83.7705%,84.7211%,85.4429%,1)"/>
  <circle cx="12" cy="10" r="1" fill="rgba(83.1479%,84.0589%,84.8371%,1)"/>
  <circle cx="13" cy="10" r="1" fill="rgba(75.4818%,76.939%,78.1201%,1)"/>
  <circle cx="14" cy="10" r="1" fill="rgba(77.3587%,78.1003%,78.7045%,1)"/>
  <circle cx="15" cy="10" r="1" fill="rgba(86.4927%,86.4744%,86.4637%,1)"/>
  <circle cx="16" cy="10" r="1" fill="rgba(88.0262%,88.0247%,88.0232%,1)"/>
  <circle cx="17" cy="10" r="1" fill="rgba(85.005%,85.0217%,85.0324%,1)"/>
  <circle cx="18" cy="10" r="1" fill="rgba(74.4381%,75.3735%,76.2341%,1)"/>
  <circle cx="19" cy="10" r="1" fill="rgba(74.3954%,75.9045%,77.3159%,1)"/>
  <circle cx="20" cy="10" r="1" fill="rgba(72.8786%,73.7438%,74.5373%,1)"/>
  <circle cx="21" cy="10" r="1" fill="rgba(90.0282%,90.0191%,90.0099%,1)"/>
  <circle cx="0" cy="11" r="1" fill="rgba(89.8085%,89.7993%,89.7917%,1)"/>
  <circle cx="1" cy="11" r="1" fill="rgba(72.0104%,72.9335%,73.6706%,1)"/>
  <circle cx="2" cy="11" r="1" fill="rgba(73.8033%,75.433%,76.7514%,1)"/>
  <circle cx="3" cy="11" r="1" fill="rgba(73.2845%,74.2443%,75.0271%,1)"/>
  <circle cx="4" cy="11" r="1" fill="rgba(81.1154%,81.12%,81.12%,1)"/>
  <circle cx="5" cy="11" r="1" fill="rgba(82.356%,82.356%,82.3545%,1)"/>
  <circle cx="6" cy="11" r="1" fill="rgba(82.5803%,82.5681%,82.562%,1)"/>
  <circle cx="7" cy="11" r="1" fill="rgba(75.729%,76.5621%,77.1786%,1)"/>
  <circle cx="8" cy="11" r="1" fill="rgba(74.2397%,75.7168%,76.8078%,1)"/>
  <circle cx="9" cy="11" r="1" fill="rgba(87.3396%,87.9316%,88.3299%,1)"/>
  <circle cx="10" cy="11" r="1" fill="rgba(82.8183%,83.856%,84.535%,1)"/>
  <circle cx="11" cy="11" r="1" fill="rgba(84.4038%,85.3376%,85.9297%,1)"/>
  <circle cx="12" cy="11" r="1" fill="rgba(85.0172%,85.8305%,86.3767%,1)"/>
  <circle cx="13" cy="11" r="1" fill="rgba(74.3969%,75.8648%,76.9497%,1)"/>
  <circle cx="14" cy="11" r="1" fill="rgba(75.7%,76.5942%,77.2396%,1)"/>
  <circle cx="15" cy="11" r="1" fill="rgba(82.7054%,82.6963%,82.6947%,1)"/>
  <circle cx="16" cy="11" r="1" fill="rgba(82.5559%,82.5559%,82.5544%,1)"/>
  <circle cx="17" cy="11" r="1" fill="rgba(81.2345%,81.239%,81.2406%,1)"/>
  <circle cx="18" cy="11" r="1" fill="rgba(73.0205%,74.0002%,74.7753%,1)"/>
  <circle cx="19" cy="11" r="1" fill="rgba(73.4707%,75.0973%,76.3806%,1)"/>
  <circle cx="20" cy="11" r="1" fill="rgba(71.8776%,72.8084%,73.5775%,1)"/>
  <circle cx="21" cy="11" r="1" fill="rgba(89.8146%,89.8054%,89.7978%,1)"/>
  <circle cx="0" cy="12" r="1" fill="rgba(89.4575%,89.4453%,89.4362%,1)"/>
  <circle cx="1" cy="12" r="1" fill="rgba(70.9895%,71.9066%,72.7184%,1)"/>
  <circle cx="2" cy="12" r="1" fill="rgba(72.874%,74.519%,75.9991%,1)"/>
  <circle cx="3" cy="12" r="1" fill="rgba(72.0882%,73.135%,74.1558%,1)"/>
  <circle cx="4" cy="12" r="1" fill="rgba(85.7862%,85.8198%,85.861%,1)"/>
  <circle cx="5" cy="12" r="1" fill="rgba(92.9671%,92.9641%,92.961%,1)"/>
  <circle cx="6" cy="12" r="1" fill="rgba(91.3756%,91.3573%,91.342%,1)"/>
  <circle cx="7" cy="12" r="1" fill="rgba(79.4903%,80.0412%,80.4578%,1)"/>
  <circle cx="8" cy="12" r="1" fill="rgba(71.1086%,72.5536%,73.6873%,1)"/>
  <circle cx="9" cy="12" r="1" fill="rgba(74.7692%,76.1685%,77.2%,1)"/>
  <circle cx="10" cy="12" r="1" fill="rgba(74.5983%,76.0693%,77.1923%,1)"/>
  <circle cx="11" cy="12" r="1" fill="rgba(76.141%,77.4746%,78.5046%,1)"/>
  <circle cx="12" cy="12" r="1" fill="rgba(75.5505%,76.8933%,77.8836%,1)"/>
  <circle cx="13" cy="12" r="1" fill="rgba(71.1894%,72.6238%,73.7423%,1)"/>
  <circle cx="14" cy="12" r="1" fill="rgba(79.6063%,80.1465%,80.531%,1)"/>
  <circle cx="15" cy="12" r="1" fill="rgba(91.4351%,91.4168%,91.4031%,1)"/>
  <circle cx="16" cy="12" r="1" fill="rgba(92.9824%,92.9793%,92.9763%,1)"/>
  <circle cx="17" cy="12" r="1" fill="rgba(85.745%,85.7786%,85.8259%,1)"/>
  <circle cx="18" cy="12" r="1" fill="rgba(71.8273%,72.9244%,73.9223%,1)"/>
  <circle cx="19" cy="12" r="1" fill="rgba(72.5551%,74.2275%,75.6481%,1)"/>
  <circle cx="20" cy="12" r="1" fill="rgba(70.8019%,71.7632%,72.6268%,1)"/>
  <circle cx="21" cy="12" r="1" fill="rgba(89.4591%,89.4499%,89.4423%,1)"/>
  <circle cx="0" cy="13" r="1" fill="rgba(89.1768%,89.1676%,89.1569%,1)"/>
  <circle cx="1" cy="13" r="1" fill="rgba(69.9184%,70.927%,71.8227%,1)"/>
  <circle cx="2" cy="13" r="1" fill="rgba(72.0089%,73.695%,75.3079%,1)"/>
  <circle cx="3" cy="13" r="1" fill="rgba(70.6569%,72.0195%,73.3043%,1)"/>
  <circle cx="4" cy="13" r="1" fill="rgba(80.6943%,80.914%,81.091%,1)"/>
  <circle cx="5" cy="13" r="1" fill="rgba(92.4269%,92.4132%,92.4025%,1)"/>
  <circle cx="6" cy="13" r="1" fill="rgba(92.845%,92.8389%,92.8328%,1)"/>
  <circle cx="7" cy="13" r="1" fill="rgba(87.9316%,88.0156%,88.101%,1)"/>
  <circle cx="8" cy="13" r="1" fill="rgba(73.5134%,74.4854%,75.1919%,1)"/>
  <circle cx="9" cy="13" r="1" fill="rgba(69.7032%,71.3512%,72.3857%,1)"/>
  <circle cx="10" cy="13" r="1" fill="rgba(70.7347%,72.3674%,73.489%,1)"/>
  <circle cx="11" cy="13" r="1" fill="rgba(70.6462%,72.2866%,73.4127%,1)"/>
  <circle cx="12" cy="13" r="1" fill="rgba(69.6376%,71.2932%,72.3369%,1)"/>
  <circle cx="13" cy="13" r="1" fill="rgba(73.5103%,74.5037%,75.2102%,1)"/>
  <circle cx="14" cy="13" r="1" fill="rgba(88.014%,88.0949%,88.1682%,1)"/>
  <circle cx="15" cy="13" r="1" fill="rgba(92.8603%,92.8542%,92.8496%,1)"/>
  <circle cx="16" cy="13" r="1" fill="rgba(92.4041%,92.3903%,92.3781%,1)"/>
  <circle cx="17" cy="13" r="1" fill="rgba(80.5768%,80.7858%,80.9644%,1)"/>
  <circle cx="18" cy="13" r="1" fill="rgba(70.277%,71.664%,72.9824%,1)"/>
  <circle cx="19" cy="13" r="1" fill="rgba(71.7098%,73.4356%,75.0454%,1)"/>
  <circle cx="20" cy="13" r="1" fill="rgba(69.723%,70.7347%,71.6854%,1)"/>
  <circle cx="21" cy="13" r="1" fill="rgba(89.1752%,89.1676%,89.16%,1)"/>
  <circle cx="0" cy="14" r="1" fill="rgba(88.8518%,88.8441%,88.8365%,1)"/>
  <circle cx="1" cy="14" r="1" fill="rgba(68.7648%,69.8344%,70.7851%,1)"/>
  <circle cx="2" cy="14" r="1" fill="rgba(71.0094%,72.7886%,74.3816%,1)"/>
  <circle cx="3" cy="14" r="1" fill="rgba(70.6752%,72.343%,73.7972%,1)"/>
  <circle cx="4" cy="14" r="1" fill="rgba(72.9564%,73.6522%,74.197%,1)"/>
  <circle cx="5" cy="14" r="1" fill="rgba(88.2048%,88.1865%,88.1682%,1)"/>
  <circle cx="6" cy="14" r="1" fill="rgba(93.2967%,93.2967%,93.2967%,1)"/>
  <circle cx="7" cy="14" r="1" fill="rgba(92.4681%,92.459%,92.4514%,1)"/>
  <circle cx="8" cy="14" r="1" fill="rgba(87.7836%,87.9271%,87.985%,1)"/>
  <circle cx="9" cy="14" r="1" fill="rgba(77.1618%,77.9004%,78.3688%,1)"/>
  <circle cx="10" cy="14" r="1" fill="rgba(71.6152%,72.7016%,73.5058%,1)"/>
  <circle cx="11" cy="14" r="1" fill="rgba(71.6503%,72.7428%,73.5546%,1)"/>
  <circle cx="12" cy="14" r="1" fill="rgba(77.1176%,77.8393%,78.3383%,1)"/>
  <circle cx="13" cy="14" r="1" fill="rgba(87.7211%,87.866%,87.9469%,1)"/>
  <circle cx="14" cy="14" r="1" fill="rgba(92.3949%,92.3857%,92.3766%,1)"/>
  <circle cx="15" cy="14" r="1" fill="rgba(93.2937%,93.2937%,93.2937%,1)"/>
  <circle cx="16" cy="14" r="1" fill="rgba(88.1834%,88.1651%,88.1514%,1)"/>
  <circle cx="17" cy="14" r="1" fill="rgba(72.7886%,73.4981%,74.0917%,1)"/>
  <circle cx="18" cy="14" r="1" fill="rgba(70.2632%,71.9738%,73.4722%,1)"/>
  <circle cx="19" cy="14" r="1" fill="rgba(70.6859%,72.4788%,74.0841%,1)"/>
  <circle cx="20" cy="14" r="1" fill="rgba(68.603%,69.6727%,70.6264%,1)"/>
  <circle cx="21" cy="14" r="1" fill="rgba(88.8579%,88.8502%,88.8426%,1)"/>
  <circle cx="0" cy="15" r="1" fill="rgba(88.6595%,88.6519%,88.6442%,1)"/>
  <circle cx="1" cy="15" r="1" fill="rgba(67.892%,68.9372%,69.9748%,1)"/>
  <circle cx="2" cy="15" r="1" fill="rgba(69.9641%,71.6655%,73.3989%,1)"/>
  <circle cx="3" cy="15" r="1" fill="rgba(70.5165%,72.2072%,73.8521%,1)"/>
  <circle cx="4" cy="15" r="1" fill="rgba(69.1447%,70.4921%,71.8059%,1)"/>
  <circle cx="5" cy="15" r="1" fill="rgba(77.1466%,77.3816%,77.6562%,1)"/>
  <circle cx="6" cy="15" r="1" fill="rgba(90.2266%,90.2068%,90.1869%,1)"/>
  <circle cx="7" cy="15" r="1" fill="rgba(93.3623%,93.3623%,93.3623%,1)"/>
  <circle cx="8" cy="15" r="1" fill="rgba(92.9976%,92.9885%,92.9839%,1)"/>
  <circle cx="9" cy="15" r="1" fill="rgba(91.9783%,91.9677%,91.9631%,1)"/>
  <circle cx="10" cy="15" r="1" fill="rgba(89.9031%,89.9413%,89.9809%,1)"/>
  <circle cx="11" cy="15" r="1" fill="rgba(89.9306%,89.9672%,90.016%,1)"/>
  <circle cx="12" cy="15" r="1" fill="rgba(91.9615%,91.9463%,91.9432%,1)"/>
  <circle cx="13" cy="15" r="1" fill="rgba(92.9335%,92.9259%,92.9198%,1)"/>
  <circle cx="14" cy="15" r="1" fill="rgba(93.3455%,93.3455%,93.3455%,1)"/>
  <circle cx="15" cy="15" r="1" fill="rgba(90.219%,90.1991%,90.1808%,1)"/>
  <circle cx="16" cy="15" r="1" fill="rgba(77.0779%,77.3465%,77.5784%,1)"/>
  <circle cx="17" cy="15" r="1" fill="rgba(68.9113%,70.2617%,71.5969%,1)"/>
  <circle cx="18" cy="15" r="1" fill="rgba(70.1518%,71.8349%,73.5286%,1)"/>
  <circle cx="19" cy="15" r="1" fill="rgba(69.6498%,71.3924%,73.1365%,1)"/>
  <circle cx="20" cy="15" r="1" fill="rgba(67.7485%,68.7953%,69.8329%,1)"/>
  <circle cx="21" cy="15" r="1" fill="rgba(88.6687%,88.6595%,88.6519%,1)"/>
  <circle cx="0" cy="16" r="1" fill="rgba(88.513%,88.5039%,88.4962%,1)"/>
  <circle cx="1" cy="16" r="1" fill="rgba(67.0771%,68.1468%,69.221%,1)"/>
  <circle cx="2" cy="16" r="1" fill="rgba(68.8808%,70.6294%,72.4208%,1)"/>
  <circle cx="3" cy="16" r="1" fill="rgba(69.3751%,71.0582%,72.7932%,1)"/>
  <circle cx="4" cy="16" r="1" fill="rgba(69.5949%,71.3146%,73.0159%,1)"/>
  <circle cx="5" cy="16" r="1" fill="rgba(68.3299%,69.4469%,70.573%,1)"/>
  <circle cx="6" cy="16" r="1" fill="rgba(76.5896%,76.7773%,76.9818%,1)"/>
  <circle cx="7" cy="16" r="1" fill="rgba(88.1926%,88.1682%,88.1514%,1)"/>
  <circle cx="8" cy="16" r="1" fill="rgba(92.723%,92.7153%,92.7092%,1)"/>
  <circle cx="9" cy="16" r="1" fill="rgba(92.7276%,92.726%,92.726%,1)"/>
  <circle cx="10" cy="16" r="1" fill="rgba(86.4225%,86.4195%,86.4179%,1)"/>
  <circle cx="11" cy="16" r="1" fill="rgba(86.4378%,86.4347%,86.4317%,1)"/>
  <circle cx="12" cy="16" r="1" fill="rgba(92.7321%,92.7306%,92.7306%,1)"/>
  <circle cx="13" cy="16" r="1" fill="rgba(92.6986%,92.6909%,92.6833%,1)"/>
  <circle cx="14" cy="16" r="1" fill="rgba(88.1727%,88.1498%,88.13%,1)"/>
  <circle cx="15" cy="16" r="1" fill="rgba(76.5728%,76.7544%,76.9574%,1)"/>
  <circle cx="16" cy="16" r="1" fill="rgba(68.2246%,69.366%,70.4799%,1)"/>
  <circle cx="17" cy="16" r="1" fill="rgba(69.3538%,71.0399%,72.7703%,1)"/>
  <circle cx="18" cy="16" r="1" fill="rgba(69.0425%,70.7393%,72.488%,1)"/>
  <circle cx="19" cy="16" r="1" fill="rgba(68.5954%,70.3853%,72.1874%,1)"/>
  <circle cx="20" cy="16" r="1" fill="rgba(66.9978%,68.0659%,69.1386%,1)"/>
  <circle cx="21" cy="16" r="1" fill="rgba(88.5176%,88.51%,88.5008%,1)"/>
  <circle cx="0" cy="17" r="1" fill="rgba(88.1819%,88.1727%,88.1636%,1)"/>
  <circle cx="1" cy="17" r="1" fill="rgba(66.1326%,67.2557%,68.3116%,1)"/>
  <circle cx="2" cy="17" r="1" fill="rgba(67.7226%,69.6086%,71.4015%,1)"/>
  <circle cx="3" cy="17" r="1" fill="rgba(68.1147%,69.9489%,71.6426%,1)"/>
  <circle cx="4" cy="17" r="1" fill="rgba(68.5039%,70.2693%,71.9966%,1)"/>
  <circle cx="5" cy="17" r="1" fill="rgba(68.6046%,70.3105%,72.0211%,1)"/>
  <circle cx="6" cy="17" r="1" fill="rgba(67.071%,68.3345%,69.6391%,1)"/>
  <circle cx="7" cy="17" r="1" fill="rgba(70.5943%,71.1498%,71.6518%,1)"/>
  <circle cx="8" cy="17" r="1" fill="rgba(79.5331%,79.6338%,79.7147%,1)"/>
  <circle cx="9" cy="17" r="1" fill="rgba(85.5253%,85.5192%,85.5146%,1)"/>
  <circle cx="10" cy="17" r="1" fill="rgba(86.0426%,86.0197%,85.9937%,1)"/>
  <circle cx="11" cy="17" r="1" fill="rgba(86.0243%,86.0014%,85.977%,1)"/>
  <circle cx="12" cy="17" r="1" fill="rgba(85.4505%,85.4444%,85.4398%,1)"/>
  <circle cx="13" cy="17" r="1" fill="rgba(79.4781%,79.588%,79.6841%,1)"/>
  <circle cx="14" cy="17" r="1" fill="rgba(70.5959%,71.1299%,71.6579%,1)"/>
  <circle cx="15" cy="17" r="1" fill="rgba(67.0817%,68.3772%,69.6681%,1)"/>
  <circle cx="16" cy="17" r="1" fill="rgba(68.4428%,70.1778%,71.9005%,1)"/>
  <circle cx="17" cy="17" r="1" fill="rgba(68.2628%,70.0771%,71.7723%,1)"/>
  <circle cx="18" cy="17" r="1" fill="rgba(67.8462%,69.6986%,71.4412%,1)"/>
  <circle cx="19" cy="17" r="1" fill="rgba(67.5242%,69.4102%,71.2108%,1)"/>
  <circle cx="20" cy="17" r="1" fill="rgba(66.1219%,67.245%,68.3009%,1)"/>
  <circle cx="21" cy="17" r="1" fill="rgba(88.1819%,88.1743%,88.1651%,1)"/>
  <circle cx="0" cy="18" r="1" fill="rgba(87.9606%,87.953%,87.9408%,1)"/>
  <circle cx="1" cy="18" r="1" fill="rgba(65.4108%,66.5263%,67.6493%,1)"/>
  <circle cx="2" cy="18" r="1" fill="rgba(66.5568%,68.4184%,70.3639%,1)"/>
  <circle cx="3" cy="18" r="1" fill="rgba(66.7872%,68.6168%,70.5119%,1)"/>
  <circle cx="4" cy="18" r="1" fill="rgba(67.0176%,68.8396%,70.6859%,1)"/>
  <circle cx="5" cy="18" r="1" fill="rgba(67.1901%,68.9876%,70.8415%,1)"/>
  <circle cx="6" cy="18" r="1" fill="rgba(67.3533%,69.1432%,70.9895%,1)"/>
  <circle cx="7" cy="18" r="1" fill="rgba(66.537%,68.1941%,69.8695%,1)"/>
  <circle cx="8" cy="18" r="1" fill="rgba(65.8869%,67.1427%,68.4001%,1)"/>
  <circle cx="9" cy="18" r="1" fill="rgba(67.1031%,67.9698%,68.8884%,1)"/>
  <circle cx="10" cy="18" r="1" fill="rgba(68.3543%,69.0364%,69.691%,1)"/>
  <circle cx="11" cy="18" r="1" fill="rgba(68.3742%,69.0578%,69.6895%,1)"/>
  <circle cx="12" cy="18" r="1" fill="rgba(67.0817%,67.9744%,68.8792%,1)"/>
  <circle cx="13" cy="18" r="1" fill="rgba(65.8762%,67.1519%,68.4382%,1)"/>
  <circle cx="14" cy="18" r="1" fill="rgba(66.5614%,68.2033%,69.8833%,1)"/>
  <circle cx="15" cy="18" r="1" fill="rgba(67.3136%,69.1096%,70.9667%,1)"/>
  <circle cx="16" cy="18" r="1" fill="rgba(67.0848%,68.9021%,70.7485%,1)"/>
  <circle cx="17" cy="18" r="1" fill="rgba(66.8635%,68.6931%,70.5715%,1)"/>
  <circle cx="18" cy="18" r="1" fill="rgba(66.6148%,68.4428%,70.3548%,1)"/>
  <circle cx="19" cy="18" r="1" fill="rgba(66.5034%,68.3665%,70.3105%,1)"/>
  <circle cx="20" cy="18" r="1" fill="rgba(65.4108%,66.5248%,67.6524%,1)"/>
  <circle cx="21" cy="18" r="1" fill="rgba(87.9606%,87.9515%,87.9408%,1)"/>
  <circle cx="0" cy="19" r="1" fill="rgba(88.2704%,88.2521%,88.2338%,1)"/>
  <circle cx="1" cy="19" r="1" fill="rgba(62.8244%,63.8514%,64.8798%,1)"/>
  <circle cx="2" cy="19" r="1" fill="rgba(65.4536%,67.4128%,69.4163%,1)"/>
  <circle cx="3" cy="19" r="1" fill="rgba(65.9968%,67.9423%,69.9351%,1)"/>
  <circle cx="4" cy="19" r="1" fill="rgba(66.128%,68.0751%,70.0679%,1)"/>
  <circle cx="5" cy="19" r="1" fill="rgba(66.2547%,68.2002%,70.1808%,1)"/>
  <circle cx="6" cy="19" r="1" fill="rgba(66.3508%,68.2918%,70.2586%,1)"/>
  <circle cx="7" cy="19" r="1" fill="rgba(66.4439%,68.3925%,70.3685%,1)"/>
  <circle cx="8" cy="19" r="1" fill="rgba(66.6041%,68.5618%,70.5364%,1)"/>
  <circle cx="9" cy="19" r="1" fill="rgba(66.5705%,68.484%,70.4341%,1)"/>
  <circle cx="10" cy="19" r="1" fill="rgba(66.3508%,68.2414%,70.1442%,1)"/>
  <circle cx="11" cy="19" r="1" fill="rgba(66.3554%,68.249%,70.1457%,1)"/>
  <circle cx="12" cy="19" r="1" fill="rgba(66.5675%,68.4916%,70.4356%,1)"/>
  <circle cx="13" cy="19" r="1" fill="rgba(66.6026%,68.5618%,70.5364%,1)"/>
  <circle cx="14" cy="19" r="1" fill="rgba(66.4439%,68.394%,70.3685%,1)"/>
  <circle cx="15" cy="19" r="1" fill="rgba(66.3142%,68.2551%,70.2281%,1)"/>
  <circle cx="16" cy="19" r="1" fill="rgba(66.2013%,68.1437%,70.132%,1)"/>
  <circle cx="17" cy="19" r="1" fill="rgba(66.0487%,67.9957%,69.9886%,1)"/>
  <circle cx="18" cy="19" r="1" fill="rgba(65.9739%,67.9194%,69.9107%,1)"/>
  <circle cx="19" cy="19" r="1" fill="rgba(65.4505%,67.4098%,69.4133%,1)"/>
  <circle cx="20" cy="19" r="1" fill="rgba(62.7955%,63.8178%,64.8615%,1)"/>
  <circle cx="21" cy="19" r="1" fill="rgba(88.2963%,88.278%,88.2612%,1)"/>
  <circle cx="0" cy="20" r="1" fill="rgba(95.0698%,95.0561%,95.0423%,1)"/>
  <circle cx="1" cy="20" r="1" fill="rgba(67.4983%,67.7729%,68.0415%,1)"/>
  <circle cx="2" cy="20" r="1" fill="rgba(55.8587%,56.8795%,57.9034%,1)"/>
  <circle cx="3" cy="20" r="1" fill="rgba(56.7239%,57.8607%,59.0143%,1)"/>
  <circle cx="4" cy="20" r="1" fill="rgba(56.9635%,58.1018%,59.2416%,1)"/>
  <circle cx="5" cy="20" r="1" fill="rgba(57.2122%,58.3276%,59.4415%,1)"/>
  <circle cx="6" cy="20" r="1" fill="rgba(57.464%,58.5534%,59.6414%,1)"/>
  <circle cx="7" cy="20" r="1" fill="rgba(57.6852%,58.7793%,59.8627%,1)"/>
  <circle cx="8" cy="20" r="1" fill="rgba(57.9294%,59.0265%,60.0931%,1)"/>
  <circle cx="9" cy="20" r="1" fill="rgba(58.1918%,59.2462%,60.2884%,1)"/>
  <circle cx="10" cy="20" r="1" fill="rgba(58.4039%,59.4476%,60.4898%,1)"/>
  <circle cx="11" cy="20" r="1" fill="rgba(58.4039%,59.4476%,60.4898%,1)"/>
  <circle cx="12" cy="20" r="1" fill="rgba(58.1933%,59.2462%,60.2869%,1)"/>
  <circle cx="13" cy="20" r="1" fill="rgba(57.9294%,59.0265%,60.0931%,1)"/>
  <circle cx="14" cy="20" r="1" fill="rgba(57.6852%,58.7808%,59.8627%,1)"/>
  <circle cx="15" cy="20" r="1" fill="rgba(57.4609%,58.5504%,59.6368%,1)"/>
  <circle cx="16" cy="20" r="1" fill="rgba(57.2091%,58.3246%,59.4385%,1)"/>
  <circle cx="17" cy="20" r="1" fill="rgba(56.9665%,58.1064%,59.2447%,1)"/>
  <circle cx="18" cy="20" r="1" fill="rgba(56.7254%,57.8637%,59.0158%,1)"/>
  <circle cx="19" cy="20" r="1" fill="rgba(55.8587%,56.875%,57.8988%,1)"/>
  <circle cx="20" cy="20" r="1" fill="rgba(67.5608%,67.8218%,68.0919%,1)"/>
  <circle cx="21" cy="20" r="1" fill="rgba(95.0958%,95.082%,95.0683%,1)"/>
  <circle cx="0" cy="21" r="1" fill="rgba(99.9374%,99.9374%,99.939%,1)"/>
  <circle cx="1" cy="21" r="1" fill="rgba(92.6589%,92.6452%,92.6314%,1)"/>
  <circle cx="2" cy="21" r="1" fill="rgba(79.0234%,79.0051%,78.9883%,1)"/>
  <circle cx="3" cy="21" r="1" fill="rgba(76.405%,76.3943%,76.3851%,1)"/>
  <circle cx="4" cy="21" r="1" fill="rgba(76.5286%,76.5179%,76.5072%,1)"/>
  <circle cx="5" cy="21" r="1" fill="rgba(76.5362%,76.524%,76.5133%,1)"/>
  <circle cx="6" cy="21" r="1" fill="rgba(76.5423%,76.5301%,76.5194%,1)"/>
  <circle cx="7" cy="21" r="1" fill="rgba(76.5484%,76.5377%,76.5255%,1)"/>
  <circle cx="8" cy="21" r="1" fill="rgba(76.5576%,76.5454%,76.5316%,1)"/>
  <circle cx="9" cy="21" r="1" fill="rgba(76.5637%,76.5515%,76.5377%,1)"/>
  <circle cx="10" cy="21" r="1" fill="rgba(76.5713%,76.5591%,76.5454%,1)"/>
  <circle cx="11" cy="21" r="1" fill="rgba(76.5713%,76.5591%,76.5454%,1)"/>
  <circle cx="12" cy="21" r="1" fill="rgba(76.5637%,76.5515%,76.5377%,1)"/>
  <circle cx="13" cy="21" r="1" fill="rgba(76.5576%,76.5454%,76.5316%,1)"/>
  <circle cx="14" cy="21" r="1" fill="rgba(76.5484%,76.5377%,76.5255%,1)"/>
  <circle cx="15" cy="21" r="1" fill="rgba(76.5423%,76.5301%,76.5194%,1)"/>
  <circle cx="16" cy="21" r="1" fill="rgba(76.5362%,76.5255%,76.5133%,1)"/>
  <circle cx="17" cy="21" r="1" fill="rgba(76.5286%,76.5179%,76.5072%,1)"/>
  <circle cx="18" cy="21" r="1" fill="rgba(76.4034%,76.3928%,76.3851%,1)"/>
  <circle cx="19" cy="21" r="1" fill="rgba(79.0555%,79.0372%,79.0204%,1)"/>
  <circle cx="20" cy="21" r="1" fill="rgba(92.7092%,92.697%,92.6833%,1)"/>
  <circle cx="21" cy="21" r="1" fill="rgba(99.9435%,99.9435%,99.9451%,1)"/>
</svg>
