<?xml version="1.0" standalone="no"?>
<!DOCTYPE svg PUBLIC "-//W3C//DTD SVG 20010904//EN"
  "http://www.w3.org/TR/2001/REC-SVG-20010904/DTD/svg10.dtd">
<svg width="24" height="24">
  <circle cx="0" cy="0" r="1" fill="white"/>
  <circle cx="1" cy="0" r="1" fill="white"/>
  <circle cx="2" cy="0" r="1" fill="white"/>
  <circle cx="3" cy="0" r="1" fill="white"/>
  <circle cx="4" cy="0" r="1" fill="white"/>
  <circle cx="5" cy="0" r="1" fill="white"/>
  <circle cx="6" cy="0" r="1" fill="white"/>
  <circle cx="7" cy="0" r="1" fill="white"/>
  <circle cx="8" cy="0" r="1" fill="white"/>
  <circle cx="9" cy="0" r="1" fill="white"/>
  <circle cx="10" cy="0" r="1" fill="white"/>
  <circle cx="11" cy="0" r="1" fill="white"/>
  <circle cx="12" cy="0" r="1" fill="white"/>
  <circle cx="13" cy="0" r="1" fill="white"/>
  <circle cx="14" cy="0" r="1" fill="rgba(97.4533%,97.4533%,97.4533%,1)"/>
  <circle cx="15" cy="0" r="1" fill="rgba(86.92%,86.92%,86.92%,1)"/>
  <circle cx="16" cy="0" r="1" fill="rgba(76.6995%,76.6995%,76.6995%,1)"/>
  <circle cx="17" cy="0" r="1" fill="rgba(76.8139%,76.8139%,76.8139%,1)"/>
  <circle cx="18" cy="0" r="1" fill="rgba(95.256%,95.256%,95.256%,1)"/>
  <circle cx="19" cy="0" r="1" fill="white"/>
  <circle cx="20" cy="0" r="1" fill="white"/>
  <circle cx="21" cy="0" r="1" fill="white"/>
  <circle cx="22" cy="0" r="1" fill="white"/>
  <circle cx="23" cy="0" r="1" fill="white"/>
  <circle cx="0" cy="1" r="1" fill="white"/>
  <circle cx="1" cy="1" r="1" fill="white"/>
  <circle cx="2" cy="1" r="1" fill="white"/>
  <circle cx="3" cy="1" r="1" fill="white"/>
  <circle cx="4" cy="1" r="1" fill="white"/>
  <circle cx="5" cy="1" r="1" fill="white"/>
  <circle cx="6" cy="1" r="1" fill="white"/>
  <circle cx="7" cy="1" r="1" fill="white"/>
  <circle cx="8" cy="1" r="1" fill="white"/>
  <circle cx="9" cy="1" r="1" fill="white"/>
  <circle cx="10" cy="1" r="1" fill="white"/>
  <circle cx="11" cy="1" r="1" fill="white"/>
  <circle cx="12" cy="1" r="1" fill="white"/>
  <circle cx="13" cy="1" r="1" fill="white"/>
  <circle cx="14" cy="1" r="1" fill="rgba(94.3816%,94.3816%,94.3816%,1)"/>
  <circle cx="15" cy="1" r="1" fill="rgba(72.9213%,72.9213%,72.9213%,1)"/>
  <circle cx="16" cy="1" r="1" fill="rgba(65.2995%,65.2995%,65.2995%,1)"/>
  <circle cx="17" cy="1" r="1" fill="rgba(73.0205%,73.0205%,73.0205%,1)"/>
  <circle cx="18" cy="1" r="1" fill="rgba(94.5647%,94.5647%,94.5647%,1)"/>
  <circle cx="19" cy="1" r="1" fill="white"/>
  <circle cx="20" cy="1" r="1" fill="white"/>
  <circle cx="21" cy="1" r="1" fill="white"/>
  <circle cx="22" cy="1" r="1" fill="white"/>
  <circle cx="23" cy="1" r="1" fill="white"/>
  <circle cx="0" cy="2" r="1" fill="white"/>
  <circle cx="1" cy="2" r="1" fill="white"/>
  <circle cx="2" cy="2" r="1" fill="white"/>
  <circle cx="3" cy="2" r="1" fill="white"/>
  <circle cx="4" cy="2" r="1" fill="white"/>
  <circle cx="5" cy="2" r="1" fill="white"/>
  <circle cx="6" cy="2" r="1" fill="white"/>
  <circle cx="7" cy="2" r="1" fill="white"/>
  <circle cx="8" cy="2" r="1" fill="white"/>
  <circle cx="9" cy="2" r="1" fill="white"/>
  <circle cx="10" cy="2" r="1" fill="white"/>
  <circle cx="11" cy="2" r="1" fill="white"/>
  <circle cx="12" cy="2" r="1" fill="white"/>
  <circle cx="13" cy="2" r="1" fill="rgba(97.7508%,97.7508%,97.7508%,1)"/>
  <circle cx="14" cy="2" r="1" fill="rgba(85.4032%,85.4032%,85.4032%,1)"/>
  <circle cx="15" cy="2" r="1" fill="rgba(55.3384%,55.3384%,55.3384%,1)"/>
  <circle cx="16" cy="2" r="1" fill="rgba(51.0826%,51.0826%,51.0826%,1)"/>
  <circle cx="17" cy="2" r="1" fill="rgba(66.9459%,66.9459%,66.9459%,1)"/>
  <circle cx="18" cy="2" r="1" fill="rgba(93.4234%,93.4234%,93.4234%,1)"/>
  <circle cx="19" cy="2" r="1" fill="white"/>
  <circle cx="20" cy="2" r="1" fill="white"/>
  <circle cx="21" cy="2" r="1" fill="white"/>
  <circle cx="22" cy="2" r="1" fill="white"/>
  <circle cx="23" cy="2" r="1" fill="white"/>
  <circle cx="0" cy="3" r="1" fill="white"/>
  <circle cx="1" cy="3" r="1" fill="white"/>
  <circle cx="2" cy="3" r="1" fill="white"/>
  <circle cx="3" cy="3" r="1" fill="white"/>
  <circle cx="4" cy="3" r="1" fill="white"/>
  <circle cx="5" cy="3" r="1" fill="white"/>
  <circle cx="6" cy="3" r="1" fill="white"/>
  <circle cx="7" cy="3" r="1" fill="white"/>
  <circle cx="8" cy="3" r="1" fill="white"/>
  <circle cx="9" cy="3" r="1" fill="white"/>
  <circle cx="10" cy="3" r="1" fill="white"/>
  <circle cx="11" cy="3" r="1" fill="white"/>
  <circle cx="12" cy="3" r="1" fill="white"/>
  <circle cx="13" cy="3" r="1" fill="rgba(88.3528%,88.3528%,88.3528%,1)"/>
  <circle cx="14" cy="3" r="1" fill="rgba(68.9952%,68.9952%,68.9952%,1)"/>
  <circle cx="15" cy="3" r="1" fill="rgba(47.7363%,47.7363%,47.7363%,1)"/>
  <circle cx="16" cy="3" r="1" fill="rgba(45.1453%,45.1453%,45.1453%,1)"/>
  <circle cx="17" cy="3" r="1" fill="rgba(61.0605%,61.0605%,61.0605%,1)"/>
  <circle cx="18" cy="3" r="1" fill="rgba(92.2255%,92.2255%,92.2255%,1)"/>
  <circle cx="19" cy="3" r="1" fill="white"/>
  <circle cx="20" cy="3" r="1" fill="white"/>
  <circle cx="21" cy="3" r="1" fill="white"/>
  <circle cx="22" cy="3" r="1" fill="white"/>
  <circle cx="23" cy="3" r="1" fill="white"/>
  <circle cx="0" cy="4" r="1" fill="white"/>
  <circle cx="1" cy="4" r="1" fill="white"/>
  <circle cx="2" cy="4" r="1" fill="white"/>
  <circle cx="3" cy="4" r="1" fill="white"/>
  <circle cx="4" cy="4" r="1" fill="white"/>
  <circle cx="5" cy="4" r="1" fill="white"/>
  <circle cx="6" cy="4" r="1" fill="white"/>
  <circle cx="7" cy="4" r="1" fill="white"/>
  <circle cx="8" cy="4" r="1" fill="white"/>
  <circle cx="9" cy="4" r="1" fill="white"/>
  <circle cx="10" cy="4" r="1" fill="white"/>
  <circle cx="11" cy="4" r="1" fill="rgba(99.733%,99.733%,99.733%,1)"/>
  <circle cx="12" cy="4" r="1" fill="rgba(97.9156%,97.9156%,97.9156%,1)"/>
  <circle cx="13" cy="4" r="1" fill="rgba(77.3846%,77.3846%,77.3846%,1)"/>
  <circle cx="14" cy="4" r="1" fill="rgba(53.5729%,53.5729%,53.5729%,1)"/>
  <circle cx="15" cy="4" r="1" fill="rgba(43.0533%,43.0533%,43.0533%,1)"/>
  <circle cx="16" cy="4" r="1" fill="rgba(41.1719%,41.1719%,41.1719%,1)"/>
  <circle cx="17" cy="4" r="1" fill="rgba(55.3719%,55.3719%,55.3719%,1)"/>
  <circle cx="18" cy="4" r="1" fill="rgba(90.8232%,90.8232%,90.8232%,1)"/>
  <circle cx="19" cy="4" r="1" fill="white"/>
  <circle cx="20" cy="4" r="1" fill="white"/>
  <circle cx="21" cy="4" r="1" fill="white"/>
  <circle cx="22" cy="4" r="1" fill="white"/>
  <circle cx="23" cy="4" r="1" fill="white"/>
  <circle cx="0" cy="5" r="1" fill="white"/>
  <circle cx="1" cy="5" r="1" fill="white"/>
  <circle cx="2" cy="5" r="1" fill="white"/>
  <circle cx="3" cy="5" r="1" fill="white"/>
  <circle cx="4" cy="5" r="1" fill="white"/>
  <circle cx="5" cy="5" r="1" fill="white"/>
  <circle cx="6" cy="5" r="1" fill="white"/>
  <circle cx="7" cy="5" r="1" fill="white"/>
  <circle cx="8" cy="5" r="1" fill="white"/>
  <circle cx="9" cy="5" r="1" fill="white"/>
  <circle cx="10" cy="5" r="1" fill="white"/>
  <circle cx="11" cy="5" r="1" fill="rgba(98.0377%,98.0377%,98.0377%,1)"/>
  <circle cx="12" cy="5" r="1" fill="rgba(88.6915%,88.6915%,88.6915%,1)"/>
  <circle cx="13" cy="5" r="1" fill="rgba(70.0847%,70.0847%,70.0847%,1)"/>
  <circle cx="14" cy="5" r="1" fill="rgba(51.4977%,51.4977%,51.4977%,1)"/>
  <circle cx="15" cy="5" r="1" fill="rgba(42.2293%,42.2293%,42.2293%,1)"/>
  <circle cx="16" cy="5" r="1" fill="rgba(38.3734%,38.3734%,38.3734%,1)"/>
  <circle cx="17" cy="5" r="1" fill="rgba(50.8171%,50.8171%,50.8171%,1)"/>
  <circle cx="18" cy="5" r="1" fill="rgba(87.9957%,87.9957%,87.9957%,1)"/>
  <circle cx="19" cy="5" r="1" fill="rgba(99.4812%,99.4812%,99.4812%,1)"/>
  <circle cx="20" cy="5" r="1" fill="white"/>
  <circle cx="21" cy="5" r="1" fill="white"/>
  <circle cx="22" cy="5" r="1" fill="white"/>
  <circle cx="23" cy="5" r="1" fill="white"/>
  <circle cx="0" cy="6" r="1" fill="white"/>
  <circle cx="1" cy="6" r="1" fill="white"/>
  <circle cx="2" cy="6" r="1" fill="white"/>
  <circle cx="3" cy="6" r="1" fill="white"/>
  <circle cx="4" cy="6" r="1" fill="white"/>
  <circle cx="5" cy="6" r="1" fill="white"/>
  <circle cx="6" cy="6" r="1" fill="white"/>
  <circle cx="7" cy="6" r="1" fill="white"/>
  <circle cx="8" cy="6" r="1" fill="white"/>
  <circle cx="9" cy="6" r="1" fill="white"/>
  <circle cx="10" cy="6" r="1" fill="white"/>
  <circle cx="11" cy="6" r="1" fill="rgba(93.7209%,93.7209%,93.7209%,1)"/>
  <circle cx="12" cy="6" r="1" fill="rgba(68.8487%,68.8487%,68.8487%,1)"/>
  <circle cx="13" cy="6" r="1" fill="rgba(71.223%,71.223%,71.223%,1)"/>
  <circle cx="14" cy="6" r="1" fill="grey73"/>
  <circle cx="15" cy="6" r="1" fill="rgba(46.2364%,46.2364%,46.2364%,1)"/>
  <circle cx="16" cy="6" r="1" fill="rgba(36.2982%,36.2982%,36.2982%,1)"/>
  <circle cx="17" cy="6" r="1" fill="rgba(48.2307%,48.2307%,48.2307%,1)"/>
  <circle cx="18" cy="6" r="1" fill="rgba(82.6413%,82.6413%,82.6413%,1)"/>
  <circle cx="19" cy="6" r="1" fill="rgba(248,248,248,1)"/>
  <circle cx="20" cy="6" r="1" fill="white"/>
  <circle cx="21" cy="6" r="1" fill="white"/>
  <circle cx="22" cy="6" r="1" fill="white"/>
  <circle cx="23" cy="6" r="1" fill="white"/>
  <circle cx="0" cy="7" r="1" fill="white"/>
  <circle cx="1" cy="7" r="1" fill="white"/>
  <circle cx="2" cy="7" r="1" fill="white"/>
  <circle cx="3" cy="7" r="1" fill="white"/>
  <circle cx="4" cy="7" r="1" fill="white"/>
  <circle cx="5" cy="7" r="1" fill="white"/>
  <circle cx="6" cy="7" r="1" fill="white"/>
  <circle cx="7" cy="7" r="1" fill="white"/>
  <circle cx="8" cy="7" r="1" fill="white"/>
  <circle cx="9" cy="7" r="1" fill="white"/>
  <circle cx="10" cy="7" r="1" fill="rgba(96.025%,96.025%,96.025%,1)"/>
  <circle cx="11" cy="7" r="1" fill="rgba(85.4154%,85.4154%,85.4154%,1)"/>
  <circle cx="12" cy="7" r="1" fill="rgba(63.5325%,63.5325%,63.5325%,1)"/>
  <circle cx="13" cy="7" r="1" fill="rgba(77.0993%,77.0993%,77.0993%,1)"/>
  <circle cx="14" cy="7" r="1" fill="rgba(85.8595%,85.8595%,85.8595%,1)"/>
  <circle cx="15" cy="7" r="1" fill="rgba(50.7485%,50.7485%,50.7485%,1)"/>
  <circle cx="16" cy="7" r="1" fill="rgba(36.6491%,36.6491%,36.6491%,1)"/>
  <circle cx="17" cy="7" r="1" fill="rgba(46.1509%,46.1509%,46.1509%,1)"/>
  <circle cx="18" cy="7" r="1" fill="rgba(76.73%,76.73%,76.73%,1)"/>
  <circle cx="19" cy="7" r="1" fill="rgba(93.9269%,93.9269%,93.9269%,1)"/>
  <circle cx="20" cy="7" r="1" fill="white"/>
  <circle cx="21" cy="7" r="1" fill="white"/>
  <circle cx="22" cy="7" r="1" fill="white"/>
  <circle cx="23" cy="7" r="1" fill="white"/>
  <circle cx="0" cy="8" r="1" fill="white"/>
  <circle cx="1" cy="8" r="1" fill="white"/>
  <circle cx="2" cy="8" r="1" fill="white"/>
  <circle cx="3" cy="8" r="1" fill="white"/>
  <circle cx="4" cy="8" r="1" fill="white"/>
  <circle cx="5" cy="8" r="1" fill="white"/>
  <circle cx="6" cy="8" r="1" fill="white"/>
  <circle cx="7" cy="8" r="1" fill="white"/>
  <circle cx="8" cy="8" r="1" fill="white"/>
  <circle cx="9" cy="8" r="1" fill="rgba(99.9756%,99.9756%,99.9756%,1)"/>
  <circle cx="10" cy="8" r="1" fill="rgba(87.5944%,87.5944%,87.5944%,1)"/>
  <circle cx="11" cy="8" r="1" fill="rgba(73.5912%,73.5912%,73.5912%,1)"/>
  <circle cx="12" cy="8" r="1" fill="rgba(69.9825%,69.9825%,69.9825%,1)"/>
  <circle cx="13" cy="8" r="1" fill="rgba(86.3584%,86.3584%,86.3584%,1)"/>
  <circle cx="14" cy="8" r="1" fill="rgba(91.3176%,91.3176%,91.3176%,1)"/>
  <circle cx="15" cy="8" r="1" fill="rgba(55.5535%,55.5535%,55.5535%,1)"/>
  <circle cx="16" cy="8" r="1" fill="rgba(38.7976%,38.7976%,38.7976%,1)"/>
  <circle cx="17" cy="8" r="1" fill="rgba(44.2649%,44.2649%,44.2649%,1)"/>
  <circle cx="18" cy="8" r="1" fill="rgba(70.6111%,70.6111%,70.6111%,1)"/>
  <circle cx="19" cy="8" r="1" fill="rgba(90.1061%,90.1061%,90.1061%,1)"/>
  <circle cx="20" cy="8" r="1" fill="white"/>
  <circle cx="21" cy="8" r="1" fill="white"/>
  <circle cx="22" cy="8" r="1" fill="white"/>
  <circle cx="23" cy="8" r="1" fill="white"/>
  <circle cx="0" cy="9" r="1" fill="white"/>
  <circle cx="1" cy="9" r="1" fill="white"/>
  <circle cx="2" cy="9" r="1" fill="white"/>
  <circle cx="3" cy="9" r="1" fill="white"/>
  <circle cx="4" cy="9" r="1" fill="white"/>
  <circle cx="5" cy="9" r="1" fill="white"/>
  <circle cx="6" cy="9" r="1" fill="white"/>
  <circle cx="7" cy="9" r="1" fill="white"/>
  <circle cx="8" cy="9" r="1" fill="white"/>
  <circle cx="9" cy="9" r="1" fill="rgba(99.0723%,99.0723%,99.0723%,1)"/>
  <circle cx="10" cy="9" r="1" fill="rgba(75.1675%,75.1675%,75.1675%,1)"/>
  <circle cx="11" cy="9" r="1" fill="rgba(59.8962%,59.8962%,59.8962%,1)"/>
  <circle cx="12" cy="9" r="1" fill="rgba(83.447%,83.447%,83.447%,1)"/>
  <circle cx="13" cy="9" r="1" fill="rgba(97.3236%,97.3236%,97.3236%,1)"/>
  <circle cx="14" cy="9" r="1" fill="rgba(92.3033%,92.3033%,92.3033%,1)"/>
  <circle cx="15" cy="9" r="1" fill="rgba(60.6714%,60.6714%,60.6714%,1)"/>
  <circle cx="16" cy="9" r="1" fill="rgba(41.976%,41.976%,41.976%,1)"/>
  <circle cx="17" cy="9" r="1" fill="rgba(42.3301%,42.3301%,42.3301%,1)"/>
  <circle cx="18" cy="9" r="1" fill="rgba(64.506%,64.506%,64.506%,1)"/>
  <circle cx="19" cy="9" r="1" fill="rgba(86.3584%,86.3584%,86.3584%,1)"/>
  <circle cx="20" cy="9" r="1" fill="white"/>
  <circle cx="21" cy="9" r="1" fill="white"/>
  <circle cx="22" cy="9" r="1" fill="white"/>
  <circle cx="23" cy="9" r="1" fill="white"/>
  <circle cx="0" cy="10" r="1" fill="white"/>
  <circle cx="1" cy="10" r="1" fill="white"/>
  <circle cx="2" cy="10" r="1" fill="white"/>
  <circle cx="3" cy="10" r="1" fill="white"/>
  <circle cx="4" cy="10" r="1" fill="white"/>
  <circle cx="5" cy="10" r="1" fill="white"/>
  <circle cx="6" cy="10" r="1" fill="white"/>
  <circle cx="7" cy="10" r="1" fill="white"/>
  <circle cx="8" cy="10" r="1" fill="rgba(97.5982%,97.5982%,97.5982%,1)"/>
  <circle cx="9" cy="10" r="1" fill="rgba(86.0166%,86.0166%,86.0166%,1)"/>
  <circle cx="10" cy="10" r="1" fill="rgba(69.2058%,69.2058%,69.2058%,1)"/>
  <circle cx="11" cy="10" r="1" fill="rgba(65.7954%,65.7954%,65.7954%,1)"/>
  <circle cx="12" cy="10" r="1" fill="rgba(91.7769%,91.7769%,91.7769%,1)"/>
  <circle cx="13" cy="10" r="1" fill="white"/>
  <circle cx="14" cy="10" r="1" fill="rgba(238,238,238,1)"/>
  <circle cx="15" cy="10" r="1" fill="rgba(66.1799%,66.1799%,66.1799%,1)"/>
  <circle cx="16" cy="10" r="1" fill="rgba(45.3941%,45.3941%,45.3941%,1)"/>
  <circle cx="17" cy="10" r="1" fill="rgba(40.2609%,40.2609%,40.2609%,1)"/>
  <circle cx="18" cy="10" r="1" fill="rgba(57.7661%,57.7661%,57.7661%,1)"/>
  <circle cx="19" cy="10" r="1" fill="rgba(82.208%,82.208%,82.208%,1)"/>
  <circle cx="20" cy="10" r="1" fill="white"/>
  <circle cx="21" cy="10" r="1" fill="white"/>
  <circle cx="22" cy="10" r="1" fill="white"/>
  <circle cx="23" cy="10" r="1" fill="white"/>
  <circle cx="0" cy="11" r="1" fill="white"/>
  <circle cx="1" cy="11" r="1" fill="white"/>
  <circle cx="2" cy="11" r="1" fill="white"/>
  <circle cx="3" cy="11" r="1" fill="white"/>
  <circle cx="4" cy="11" r="1" fill="white"/>
  <circle cx="5" cy="11" r="1" fill="white"/>
  <circle cx="6" cy="11" r="1" fill="white"/>
  <circle cx="7" cy="11" r="1" fill="rgba(99.5377%,99.5377%,99.5377%,1)"/>
  <circle cx="8" cy="11" r="1" fill="rgba(92.5139%,92.5139%,92.5139%,1)"/>
  <circle cx="9" cy="11" r="1" fill="rgba(69.0318%,69.0318%,69.0318%,1)"/>
  <circle cx="10" cy="11" r="1" fill="rgba(68.6%,68.6%,68.6%,1)"/>
  <circle cx="11" cy="11" r="1" fill="rgba(81.8082%,81.8082%,81.8082%,1)"/>
  <circle cx="12" cy="11" r="1" fill="rgba(96.5408%,96.5408%,96.5408%,1)"/>
  <circle cx="13" cy="11" r="1" fill="white"/>
  <circle cx="14" cy="11" r="1" fill="rgba(94.7021%,94.7021%,94.7021%,1)"/>
  <circle cx="15" cy="11" r="1" fill="rgba(72.108%,72.108%,72.108%,1)"/>
  <circle cx="16" cy="11" r="1" fill="rgba(49.015%,49.015%,49.015%,1)"/>
  <circle cx="17" cy="11" r="1" fill="rgba(38.1399%,38.1399%,38.1399%,1)"/>
  <circle cx="18" cy="11" r="1" fill="rgba(50.7866%,50.7866%,50.7866%,1)"/>
  <circle cx="19" cy="11" r="1" fill="rgba(77.9141%,77.9141%,77.9141%,1)"/>
  <circle cx="20" cy="11" r="1" fill="white"/>
  <circle cx="21" cy="11" r="1" fill="white"/>
  <circle cx="22" cy="11" r="1" fill="white"/>
  <circle cx="23" cy="11" r="1" fill="white"/>
  <circle cx="0" cy="12" r="1" fill="white"/>
  <circle cx="1" cy="12" r="1" fill="white"/>
  <circle cx="2" cy="12" r="1" fill="white"/>
  <circle cx="3" cy="12" r="1" fill="white"/>
  <circle cx="4" cy="12" r="1" fill="white"/>
  <circle cx="5" cy="12" r="1" fill="white"/>
  <circle cx="6" cy="12" r="1" fill="white"/>
  <circle cx="7" cy="12" r="1" fill="rgba(97.0977%,97.0977%,97.0977%,1)"/>
  <circle cx="8" cy="12" r="1" fill="rgba(84.4755%,84.4755%,84.4755%,1)"/>
  <circle cx="9" cy="12" r="1" fill="rgba(57.2183%,57.2183%,57.2183%,1)"/>
  <circle cx="10" cy="12" r="1" fill="rgba(71.3375%,71.3375%,71.3375%,1)"/>
  <circle cx="11" cy="12" r="1" fill="rgba(96.3165%,96.3165%,96.3165%,1)"/>
  <circle cx="12" cy="12" r="1" fill="rgba(99.4659%,99.4659%,99.4659%,1)"/>
  <circle cx="13" cy="12" r="1" fill="white"/>
  <circle cx="14" cy="12" r="1" fill="rgba(95.9213%,95.9213%,95.9213%,1)"/>
  <circle cx="15" cy="12" r="1" fill="rgba(78.0117%,78.0117%,78.0117%,1)"/>
  <circle cx="16" cy="12" r="1" fill="rgba(52.6314%,52.6314%,52.6314%,1)"/>
  <circle cx="17" cy="12" r="1" fill="rgba(36.0632%,36.0632%,36.0632%,1)"/>
  <circle cx="18" cy="12" r="1" fill="rgba(44.0192%,44.0192%,44.0192%,1)"/>
  <circle cx="19" cy="12" r="1" fill="rgba(73.7469%,73.7469%,73.7469%,1)"/>
  <circle cx="20" cy="12" r="1" fill="white"/>
  <circle cx="21" cy="12" r="1" fill="white"/>
  <circle cx="22" cy="12" r="1" fill="white"/>
  <circle cx="23" cy="12" r="1" fill="white"/>
  <circle cx="0" cy="13" r="1" fill="white"/>
  <circle cx="1" cy="13" r="1" fill="white"/>
  <circle cx="2" cy="13" r="1" fill="white"/>
  <circle cx="3" cy="13" r="1" fill="white"/>
  <circle cx="4" cy="13" r="1" fill="white"/>
  <circle cx="5" cy="13" r="1" fill="white"/>
  <circle cx="6" cy="13" r="1" fill="white"/>
  <circle cx="7" cy="13" r="1" fill="rgba(86.9398%,86.9398%,86.9398%,1)"/>
  <circle cx="8" cy="13" r="1" fill="rgba(68.4871%,68.4871%,68.4871%,1)"/>
  <circle cx="9" cy="13" r="1" fill="rgba(57.0031%,57.0031%,57.0031%,1)"/>
  <circle cx="10" cy="13" r="1" fill="rgba(71.9905%,71.9905%,71.9905%,1)"/>
  <circle cx="11" cy="13" r="1" fill="rgba(90.7439%,90.7439%,90.7439%,1)"/>
  <circle cx="12" cy="13" r="1" fill="rgba(90.309%,90.309%,90.309%,1)"/>
  <circle cx="13" cy="13" r="1" fill="rgba(90.2937%,90.2937%,90.2937%,1)"/>
  <circle cx="14" cy="13" r="1" fill="rgba(87.3487%,87.3487%,87.3487%,1)"/>
  <circle cx="15" cy="13" r="1" fill="rgba(75.3201%,75.3201%,75.3201%,1)"/>
  <circle cx="16" cy="13" r="1" fill="rgba(52.1736%,52.1736%,52.1736%,1)"/>
  <circle cx="17" cy="13" r="1" fill="rgba(34.1253%,34.1253%,34.1253%,1)"/>
  <circle cx="18" cy="13" r="1" fill="rgba(37.7096%,37.7096%,37.7096%,1)"/>
  <circle cx="19" cy="13" r="1" fill="rgba(69.604%,69.604%,69.604%,1)"/>
  <circle cx="20" cy="13" r="1" fill="rgba(99.8611%,99.8611%,99.8611%,1)"/>
  <circle cx="21" cy="13" r="1" fill="white"/>
  <circle cx="22" cy="13" r="1" fill="white"/>
  <circle cx="23" cy="13" r="1" fill="white"/>
  <circle cx="0" cy="14" r="1" fill="white"/>
  <circle cx="1" cy="14" r="1" fill="white"/>
  <circle cx="2" cy="14" r="1" fill="white"/>
  <circle cx="3" cy="14" r="1" fill="white"/>
  <circle cx="4" cy="14" r="1" fill="white"/>
  <circle cx="5" cy="14" r="1" fill="rgba(99.5575%,99.5575%,99.5575%,1)"/>
  <circle cx="6" cy="14" r="1" fill="rgba(97.4624%,97.4624%,97.4624%,1)"/>
  <circle cx="7" cy="14" r="1" fill="rgba(72.9366%,72.9366%,72.9366%,1)"/>
  <circle cx="8" cy="14" r="1" fill="rgba(50.6355%,50.6355%,50.6355%,1)"/>
  <circle cx="9" cy="14" r="1" fill="rgba(55.7366%,55.7366%,55.7366%,1)"/>
  <circle cx="10" cy="14" r="1" fill="rgba(64.4846%,64.4846%,64.4846%,1)"/>
  <circle cx="11" cy="14" r="1" fill="rgba(71.0384%,71.0384%,71.0384%,1)"/>
  <circle cx="12" cy="14" r="1" fill="rgba(71.0521%,71.0521%,71.0521%,1)"/>
  <circle cx="13" cy="14" r="1" fill="rgba(71.2703%,71.2703%,71.2703%,1)"/>
  <circle cx="14" cy="14" r="1" fill="rgba(69.6376%,69.6376%,69.6376%,1)"/>
  <circle cx="15" cy="14" r="1" fill="rgba(63.5477%,63.5477%,63.5477%,1)"/>
  <circle cx="16" cy="14" r="1" fill="rgba(47.126%,47.126%,47.126%,1)"/>
  <circle cx="17" cy="14" r="1" fill="rgba(32.6223%,32.6223%,32.6223%,1)"/>
  <circle cx="18" cy="14" r="1" fill="rgba(33.283%,33.283%,33.283%,1)"/>
  <circle cx="19" cy="14" r="1" fill="rgba(65.3162%,65.3162%,65.3162%,1)"/>
  <circle cx="20" cy="14" r="1" fill="rgba(97.6898%,97.6898%,97.6898%,1)"/>
  <circle cx="21" cy="14" r="1" fill="rgba(99.7436%,99.7436%,99.7436%,1)"/>
  <circle cx="22" cy="14" r="1" fill="white"/>
  <circle cx="23" cy="14" r="1" fill="white"/>
  <circle cx="0" cy="15" r="1" fill="white"/>
  <circle cx="1" cy="15" r="1" fill="white"/>
  <circle cx="2" cy="15" r="1" fill="white"/>
  <circle cx="3" cy="15" r="1" fill="white"/>
  <circle cx="4" cy="15" r="1" fill="white"/>
  <circle cx="5" cy="15" r="1" fill="rgba(97.4945%,97.4945%,97.4945%,1)"/>
  <circle cx="6" cy="15" r="1" fill="rgba(86.3371%,86.3371%,86.3371%,1)"/>
  <circle cx="7" cy="15" r="1" fill="rgba(59.7192%,59.7192%,59.7192%,1)"/>
  <circle cx="8" cy="15" r="1" fill="rgba(38.5382%,38.5382%,38.5382%,1)"/>
  <circle cx="9" cy="15" r="1" fill="rgba(42.8077%,42.8077%,42.8077%,1)"/>
  <circle cx="10" cy="15" r="1" fill="rgba(45.7328%,45.7328%,45.7328%,1)"/>
  <circle cx="11" cy="15" r="1" fill="rgba(46.7689%,46.7689%,46.7689%,1)"/>
  <circle cx="12" cy="15" r="1" fill="rgba(46.7689%,46.7689%,46.7689%,1)"/>
  <circle cx="13" cy="15" r="1" fill="rgba(46.8254%,46.8254%,46.8254%,1)"/>
  <circle cx="14" cy="15" r="1" fill="rgba(46.4958%,46.4958%,46.4958%,1)"/>
  <circle cx="15" cy="15" r="1" fill="rgba(45.1102%,45.1102%,45.1102%,1)"/>
  <circle cx="16" cy="15" r="1" fill="rgba(38.4329%,38.4329%,38.4329%,1)"/>
  <circle cx="17" cy="15" r="1" fill="rgba(31.8532%,31.8532%,31.8532%,1)"/>
  <circle cx="18" cy="15" r="1" fill="rgba(31.9982%,31.9982%,31.9982%,1)"/>
  <circle cx="19" cy="15" r="1" fill="rgba(60.7309%,60.7309%,60.7309%,1)"/>
  <circle cx="20" cy="15" r="1" fill="rgba(91.7861%,91.7861%,91.7861%,1)"/>
  <circle cx="21" cy="15" r="1" fill="rgba(98.6618%,98.6618%,98.6618%,1)"/>
  <circle cx="22" cy="15" r="1" fill="white"/>
  <circle cx="23" cy="15" r="1" fill="white"/>
  <circle cx="0" cy="16" r="1" fill="white"/>
  <circle cx="1" cy="16" r="1" fill="white"/>
  <circle cx="2" cy="16" r="1" fill="white"/>
  <circle cx="3" cy="16" r="1" fill="white"/>
  <circle cx="4" cy="16" r="1" fill="white"/>
  <circle cx="5" cy="16" r="1" fill="rgba(92.668%,92.668%,92.668%,1)"/>
  <circle cx="6" cy="16" r="1" fill="rgba(65.1331%,65.1331%,65.1331%,1)"/>
  <circle cx="7" cy="16" r="1" fill="rgba(55.2239%,55.2239%,55.2239%,1)"/>
  <circle cx="8" cy="16" r="1" fill="rgba(58.4283%,58.4283%,58.4283%,1)"/>
  <circle cx="9" cy="16" r="1" fill="rgba(67.5853%,67.5853%,67.5853%,1)"/>
  <circle cx="10" cy="16" r="1" fill="rgba(69.7078%,69.7078%,69.7078%,1)"/>
  <circle cx="11" cy="16" r="1" fill="rgba(69.3187%,69.3187%,69.3187%,1)"/>
  <circle cx="12" cy="16" r="1" fill="rgba(69.3172%,69.3172%,69.3172%,1)"/>
  <circle cx="13" cy="16" r="1" fill="rgba(69.3156%,69.3156%,69.3156%,1)"/>
  <circle cx="14" cy="16" r="1" fill="rgba(69.3767%,69.3767%,69.3767%,1)"/>
  <circle cx="15" cy="16" r="1" fill="rgba(69.4865%,69.4865%,69.4865%,1)"/>
  <circle cx="16" cy="16" r="1" fill="rgba(50.9712%,50.9712%,50.9712%,1)"/>
  <circle cx="17" cy="16" r="1" fill="rgba(31.7983%,31.7983%,31.7983%,1)"/>
  <circle cx="18" cy="16" r="1" fill="rgba(31.1086%,31.1086%,31.1086%,1)"/>
  <circle cx="19" cy="16" r="1" fill="rgba(56.0052%,56.0052%,56.0052%,1)"/>
  <circle cx="20" cy="16" r="1" fill="rgba(85.1911%,85.1911%,85.1911%,1)"/>
  <circle cx="21" cy="16" r="1" fill="rgba(97.3327%,97.3327%,97.3327%,1)"/>
  <circle cx="22" cy="16" r="1" fill="white"/>
  <circle cx="23" cy="16" r="1" fill="white"/>
  <circle cx="0" cy="17" r="1" fill="white"/>
  <circle cx="1" cy="17" r="1" fill="white"/>
  <circle cx="2" cy="17" r="1" fill="white"/>
  <circle cx="3" cy="17" r="1" fill="white"/>
  <circle cx="4" cy="17" r="1" fill="rgba(97.2198%,97.2198%,97.2198%,1)"/>
  <circle cx="5" cy="17" r="1" fill="rgba(82.472%,82.472%,82.472%,1)"/>
  <circle cx="6" cy="17" r="1" fill="rgba(48.2368%,48.2368%,48.2368%,1)"/>
  <circle cx="7" cy="17" r="1" fill="rgba(59.2401%,59.2401%,59.2401%,1)"/>
  <circle cx="8" cy="17" r="1" fill="rgba(86.3966%,86.3966%,86.3966%,1)"/>
  <circle cx="9" cy="17" r="1" fill="rgba(97.7737%,97.7737%,97.7737%,1)"/>
  <circle cx="10" cy="17" r="1" fill="white"/>
  <circle cx="11" cy="17" r="1" fill="white"/>
  <circle cx="12" cy="17" r="1" fill="white"/>
  <circle cx="13" cy="17" r="1" fill="white"/>
  <circle cx="14" cy="17" r="1" fill="white"/>
  <circle cx="15" cy="17" r="1" fill="white"/>
  <circle cx="16" cy="17" r="1" fill="rgba(67.7577%,67.7577%,67.7577%,1)"/>
  <circle cx="17" cy="17" r="1" fill="rgba(33.7072%,33.7072%,33.7072%,1)"/>
  <circle cx="18" cy="17" r="1" fill="rgba(30.7637%,30.7637%,30.7637%,1)"/>
  <circle cx="19" cy="17" r="1" fill="rgba(51.1589%,51.1589%,51.1589%,1)"/>
  <circle cx="20" cy="17" r="1" fill="rgba(78.3566%,78.3566%,78.3566%,1)"/>
  <circle cx="21" cy="17" r="1" fill="rgba(95.903%,95.903%,95.903%,1)"/>
  <circle cx="22" cy="17" r="1" fill="white"/>
  <circle cx="23" cy="17" r="1" fill="white"/>
  <circle cx="0" cy="18" r="1" fill="white"/>
  <circle cx="1" cy="18" r="1" fill="white"/>
  <circle cx="2" cy="18" r="1" fill="white"/>
  <circle cx="3" cy="18" r="1" fill="white"/>
  <circle cx="4" cy="18" r="1" fill="rgba(85.4185%,85.4185%,85.4185%,1)"/>
  <circle cx="5" cy="18" r="1" fill="rgba(64.8981%,64.8981%,64.8981%,1)"/>
  <circle cx="6" cy="18" r="1" fill="rgba(49.7246%,49.7246%,49.7246%,1)"/>
  <circle cx="7" cy="18" r="1" fill="rgba(70.7607%,70.7607%,70.7607%,1)"/>
  <circle cx="8" cy="18" r="1" fill="rgba(97.5509%,97.5509%,97.5509%,1)"/>
  <circle cx="9" cy="18" r="1" fill="rgba(99.9023%,99.9023%,99.9023%,1)"/>
  <circle cx="10" cy="18" r="1" fill="white"/>
  <circle cx="11" cy="18" r="1" fill="white"/>
  <circle cx="12" cy="18" r="1" fill="white"/>
  <circle cx="13" cy="18" r="1" fill="white"/>
  <circle cx="14" cy="18" r="1" fill="white"/>
  <circle cx="15" cy="18" r="1" fill="white"/>
  <circle cx="16" cy="18" r="1" fill="rgba(71.165%,71.165%,71.165%,1)"/>
  <circle cx="17" cy="18" r="1" fill="rgba(38.6648%,38.6648%,38.6648%,1)"/>
  <circle cx="18" cy="18" r="1" fill="rgba(31.2078%,31.2078%,31.2078%,1)"/>
  <circle cx="19" cy="18" r="1" fill="rgba(46.1982%,46.1982%,46.1982%,1)"/>
  <circle cx="20" cy="18" r="1" fill="rgba(71.5648%,71.5648%,71.5648%,1)"/>
  <circle cx="21" cy="18" r="1" fill="rgba(94.49%,94.49%,94.49%,1)"/>
  <circle cx="22" cy="18" r="1" fill="white"/>
  <circle cx="23" cy="18" r="1" fill="white"/>
  <circle cx="0" cy="19" r="1" fill="white"/>
  <circle cx="1" cy="19" r="1" fill="white"/>
  <circle cx="2" cy="19" r="1" fill="rgba(99.6216%,99.6216%,99.6216%,1)"/>
  <circle cx="3" cy="19" r="1" fill="rgba(96.3806%,96.3806%,96.3806%,1)"/>
  <circle cx="4" cy="19" r="1" fill="rgba(69.6315%,69.6315%,69.6315%,1)"/>
  <circle cx="5" cy="19" r="1" fill="rgba(48.6076%,48.6076%,48.6076%,1)"/>
  <circle cx="6" cy="19" r="1" fill="rgba(62.5696%,62.5696%,62.5696%,1)"/>
  <circle cx="7" cy="19" r="1" fill="rgba(84.5258%,84.5258%,84.5258%,1)"/>
  <circle cx="8" cy="19" r="1" fill="white"/>
  <circle cx="9" cy="19" r="1" fill="white"/>
  <circle cx="10" cy="19" r="1" fill="white"/>
  <circle cx="11" cy="19" r="1" fill="white"/>
  <circle cx="12" cy="19" r="1" fill="white"/>
  <circle cx="13" cy="19" r="1" fill="white"/>
  <circle cx="14" cy="19" r="1" fill="white"/>
  <circle cx="15" cy="19" r="1" fill="white"/>
  <circle cx="16" cy="19" r="1" fill="rgba(74.3099%,74.3099%,74.3099%,1)"/>
  <circle cx="17" cy="19" r="1" fill="rgba(43.7156%,43.7156%,43.7156%,1)"/>
  <circle cx="18" cy="19" r="1" fill="rgba(31.5175%,31.5175%,31.5175%,1)"/>
  <circle cx="19" cy="19" r="1" fill="rgba(40.9689%,40.9689%,40.9689%,1)"/>
  <circle cx="20" cy="19" r="1" fill="rgba(64.5365%,64.5365%,64.5365%,1)"/>
  <circle cx="21" cy="19" r="1" fill="rgba(93.0495%,93.0495%,93.0495%,1)"/>
  <circle cx="22" cy="19" r="1" fill="white"/>
  <circle cx="23" cy="19" r="1" fill="white"/>
  <circle cx="0" cy="20" r="1" fill="white"/>
  <circle cx="1" cy="20" r="1" fill="white"/>
  <circle cx="2" cy="20" r="1" fill="rgba(96.4477%,96.4477%,96.4477%,1)"/>
  <circle cx="3" cy="20" r="1" fill="rgba(83.1296%,83.1296%,83.1296%,1)"/>
  <circle cx="4" cy="20" r="1" fill="rgba(52.8832%,52.8832%,52.8832%,1)"/>
  <circle cx="5" cy="20" r="1" fill="rgba(40.6928%,40.6928%,40.6928%,1)"/>
  <circle cx="6" cy="20" r="1" fill="rgba(78.2528%,78.2528%,78.2528%,1)"/>
  <circle cx="7" cy="20" r="1" fill="rgba(95.7015%,95.7015%,95.7015%,1)"/>
  <circle cx="8" cy="20" r="1" fill="white"/>
  <circle cx="9" cy="20" r="1" fill="white"/>
  <circle cx="10" cy="20" r="1" fill="white"/>
  <circle cx="11" cy="20" r="1" fill="white"/>
  <circle cx="12" cy="20" r="1" fill="white"/>
  <circle cx="13" cy="20" r="1" fill="white"/>
  <circle cx="14" cy="20" r="1" fill="white"/>
  <circle cx="15" cy="20" r="1" fill="white"/>
  <circle cx="16" cy="20" r="1" fill="rgba(77.6165%,77.6165%,77.6165%,1)"/>
  <circle cx="17" cy="20" r="1" fill="rgba(48.455%,48.455%,48.455%,1)"/>
  <circle cx="18" cy="20" r="1" fill="rgba(31.7281%,31.7281%,31.7281%,1)"/>
  <circle cx="19" cy="20" r="1" fill="rgba(35.2926%,35.2926%,35.2926%,1)"/>
  <circle cx="20" cy="20" r="1" fill="rgba(56.8688%,56.8688%,56.8688%,1)"/>
  <circle cx="21" cy="20" r="1" fill="rgba(91.6487%,91.6487%,91.6487%,1)"/>
  <circle cx="22" cy="20" r="1" fill="white"/>
  <circle cx="23" cy="20" r="1" fill="white"/>
  <circle cx="0" cy="21" r="1" fill="white"/>
  <circle cx="1" cy="21" r="1" fill="rgba(99.3988%,99.3988%,99.3988%,1)"/>
  <circle cx="2" cy="21" r="1" fill="rgba(87.5563%,87.5563%,87.5563%,1)"/>
  <circle cx="3" cy="21" r="1" fill="rgba(55.9365%,55.9365%,55.9365%,1)"/>
  <circle cx="4" cy="21" r="1" fill="rgba(38.2895%,38.2895%,38.2895%,1)"/>
  <circle cx="5" cy="21" r="1" fill="rgba(46.5309%,46.5309%,46.5309%,1)"/>
  <circle cx="6" cy="21" r="1" fill="rgba(87.602%,87.602%,87.602%,1)"/>
  <circle cx="7" cy="21" r="1" fill="rgba(99.3896%,99.3896%,99.3896%,1)"/>
  <circle cx="8" cy="21" r="1" fill="white"/>
  <circle cx="9" cy="21" r="1" fill="white"/>
  <circle cx="10" cy="21" r="1" fill="white"/>
  <circle cx="11" cy="21" r="1" fill="white"/>
  <circle cx="12" cy="21" r="1" fill="white"/>
  <circle cx="13" cy="21" r="1" fill="white"/>
  <circle cx="14" cy="21" r="1" fill="white"/>
  <circle cx="15" cy="21" r="1" fill="white"/>
  <circle cx="16" cy="21" r="1" fill="rgba(79.9802%,79.9802%,79.9802%,1)"/>
  <circle cx="17" cy="21" r="1" fill="rgba(52.0989%,52.0989%,52.0989%,1)"/>
  <circle cx="18" cy="21" r="1" fill="rgba(31.9142%,31.9142%,31.9142%,1)"/>
  <circle cx="19" cy="21" r="1" fill="rgba(29.2988%,29.2988%,29.2988%,1)"/>
  <circle cx="20" cy="21" r="1" fill="rgba(48.2322%,48.2322%,48.2322%,1)"/>
  <circle cx="21" cy="21" r="1" fill="rgba(89.3874%,89.3874%,89.3874%,1)"/>
  <circle cx="22" cy="21" r="1" fill="white"/>
  <circle cx="23" cy="21" r="1" fill="white"/>
  <circle cx="0" cy="22" r="1" fill="rgba(90.0404%,90.0404%,90.0404%,1)"/>
  <circle cx="1" cy="22" r="1" fill="rgba(78.5611%,78.5611%,78.5611%,1)"/>
  <circle cx="2" cy="22" r="1" fill="rgba(59.0661%,59.0661%,59.0661%,1)"/>
  <circle cx="3" cy="22" r="1" fill="rgba(38.8479%,38.8479%,38.8479%,1)"/>
  <circle cx="4" cy="22" r="1" fill="rgba(31.8853%,31.8853%,31.8853%,1)"/>
  <circle cx="5" cy="22" r="1" fill="rgba(41.7395%,41.7395%,41.7395%,1)"/>
  <circle cx="6" cy="22" r="1" fill="rgba(69.6376%,69.6376%,69.6376%,1)"/>
  <circle cx="7" cy="22" r="1" fill="rgba(86.6728%,86.6728%,86.6728%,1)"/>
  <circle cx="8" cy="22" r="1" fill="rgba(96.9238%,96.9238%,96.9238%,1)"/>
  <circle cx="9" cy="22" r="1" fill="rgba(99.5026%,99.5026%,99.5026%,1)"/>
  <circle cx="10" cy="22" r="1" fill="white"/>
  <circle cx="11" cy="22" r="1" fill="white"/>
  <circle cx="12" cy="22" r="1" fill="white"/>
  <circle cx="13" cy="22" r="1" fill="rgba(98.8861%,98.8861%,98.8861%,1)"/>
  <circle cx="14" cy="22" r="1" fill="rgba(92.9702%,92.9702%,92.9702%,1)"/>
  <circle cx="15" cy="22" r="1" fill="rgba(79.353%,79.353%,79.353%,1)"/>
  <circle cx="16" cy="22" r="1" fill="rgba(60.8621%,60.8621%,60.8621%,1)"/>
  <circle cx="17" cy="22" r="1" fill="rgba(43.0488%,43.0488%,43.0488%,1)"/>
  <circle cx="18" cy="22" r="1" fill="rgba(31.8288%,31.8288%,31.8288%,1)"/>
  <circle cx="19" cy="22" r="1" fill="rgba(29.073%,29.073%,29.073%,1)"/>
  <circle cx="20" cy="22" r="1" fill="rgba(39.1241%,39.1241%,39.1241%,1)"/>
  <circle cx="21" cy="22" r="1" fill="rgba(64.8478%,64.8478%,64.8478%,1)"/>
  <circle cx="22" cy="22" r="1" fill="rgba(81.3962%,81.3962%,81.3962%,1)"/>
  <circle cx="23" cy="22" r="1" fill="rgba(90.0069%,90.0069%,90.0069%,1)"/>
  <circle cx="0" cy="23" r="1" fill="rgba(80.5783%,80.5783%,80.5783%,1)"/>
  <circle cx="1" cy="23" r="1" fill="rgba(59.237%,59.237%,59.237%,1)"/>
  <circle cx="2" cy="23" r="1" fill="rgba(35.2773%,35.2773%,35.2773%,1)"/>
  <circle cx="3" cy="23" r="1" fill="rgba(31.8349%,31.8349%,31.8349%,1)"/>
  <circle cx="4" cy="23" r="1" fill="rgba(30.5684%,30.5684%,30.5684%,1)"/>
  <circle cx="5" cy="23" r="1" fill="rgba(35.1293%,35.1293%,35.1293%,1)"/>
  <circle cx="6" cy="23" r="1" fill="rgba(49.8207%,49.8207%,49.8207%,1)"/>
  <circle cx="7" cy="23" r="1" fill="rgba(73.6492%,73.6492%,73.6492%,1)"/>
  <circle cx="8" cy="23" r="1" fill="rgba(94.0002%,94.0002%,94.0002%,1)"/>
  <circle cx="9" cy="23" r="1" fill="rgba(99.0295%,99.0295%,99.0295%,1)"/>
  <circle cx="10" cy="23" r="1" fill="white"/>
  <circle cx="11" cy="23" r="1" fill="white"/>
  <circle cx="12" cy="23" r="1" fill="white"/>
  <circle cx="13" cy="23" r="1" fill="rgba(97.8286%,97.8286%,97.8286%,1)"/>
  <circle cx="14" cy="23" r="1" fill="rgba(86.2913%,86.2913%,86.2913%,1)"/>
  <circle cx="15" cy="23" r="1" fill="rgba(59.7375%,59.7375%,59.7375%,1)"/>
  <circle cx="16" cy="23" r="1" fill="rgba(42.153%,42.153%,42.153%,1)"/>
  <circle cx="17" cy="23" r="1" fill="rgba(33.3837%,33.3837%,33.3837%,1)"/>
  <circle cx="18" cy="23" r="1" fill="rgba(31.6884%,31.6884%,31.6884%,1)"/>
  <circle cx="19" cy="23" r="1" fill="rgba(30.8095%,30.8095%,30.8095%,1)"/>
  <circle cx="20" cy="23" r="1" fill="rgba(33.3822%,33.3822%,33.3822%,1)"/>
  <circle cx="21" cy="23" r="1" fill="rgba(42.5452%,42.5452%,42.5452%,1)"/>
  <circle cx="22" cy="23" r="1" fill="rgba(63.7232%,63.7232%,63.7232%,1)"/>
  <circle cx="23" cy="23" r="1" fill="rgba(80.5127%,80.5127%,80.5127%,1)"/>
</svg>
