<?xml version="1.0" standalone="no"?>
<!DOCTYPE svg PUBLIC "-//W3C//DTD SVG 20010904//EN"
  "http://www.w3.org/TR/2001/REC-SVG-20010904/DTD/svg10.dtd">
<svg width="16" height="16">
  <circle cx="0" cy="0" r="1" fill="rgba(99.7879%,99.7848%,99.7833%,1)"/>
  <circle cx="1" cy="0" r="1" fill="rgba(97.8088%,97.8424%,97.8698%,1)"/>
  <circle cx="2" cy="0" r="1" fill="rgba(96.8627%,96.9223%,96.9787%,1)"/>
  <circle cx="3" cy="0" r="1" fill="rgba(96.8826%,96.9329%,96.9879%,1)"/>
  <circle cx="4" cy="0" r="1" fill="rgba(96.8841%,96.9375%,96.994%,1)"/>
  <circle cx="5" cy="0" r="1" fill="rgba(96.8826%,96.9375%,96.994%,1)"/>
  <circle cx="6" cy="0" r="1" fill="rgba(96.8826%,96.9375%,96.994%,1)"/>
  <circle cx="7" cy="0" r="1" fill="rgba(96.8826%,96.9375%,96.994%,1)"/>
  <circle cx="8" cy="0" r="1" fill="rgba(96.8826%,96.9375%,96.994%,1)"/>
  <circle cx="9" cy="0" r="1" fill="rgba(96.8826%,96.9375%,96.994%,1)"/>
  <circle cx="10" cy="0" r="1" fill="rgba(96.8826%,96.9375%,96.994%,1)"/>
  <circle cx="11" cy="0" r="1" fill="rgba(96.8841%,96.936%,96.9909%,1)"/>
  <circle cx="12" cy="0" r="1" fill="rgba(96.8811%,96.9345%,96.9879%,1)"/>
  <circle cx="13" cy="0" r="1" fill="rgba(96.8673%,96.9253%,96.9802%,1)"/>
  <circle cx="14" cy="0" r="1" fill="rgba(97.8225%,97.85%,97.8759%,1)"/>
  <circle cx="15" cy="0" r="1" fill="rgba(99.7894%,99.7879%,99.7864%,1)"/>
  <circle cx="0" cy="1" r="1" fill="rgba(94.8699%,94.931%,94.9615%,1)"/>
  <circle cx="1" cy="1" r="1" fill="rgba(86.9062%,87.6066%,88.0369%,1)"/>
  <circle cx="2" cy="1" r="1" fill="rgba(85.5268%,86.4729%,87.0603%,1)"/>
  <circle cx="3" cy="1" r="1" fill="rgba(85.7191%,86.6117%,87.2053%,1)"/>
  <circle cx="4" cy="1" r="1" fill="rgba(85.7954%,86.7262%,87.3075%,1)"/>
  <circle cx="5" cy="1" r="1" fill="rgba(85.8198%,86.7628%,87.3335%,1)"/>
  <circle cx="6" cy="1" r="1" fill="rgba(85.7755%,86.7262%,87.303%,1)"/>
  <circle cx="7" cy="1" r="1" fill="rgba(85.6977%,86.6545%,87.2358%,1)"/>
  <circle cx="8" cy="1" r="1" fill="rgba(85.6962%,86.6545%,87.2358%,1)"/>
  <circle cx="9" cy="1" r="1" fill="rgba(85.7755%,86.7262%,87.303%,1)"/>
  <circle cx="10" cy="1" r="1" fill="rgba(85.8183%,86.7597%,87.3335%,1)"/>
  <circle cx="11" cy="1" r="1" fill="rgba(85.7694%,86.6758%,87.2694%,1)"/>
  <circle cx="12" cy="1" r="1" fill="rgba(85.6428%,86.5476%,87.1321%,1)"/>
  <circle cx="13" cy="1" r="1" fill="rgba(85.4704%,86.424%,87.0222%,1)"/>
  <circle cx="14" cy="1" r="1" fill="rgba(86.9276%,87.6188%,88.0507%,1)"/>
  <circle cx="15" cy="1" r="1" fill="rgba(94.8867%,94.9447%,94.9798%,1)"/>
  <circle cx="0" cy="2" r="1" fill="rgba(88.5679%,88.6915%,88.7846%,1)"/>
  <circle cx="1" cy="2" r="1" fill="rgba(80.5783%,81.6571%,82.4369%,1)"/>
  <circle cx="2" cy="2" r="1" fill="rgba(81.2451%,82.5284%,83.4577%,1)"/>
  <circle cx="3" cy="2" r="1" fill="rgba(81.6358%,82.8962%,83.798%,1)"/>
  <circle cx="4" cy="2" r="1" fill="rgba(81.8219%,83.0823%,83.9841%,1)"/>
  <circle cx="5" cy="2" r="1" fill="rgba(81.622%,82.8687%,83.7522%,1)"/>
  <circle cx="6" cy="2" r="1" fill="rgba(82.2766%,83.386%,84.1703%,1)"/>
  <circle cx="7" cy="2" r="1" fill="rgba(83.3005%,84.2756%,84.9866%,1)"/>
  <circle cx="8" cy="2" r="1" fill="rgba(83.3112%,84.2878%,84.9928%,1)"/>
  <circle cx="9" cy="2" r="1" fill="rgba(82.2812%,83.3967%,84.1779%,1)"/>
  <circle cx="10" cy="2" r="1" fill="rgba(81.6236%,82.8611%,83.7476%,1)"/>
  <circle cx="11" cy="2" r="1" fill="rgba(81.7273%,82.9999%,83.9017%,1)"/>
  <circle cx="12" cy="2" r="1" fill="rgba(81.4496%,82.7008%,83.6149%,1)"/>
  <circle cx="13" cy="2" r="1" fill="rgba(81.0147%,82.3301%,83.2685%,1)"/>
  <circle cx="14" cy="2" r="1" fill="rgba(80.5127%,81.5869%,82.3789%,1)"/>
  <circle cx="15" cy="2" r="1" fill="rgba(88.5924%,88.7129%,88.8075%,1)"/>
  <circle cx="0" cy="3" r="1" fill="rgba(87.4784%,87.6143%,87.7241%,1)"/>
  <circle cx="1" cy="3" r="1" fill="rgba(79.3271%,80.4532%,81.2985%,1)"/>
  <circle cx="2" cy="3" r="1" fill="rgba(80.557%,81.8708%,82.858%,1)"/>
  <circle cx="3" cy="3" r="1" fill="rgba(81.0315%,82.2889%,83.2349%,1)"/>
  <circle cx="4" cy="3" r="1" fill="rgba(81.5702%,82.6764%,83.4363%,1)"/>
  <circle cx="5" cy="3" r="1" fill="rgba(85.9281%,86.4881%,86.8666%,1)"/>
  <circle cx="6" cy="3" r="1" fill="rgba(90.4005%,90.5806%,90.7118%,1)"/>
  <circle cx="7" cy="3" r="1" fill="rgba(88.5359%,88.5969%,88.6519%,1)"/>
  <circle cx="8" cy="3" r="1" fill="rgba(88.513%,88.574%,88.6259%,1)"/>
  <circle cx="9" cy="3" r="1" fill="rgba(90.3807%,90.5623%,90.6905%,1)"/>
  <circle cx="10" cy="3" r="1" fill="rgba(85.9098%,86.4424%,86.8528%,1)"/>
  <circle cx="11" cy="3" r="1" fill="rgba(81.4801%,82.5818%,83.3814%,1)"/>
  <circle cx="12" cy="3" r="1" fill="rgba(80.7584%,82.0249%,82.9969%,1)"/>
  <circle cx="13" cy="3" r="1" fill="rgba(80.1938%,81.5503%,82.5513%,1)"/>
  <circle cx="14" cy="3" r="1" fill="rgba(79.1363%,80.264%,81.1154%,1)"/>
  <circle cx="15" cy="3" r="1" fill="rgba(87.4754%,87.6112%,87.7195%,1)"/>
  <circle cx="0" cy="4" r="1" fill="rgba(86.833%,86.981%,87.1061%,1)"/>
  <circle cx="1" cy="4" r="1" fill="rgba(78.1109%,79.2157%,80.1862%,1)"/>
  <circle cx="2" cy="4" r="1" fill="rgba(79.4614%,80.7599%,81.8692%,1)"/>
  <circle cx="3" cy="4" r="1" fill="rgba(80.2426%,81.2879%,82.1897%,1)"/>
  <circle cx="4" cy="4" r="1" fill="rgba(87.303%,87.631%,87.8614%,1)"/>
  <circle cx="5" cy="4" r="1" fill="rgba(92.7245%,92.7092%,92.6925%,1)"/>
  <circle cx="6" cy="4" r="1" fill="rgba(92.9335%,92.9122%,92.8969%,1)"/>
  <circle cx="7" cy="4" r="1" fill="rgba(85.8762%,85.8518%,85.8335%,1)"/>
  <circle cx="8" cy="4" r="1" fill="rgba(85.8824%,85.8595%,85.8412%,1)"/>
  <circle cx="9" cy="4" r="1" fill="rgba(92.929%,92.9076%,92.8923%,1)"/>
  <circle cx="10" cy="4" r="1" fill="rgba(92.726%,92.7123%,92.6986%,1)"/>
  <circle cx="11" cy="4" r="1" fill="rgba(87.2724%,87.5624%,87.8065%,1)"/>
  <circle cx="12" cy="4" r="1" fill="rgba(79.971%,81.0498%,81.9791%,1)"/>
  <circle cx="13" cy="4" r="1" fill="rgba(79.0463%,80.3677%,81.5137%,1)"/>
  <circle cx="14" cy="4" r="1" fill="rgba(77.8347%,78.9654%,79.9405%,1)"/>
  <circle cx="15" cy="4" r="1" fill="rgba(86.8162%,86.9627%,87.0878%,1)"/>
  <circle cx="0" cy="5" r="1" fill="rgba(86.1631%,86.3142%,86.4546%,1)"/>
  <circle cx="1" cy="5" r="1" fill="rgba(76.8566%,78.0026%,78.9761%,1)"/>
  <circle cx="2" cy="5" r="1" fill="rgba(77.8485%,79.1714%,80.2457%,1)"/>
  <circle cx="3" cy="5" r="1" fill="rgba(83.5935%,84.0726%,84.4953%,1)"/>
  <circle cx="4" cy="5" r="1" fill="rgba(92.4651%,92.4483%,92.4331%,1)"/>
  <circle cx="5" cy="5" r="1" fill="rgba(91.6503%,91.6426%,91.6381%,1)"/>
  <circle cx="6" cy="5" r="1" fill="rgba(85.7908%,85.9373%,86.0822%,1)"/>
  <circle cx="7" cy="5" r="1" fill="rgba(81.9471%,82.4308%,82.8351%,1)"/>
  <circle cx="8" cy="5" r="1" fill="rgba(81.9486%,82.4308%,82.8214%,1)"/>
  <circle cx="9" cy="5" r="1" fill="rgba(85.8091%,85.9495%,86.0868%,1)"/>
  <circle cx="10" cy="5" r="1" fill="rgba(91.635%,91.6274%,91.6197%,1)"/>
  <circle cx="11" cy="5" r="1" fill="rgba(92.462%,92.4453%,92.4315%,1)"/>
  <circle cx="12" cy="5" r="1" fill="rgba(83.4226%,83.9353%,84.361%,1)"/>
  <circle cx="13" cy="5" r="1" fill="rgba(77.4578%,78.7884%,79.8901%,1)"/>
  <circle cx="14" cy="5" r="1" fill="rgba(76.553%,77.7173%,78.7228%,1)"/>
  <circle cx="15" cy="5" r="1" fill="rgba(86.1433%,86.2928%,86.4317%,1)"/>
  <circle cx="0" cy="6" r="1" fill="rgba(85.4612%,85.626%,85.7847%,1)"/>
  <circle cx="1" cy="6" r="1" fill="rgba(75.3201%,76.5469%,77.6791%,1)"/>
  <circle cx="2" cy="6" r="1" fill="rgba(76.8765%,78.0255%,79.0478%,1)"/>
  <circle cx="3" cy="6" r="1" fill="rgba(88.2216%,88.336%,88.4352%,1)"/>
  <circle cx="4" cy="6" r="1" fill="rgba(92.9641%,92.9458%,92.9274%,1)"/>
  <circle cx="5" cy="6" r="1" fill="rgba(85.1713%,85.362%,85.565%,1)"/>
  <circle cx="6" cy="6" r="1" fill="rgba(77.6486%,78.6481%,79.6277%,1)"/>
  <circle cx="7" cy="6" r="1" fill="rgba(79.3866%,80.6729%,81.8387%,1)"/>
  <circle cx="8" cy="6" r="1" fill="rgba(79.3576%,80.6348%,81.7975%,1)"/>
  <circle cx="9" cy="6" r="1" fill="rgba(77.7493%,78.7701%,79.7131%,1)"/>
  <circle cx="10" cy="6" r="1" fill="rgba(85.2811%,85.4978%,85.6718%,1)"/>
  <circle cx="11" cy="6" r="1" fill="rgba(92.9625%,92.9427%,92.9259%,1)"/>
  <circle cx="12" cy="6" r="1" fill="rgba(88.1544%,88.2704%,88.3742%,1)"/>
  <circle cx="13" cy="6" r="1" fill="rgba(76.5148%,77.6776%,78.732%,1)"/>
  <circle cx="14" cy="6" r="1" fill="rgba(75.0454%,76.2692%,77.4228%,1)"/>
  <circle cx="15" cy="6" r="1" fill="rgba(85.4398%,85.6046%,85.7633%,1)"/>
  <circle cx="0" cy="7" r="1" fill="rgba(84.7089%,84.8981%,85.0675%,1)"/>
  <circle cx="1" cy="7" r="1" fill="rgba(73.7911%,75.0958%,76.286%,1)"/>
  <circle cx="2" cy="7" r="1" fill="rgba(75.9823%,76.9619%,77.8424%,1)"/>
  <circle cx="3" cy="7" r="1" fill="rgba(86.6392%,86.6529%,86.6651%,1)"/>
  <circle cx="4" cy="7" r="1" fill="rgba(88.0354%,88.0171%,88.0049%,1)"/>
  <circle cx="5" cy="7" r="1" fill="rgba(78.2773%,79.0051%,79.6109%,1)"/>
  <circle cx="6" cy="7" r="1" fill="rgba(78.3734%,79.6323%,80.6928%,1)"/>
  <circle cx="7" cy="7" r="1" fill="rgba(82.2278%,83.3097%,84.184%,1)"/>
  <circle cx="8" cy="7" r="1" fill="rgba(82.9755%,83.9994%,84.8127%,1)"/>
  <circle cx="9" cy="7" r="1" fill="rgba(78.3856%,79.6521%,80.7126%,1)"/>
  <circle cx="10" cy="7" r="1" fill="rgba(78.3444%,79.1012%,79.6979%,1)"/>
  <circle cx="11" cy="7" r="1" fill="rgba(88.1163%,88.0995%,88.0873%,1)"/>
  <circle cx="12" cy="7" r="1" fill="rgba(86.6651%,86.6819%,86.6926%,1)"/>
  <circle cx="13" cy="7" r="1" fill="rgba(75.7046%,76.6812%,77.5769%,1)"/>
  <circle cx="14" cy="7" r="1" fill="rgba(73.5409%,74.8302%,76.0266%,1)"/>
  <circle cx="15" cy="7" r="1" fill="rgba(84.6906%,84.8783%,85.0477%,1)"/>
  <circle cx="0" cy="8" r="1" fill="rgba(84.0101%,84.2069%,84.3702%,1)"/>
  <circle cx="1" cy="8" r="1" fill="rgba(72.4208%,73.8109%,74.9569%,1)"/>
  <circle cx="2" cy="8" r="1" fill="rgba(74.2275%,75.227%,76.0723%,1)"/>
  <circle cx="3" cy="8" r="1" fill="rgba(83.5996%,83.6042%,83.6088%,1)"/>
  <circle cx="4" cy="8" r="1" fill="rgba(85.2186%,85.2064%,85.1987%,1)"/>
  <circle cx="5" cy="8" r="1" fill="rgba(76.2631%,77.1191%,77.7615%,1)"/>
  <circle cx="6" cy="8" r="1" fill="rgba(78.3047%,79.4888%,80.3632%,1)"/>
  <circle cx="7" cy="8" r="1" fill="rgba(82.269%,83.2898%,83.9902%,1)"/>
  <circle cx="8" cy="8" r="1" fill="rgba(82.8824%,83.8697%,84.5426%,1)"/>
  <circle cx="9" cy="8" r="1" fill="rgba(77.8408%,79.0768%,79.9832%,1)"/>
  <circle cx="10" cy="8" r="1" fill="rgba(76.3149%,77.1984%,77.8424%,1)"/>
  <circle cx="11" cy="8" r="1" fill="rgba(85.3483%,85.3391%,85.333%,1)"/>
  <circle cx="12" cy="8" r="1" fill="rgba(83.7018%,83.7079%,83.714%,1)"/>
  <circle cx="13" cy="8" r="1" fill="rgba(73.9895%,75.0072%,75.8343%,1)"/>
  <circle cx="14" cy="8" r="1" fill="rgba(72.163%,73.5622%,74.7005%,1)"/>
  <circle cx="15" cy="8" r="1" fill="rgba(83.9841%,84.1886%,84.3656%,1)"/>
  <circle cx="0" cy="9" r="1" fill="rgba(83.2761%,83.4836%,83.6667%,1)"/>
  <circle cx="1" cy="9" r="1" fill="rgba(71.0628%,72.4865%,73.8064%,1)"/>
  <circle cx="2" cy="9" r="1" fill="rgba(72.4453%,73.6294%,74.7738%,1)"/>
  <circle cx="3" cy="9" r="1" fill="rgba(86.8269%,86.9032%,86.9688%,1)"/>
  <circle cx="4" cy="9" r="1" fill="rgba(93.1075%,93.0861%,93.0678%,1)"/>
  <circle cx="5" cy="9" r="1" fill="rgba(82.7771%,83.1708%,83.4943%,1)"/>
  <circle cx="6" cy="9" r="1" fill="rgba(71.313%,72.7123%,73.7285%,1)"/>
  <circle cx="7" cy="9" r="1" fill="rgba(71.9402%,73.521%,74.6624%,1)"/>
  <circle cx="8" cy="9" r="1" fill="rgba(72.3583%,73.904%,75.0195%,1)"/>
  <circle cx="9" cy="9" r="1" fill="rgba(71.4595%,72.8542%,73.8613%,1)"/>
  <circle cx="10" cy="9" r="1" fill="rgba(82.8641%,83.2502%,83.5538%,1)"/>
  <circle cx="11" cy="9" r="1" fill="rgba(93.1304%,93.109%,93.0907%,1)"/>
  <circle cx="12" cy="9" r="1" fill="rgba(86.7613%,86.833%,86.9032%,1)"/>
  <circle cx="13" cy="9" r="1" fill="rgba(72.134%,73.3532%,74.4991%,1)"/>
  <circle cx="14" cy="9" r="1" fill="rgba(70.8003%,72.253%,73.5821%,1)"/>
  <circle cx="15" cy="9" r="1" fill="rgba(83.2242%,83.4409%,83.6484%,1)"/>
  <circle cx="0" cy="10" r="1" fill="rgba(82.5223%,82.7604%,82.9709%,1)"/>
  <circle cx="1" cy="10" r="1" fill="rgba(69.6773%,71.2016%,72.5872%,1)"/>
  <circle cx="2" cy="10" r="1" fill="rgba(70.6401%,72.2332%,73.6492%,1)"/>
  <circle cx="3" cy="10" r="1" fill="rgba(78.5046%,78.9227%,79.2676%,1)"/>
  <circle cx="4" cy="10" r="1" fill="rgba(92.2103%,92.1828%,92.1599%,1)"/>
  <circle cx="5" cy="10" r="1" fill="rgba(91.6701%,91.6823%,91.6899%,1)"/>
  <circle cx="6" cy="10" r="1" fill="rgba(81.9593%,82.4735%,82.7665%,1)"/>
  <circle cx="7" cy="10" r="1" fill="rgba(73.8979%,74.9523%,75.6771%,1)"/>
  <circle cx="8" cy="10" r="1" fill="rgba(73.8903%,74.9432%,75.6786%,1)"/>
  <circle cx="9" cy="10" r="1" fill="rgba(81.8875%,82.4018%,82.7192%,1)"/>
  <circle cx="10" cy="10" r="1" fill="rgba(91.6304%,91.6472%,91.6548%,1)"/>
  <circle cx="11" cy="10" r="1" fill="rgba(92.2042%,92.1767%,92.1523%,1)"/>
  <circle cx="12" cy="10" r="1" fill="rgba(78.3856%,78.8098%,79.1791%,1)"/>
  <circle cx="13" cy="10" r="1" fill="rgba(70.2663%,71.8883%,73.3425%,1)"/>
  <circle cx="14" cy="10" r="1" fill="rgba(69.4179%,70.9514%,72.3476%,1)"/>
  <circle cx="15" cy="10" r="1" fill="rgba(82.4887%,82.7253%,82.9404%,1)"/>
  <circle cx="0" cy="11" r="1" fill="rgba(81.9883%,82.2263%,82.4613%,1)"/>
  <circle cx="1" cy="11" r="1" fill="rgba(68.2795%,69.7704%,71.2825%,1)"/>
  <circle cx="2" cy="11" r="1" fill="rgba(70.045%,71.7494%,73.4524%,1)"/>
  <circle cx="3" cy="11" r="1" fill="rgba(70.2235%,71.4%,72.5658%,1)"/>
  <circle cx="4" cy="11" r="1" fill="rgba(82.1683%,82.298%,82.443%,1)"/>
  <circle cx="5" cy="11" r="1" fill="rgba(92.3171%,92.2927%,92.2683%,1)"/>
  <circle cx="6" cy="11" r="1" fill="rgba(93.1945%,93.1746%,93.164%,1)"/>
  <circle cx="7" cy="11" r="1" fill="rgba(89.6162%,89.6315%,89.6544%,1)"/>
  <circle cx="8" cy="11" r="1" fill="rgba(89.6361%,89.6498%,89.6757%,1)"/>
  <circle cx="9" cy="11" r="1" fill="rgba(93.164%,93.1426%,93.1334%,1)"/>
  <circle cx="10" cy="11" r="1" fill="rgba(92.2957%,92.2683%,92.2454%,1)"/>
  <circle cx="11" cy="11" r="1" fill="rgba(82.1408%,82.2797%,82.4079%,1)"/>
  <circle cx="12" cy="11" r="1" fill="rgba(70.0389%,71.22%,72.3857%,1)"/>
  <circle cx="13" cy="11" r="1" fill="rgba(69.7017%,71.4122%,73.1502%,1)"/>
  <circle cx="14" cy="11" r="1" fill="rgba(68.043%,69.5567%,71.0735%,1)"/>
  <circle cx="15" cy="11" r="1" fill="rgba(81.973%,82.2095%,82.4445%,1)"/>
  <circle cx="0" cy="12" r="1" fill="rgba(81.4237%,81.6709%,81.9074%,1)"/>
  <circle cx="1" cy="12" r="1" fill="rgba(66.8635%,68.4443%,69.9825%,1)"/>
  <circle cx="2" cy="12" r="1" fill="rgba(68.5847%,70.3761%,72.1157%,1)"/>
  <circle cx="3" cy="12" r="1" fill="rgba(68.687%,70.4021%,72.0974%,1)"/>
  <circle cx="4" cy="12" r="1" fill="rgba(68.925%,70.0343%,71.1696%,1)"/>
  <circle cx="5" cy="12" r="1" fill="rgba(77.1115%,77.438%,77.7493%,1)"/>
  <circle cx="6" cy="12" r="1" fill="rgba(86.3233%,86.3447%,86.3615%,1)"/>
  <circle cx="7" cy="12" r="1" fill="rgba(86.3096%,86.2852%,86.2593%,1)"/>
  <circle cx="8" cy="12" r="1" fill="rgba(86.2913%,86.2669%,86.2409%,1)"/>
  <circle cx="9" cy="12" r="1" fill="rgba(86.2745%,86.3005%,86.3203%,1)"/>
  <circle cx="10" cy="12" r="1" fill="rgba(77.1023%,77.4243%,77.7432%,1)"/>
  <circle cx="11" cy="12" r="1" fill="rgba(68.8792%,70.0084%,71.1437%,1)"/>
  <circle cx="12" cy="12" r="1" fill="rgba(68.4749%,70.2068%,71.9066%,1)"/>
  <circle cx="13" cy="12" r="1" fill="rgba(68.2963%,70.1091%,71.8715%,1)"/>
  <circle cx="14" cy="12" r="1" fill="rgba(66.7247%,68.3116%,69.8558%,1)"/>
  <circle cx="15" cy="12" r="1" fill="rgba(81.4267%,81.6739%,81.9089%,1)"/>
  <circle cx="0" cy="13" r="1" fill="rgba(80.6882%,80.94%,81.1841%,1)"/>
  <circle cx="1" cy="13" r="1" fill="rgba(65.5009%,67.1336%,68.7968%,1)"/>
  <circle cx="2" cy="13" r="1" fill="rgba(66.9795%,68.8609%,70.779%,1)"/>
  <circle cx="3" cy="13" r="1" fill="rgba(67.2114%,69.0562%,70.9346%,1)"/>
  <circle cx="4" cy="13" r="1" fill="rgba(67.2374%,69.0623%,70.9392%,1)"/>
  <circle cx="5" cy="13" r="1" fill="rgba(66.5522%,68.1544%,69.7627%,1)"/>
  <circle cx="6" cy="13" r="1" fill="rgba(67.8202%,68.9509%,70.1152%,1)"/>
  <circle cx="7" cy="13" r="1" fill="rgba(69.8833%,70.7439%,71.603%,1)"/>
  <circle cx="8" cy="13" r="1" fill="rgba(69.8863%,70.753%,71.5938%,1)"/>
  <circle cx="9" cy="13" r="1" fill="rgba(67.7928%,68.9464%,70.1213%,1)"/>
  <circle cx="10" cy="13" r="1" fill="rgba(66.5675%,68.1605%,69.781%,1)"/>
  <circle cx="11" cy="13" r="1" fill="rgba(67.1794%,69.015%,70.8934%,1)"/>
  <circle cx="12" cy="13" r="1" fill="rgba(67.0695%,68.9311%,70.8156%,1)"/>
  <circle cx="13" cy="13" r="1" fill="rgba(66.8376%,68.719%,70.6538%,1)"/>
  <circle cx="14" cy="13" r="1" fill="rgba(65.4704%,67.1031%,68.7694%,1)"/>
  <circle cx="15" cy="13" r="1" fill="rgba(80.6882%,80.9384%,81.1856%,1)"/>
  <circle cx="0" cy="14" r="1" fill="rgba(83.1388%,83.2609%,83.3814%,1)"/>
  <circle cx="1" cy="14" r="1" fill="rgba(61.1124%,62.3606%,63.621%,1)"/>
  <circle cx="2" cy="14" r="1" fill="rgba(61.8753%,63.5523%,65.2598%,1)"/>
  <circle cx="3" cy="14" r="1" fill="rgba(62.1729%,63.8346%,65.5177%,1)"/>
  <circle cx="4" cy="14" r="1" fill="rgba(62.4369%,64.0772%,65.7313%,1)"/>
  <circle cx="5" cy="14" r="1" fill="rgba(62.6871%,64.3397%,65.9968%,1)"/>
  <circle cx="6" cy="14" r="1" fill="rgba(62.8336%,64.48%,66.1265%,1)"/>
  <circle cx="7" cy="14" r="1" fill="rgba(62.858%,64.4663%,66.0807%,1)"/>
  <circle cx="8" cy="14" r="1" fill="rgba(62.8595%,64.4694%,66.0822%,1)"/>
  <circle cx="9" cy="14" r="1" fill="rgba(62.8321%,64.4816%,66.128%,1)"/>
  <circle cx="10" cy="14" r="1" fill="rgba(62.6841%,64.3381%,65.9953%,1)"/>
  <circle cx="11" cy="14" r="1" fill="rgba(62.4109%,64.0513%,65.7084%,1)"/>
  <circle cx="12" cy="14" r="1" fill="rgba(62.1393%,63.7995%,65.4841%,1)"/>
  <circle cx="13" cy="14" r="1" fill="rgba(61.8662%,63.5447%,65.2506%,1)"/>
  <circle cx="14" cy="14" r="1" fill="rgba(61.1124%,62.356%,63.6194%,1)"/>
  <circle cx="15" cy="14" r="1" fill="rgba(83.1662%,83.2868%,83.4089%,1)"/>
  <circle cx="0" cy="15" r="1" fill="rgba(96.1074%,96.1028%,96.0983%,1)"/>
  <circle cx="1" cy="15" r="1" fill="rgba(76.9818%,77.1008%,77.2198%,1)"/>
  <circle cx="2" cy="15" r="1" fill="rgba(69.1798%,69.4301%,69.6834%,1)"/>
  <circle cx="3" cy="15" r="1" fill="rgba(69.4789%,69.7261%,69.9733%,1)"/>
  <circle cx="4" cy="15" r="1" fill="rgba(69.5979%,69.8314%,70.0649%,1)"/>
  <circle cx="5" cy="15" r="1" fill="rgba(69.7047%,69.9397%,70.1671%,1)"/>
  <circle cx="6" cy="15" r="1" fill="rgba(69.8222%,70.0496%,70.2708%,1)"/>
  <circle cx="7" cy="15" r="1" fill="rgba(69.9229%,70.1396%,70.3548%,1)"/>
  <circle cx="8" cy="15" r="1" fill="rgba(69.9229%,70.1396%,70.3548%,1)"/>
  <circle cx="9" cy="15" r="1" fill="rgba(69.8222%,70.0496%,70.2708%,1)"/>
  <circle cx="10" cy="15" r="1" fill="rgba(69.7047%,69.9397%,70.1671%,1)"/>
  <circle cx="11" cy="15" r="1" fill="rgba(69.5979%,69.8329%,70.0664%,1)"/>
  <circle cx="12" cy="15" r="1" fill="rgba(69.4804%,69.7276%,69.9748%,1)"/>
  <circle cx="13" cy="15" r="1" fill="rgba(69.1829%,69.4331%,69.6849%,1)"/>
  <circle cx="14" cy="15" r="1" fill="rgba(77.023%,77.1389%,77.258%,1)"/>
  <circle cx="15" cy="15" r="1" fill="rgba(96.1349%,96.1288%,96.1242%,1)"/>
</svg>
