<?xml version="1.0" standalone="no"?>
<!DOCTYPE svg PUBLIC "-//W3C//DTD SVG 20010904//EN"
  "http://www.w3.org/TR/2001/REC-SVG-20010904/DTD/svg10.dtd">
<svg width="16" height="16">
  <circle cx="0" cy="0" r="1" fill="white"/>
  <circle cx="1" cy="0" r="1" fill="white"/>
  <circle cx="2" cy="0" r="1" fill="white"/>
  <circle cx="3" cy="0" r="1" fill="white"/>
  <circle cx="4" cy="0" r="1" fill="white"/>
  <circle cx="5" cy="0" r="1" fill="white"/>
  <circle cx="6" cy="0" r="1" fill="white"/>
  <circle cx="7" cy="0" r="1" fill="white"/>
  <circle cx="8" cy="0" r="1" fill="white"/>
  <circle cx="9" cy="0" r="1" fill="white"/>
  <circle cx="10" cy="0" r="1" fill="grey84"/>
  <circle cx="11" cy="0" r="1" fill="grey72"/>
  <circle cx="12" cy="0" r="1" fill="white"/>
  <circle cx="13" cy="0" r="1" fill="white"/>
  <circle cx="14" cy="0" r="1" fill="white"/>
  <circle cx="15" cy="0" r="1" fill="white"/>
  <circle cx="0" cy="1" r="1" fill="white"/>
  <circle cx="1" cy="1" r="1" fill="white"/>
  <circle cx="2" cy="1" r="1" fill="white"/>
  <circle cx="3" cy="1" r="1" fill="white"/>
  <circle cx="4" cy="1" r="1" fill="white"/>
  <circle cx="5" cy="1" r="1" fill="white"/>
  <circle cx="6" cy="1" r="1" fill="white"/>
  <circle cx="7" cy="1" r="1" fill="white"/>
  <circle cx="8" cy="1" r="1" fill="white"/>
  <circle cx="9" cy="1" r="1" fill="rgba(249,249,249,1)"/>
  <circle cx="10" cy="1" r="1" fill="rgba(49.4102%,49.4102%,49.4102%,1)"/>
  <circle cx="11" cy="1" r="1" fill="grey62"/>
  <circle cx="12" cy="1" r="1" fill="white"/>
  <circle cx="13" cy="1" r="1" fill="white"/>
  <circle cx="14" cy="1" r="1" fill="white"/>
  <circle cx="15" cy="1" r="1" fill="white"/>
  <circle cx="0" cy="2" r="1" fill="white"/>
  <circle cx="1" cy="2" r="1" fill="white"/>
  <circle cx="2" cy="2" r="1" fill="white"/>
  <circle cx="3" cy="2" r="1" fill="white"/>
  <circle cx="4" cy="2" r="1" fill="white"/>
  <circle cx="5" cy="2" r="1" fill="white"/>
  <circle cx="6" cy="2" r="1" fill="white"/>
  <circle cx="7" cy="2" r="1" fill="white"/>
  <circle cx="8" cy="2" r="1" fill="white"/>
  <circle cx="9" cy="2" r="1" fill="rgba(178,178,178,1)"/>
  <circle cx="10" cy="2" r="1" fill="rgba(106,106,106,1)"/>
  <circle cx="11" cy="2" r="1" fill="rgba(131,131,131,1)"/>
  <circle cx="12" cy="2" r="1" fill="white"/>
  <circle cx="13" cy="2" r="1" fill="white"/>
  <circle cx="14" cy="2" r="1" fill="white"/>
  <circle cx="15" cy="2" r="1" fill="white"/>
  <circle cx="0" cy="3" r="1" fill="white"/>
  <circle cx="1" cy="3" r="1" fill="white"/>
  <circle cx="2" cy="3" r="1" fill="white"/>
  <circle cx="3" cy="3" r="1" fill="white"/>
  <circle cx="4" cy="3" r="1" fill="white"/>
  <circle cx="5" cy="3" r="1" fill="white"/>
  <circle cx="6" cy="3" r="1" fill="white"/>
  <circle cx="7" cy="3" r="1" fill="white"/>
  <circle cx="8" cy="3" r="1" fill="grey92"/>
  <circle cx="9" cy="3" r="1" fill="grey48"/>
  <circle cx="10" cy="3" r="1" fill="rgba(103,103,103,1)"/>
  <circle cx="11" cy="3" r="1" fill="grey42"/>
  <circle cx="12" cy="3" r="1" fill="grey99"/>
  <circle cx="13" cy="3" r="1" fill="white"/>
  <circle cx="14" cy="3" r="1" fill="white"/>
  <circle cx="15" cy="3" r="1" fill="white"/>
  <circle cx="0" cy="4" r="1" fill="white"/>
  <circle cx="1" cy="4" r="1" fill="white"/>
  <circle cx="2" cy="4" r="1" fill="white"/>
  <circle cx="3" cy="4" r="1" fill="white"/>
  <circle cx="4" cy="4" r="1" fill="white"/>
  <circle cx="5" cy="4" r="1" fill="white"/>
  <circle cx="6" cy="4" r="1" fill="white"/>
  <circle cx="7" cy="4" r="1" fill="white"/>
  <circle cx="8" cy="4" r="1" fill="grey57"/>
  <circle cx="9" cy="4" r="1" fill="gainsboro"/>
  <circle cx="10" cy="4" r="1" fill="rgba(100,100,100,1)"/>
  <circle cx="11" cy="4" r="1" fill="rgba(100,100,100,1)"/>
  <circle cx="12" cy="4" r="1" fill="grey90"/>
  <circle cx="13" cy="4" r="1" fill="white"/>
  <circle cx="14" cy="4" r="1" fill="white"/>
  <circle cx="15" cy="4" r="1" fill="white"/>
  <circle cx="0" cy="5" r="1" fill="white"/>
  <circle cx="1" cy="5" r="1" fill="white"/>
  <circle cx="2" cy="5" r="1" fill="white"/>
  <circle cx="3" cy="5" r="1" fill="white"/>
  <circle cx="4" cy="5" r="1" fill="white"/>
  <circle cx="5" cy="5" r="1" fill="white"/>
  <circle cx="6" cy="5" r="1" fill="white"/>
  <circle cx="7" cy="5" r="1" fill="rgba(205,205,205,1)"/>
  <circle cx="8" cy="5" r="1" fill="rgba(164,164,164,1)"/>
  <circle cx="9" cy="5" r="1" fill="white"/>
  <circle cx="10" cy="5" r="1" fill="rgba(44.7044%,44.7044%,44.7044%,1)"/>
  <circle cx="11" cy="5" r="1" fill="grey38"/>
  <circle cx="12" cy="5" r="1" fill="rgba(202,202,202,1)"/>
  <circle cx="13" cy="5" r="1" fill="white"/>
  <circle cx="14" cy="5" r="1" fill="white"/>
  <circle cx="15" cy="5" r="1" fill="white"/>
  <circle cx="0" cy="6" r="1" fill="white"/>
  <circle cx="1" cy="6" r="1" fill="white"/>
  <circle cx="2" cy="6" r="1" fill="white"/>
  <circle cx="3" cy="6" r="1" fill="white"/>
  <circle cx="4" cy="6" r="1" fill="white"/>
  <circle cx="5" cy="6" r="1" fill="white"/>
  <circle cx="6" cy="6" r="1" fill="grey98"/>
  <circle cx="7" cy="6" r="1" fill="rgba(49.4102%,49.4102%,49.4102%,1)"/>
  <circle cx="8" cy="6" r="1" fill="grey95"/>
  <circle cx="9" cy="6" r="1" fill="white"/>
  <circle cx="10" cy="6" r="1" fill="grey54"/>
  <circle cx="11" cy="6" r="1" fill="grey37"/>
  <circle cx="12" cy="6" r="1" fill="rgba(175,175,175,1)"/>
  <circle cx="13" cy="6" r="1" fill="white"/>
  <circle cx="14" cy="6" r="1" fill="white"/>
  <circle cx="15" cy="6" r="1" fill="white"/>
  <circle cx="0" cy="7" r="1" fill="white"/>
  <circle cx="1" cy="7" r="1" fill="white"/>
  <circle cx="2" cy="7" r="1" fill="white"/>
  <circle cx="3" cy="7" r="1" fill="white"/>
  <circle cx="4" cy="7" r="1" fill="white"/>
  <circle cx="5" cy="7" r="1" fill="white"/>
  <circle cx="6" cy="7" r="1" fill="rgba(170,170,170,1)"/>
  <circle cx="7" cy="7" r="1" fill="rgba(187,187,187,1)"/>
  <circle cx="8" cy="7" r="1" fill="white"/>
  <circle cx="9" cy="7" r="1" fill="white"/>
  <circle cx="10" cy="7" r="1" fill="rgba(164,164,164,1)"/>
  <circle cx="11" cy="7" r="1" fill="rgba(91,91,91,1)"/>
  <circle cx="12" cy="7" r="1" fill="rgba(144,144,144,1)"/>
  <circle cx="13" cy="7" r="1" fill="white"/>
  <circle cx="14" cy="7" r="1" fill="white"/>
  <circle cx="15" cy="7" r="1" fill="white"/>
  <circle cx="0" cy="8" r="1" fill="white"/>
  <circle cx="1" cy="8" r="1" fill="white"/>
  <circle cx="2" cy="8" r="1" fill="white"/>
  <circle cx="3" cy="8" r="1" fill="white"/>
  <circle cx="4" cy="8" r="1" fill="white"/>
  <circle cx="5" cy="8" r="1" fill="grey90"/>
  <circle cx="6" cy="8" r="1" fill="grey48"/>
  <circle cx="7" cy="8" r="1" fill="rgba(253,253,253,1)"/>
  <circle cx="8" cy="8" r="1" fill="white"/>
  <circle cx="9" cy="8" r="1" fill="white"/>
  <circle cx="10" cy="8" r="1" fill="grey75"/>
  <circle cx="11" cy="8" r="1" fill="rgba(88,88,88,1)"/>
  <circle cx="12" cy="8" r="1" fill="rgba(114,114,114,1)"/>
  <circle cx="13" cy="8" r="1" fill="white"/>
  <circle cx="14" cy="8" r="1" fill="white"/>
  <circle cx="15" cy="8" r="1" fill="white"/>
  <circle cx="0" cy="9" r="1" fill="white"/>
  <circle cx="1" cy="9" r="1" fill="white"/>
  <circle cx="2" cy="9" r="1" fill="white"/>
  <circle cx="3" cy="9" r="1" fill="white"/>
  <circle cx="4" cy="9" r="1" fill="white"/>
  <circle cx="5" cy="9" r="1" fill="rgba(136,136,136,1)"/>
  <circle cx="6" cy="9" r="1" fill="grey61"/>
  <circle cx="7" cy="9" r="1" fill="rgba(198,198,198,1)"/>
  <circle cx="8" cy="9" r="1" fill="rgba(198,198,198,1)"/>
  <circle cx="9" cy="9" r="1" fill="rgba(198,198,198,1)"/>
  <circle cx="10" cy="9" r="1" fill="rgba(170,170,170,1)"/>
  <circle cx="11" cy="9" r="1" fill="rgba(85,85,85,1)"/>
  <circle cx="12" cy="9" r="1" fill="rgba(34.5083%,34.5083%,34.5083%,1)"/>
  <circle cx="13" cy="9" r="1" fill="rgba(251,251,251,1)"/>
  <circle cx="14" cy="9" r="1" fill="white"/>
  <circle cx="15" cy="9" r="1" fill="white"/>
  <circle cx="0" cy="10" r="1" fill="white"/>
  <circle cx="1" cy="10" r="1" fill="white"/>
  <circle cx="2" cy="10" r="1" fill="white"/>
  <circle cx="3" cy="10" r="1" fill="white"/>
  <circle cx="4" cy="10" r="1" fill="rgba(203,203,203,1)"/>
  <circle cx="5" cy="10" r="1" fill="rgba(35.2926%,35.2926%,35.2926%,1)"/>
  <circle cx="6" cy="10" r="1" fill="DimGray"/>
  <circle cx="7" cy="10" r="1" fill="DimGray"/>
  <circle cx="8" cy="10" r="1" fill="DimGray"/>
  <circle cx="9" cy="10" r="1" fill="DimGray"/>
  <circle cx="10" cy="10" r="1" fill="rgba(104,104,104,1)"/>
  <circle cx="11" cy="10" r="1" fill="grey32"/>
  <circle cx="12" cy="10" r="1" fill="grey32"/>
  <circle cx="13" cy="10" r="1" fill="grey88"/>
  <circle cx="14" cy="10" r="1" fill="white"/>
  <circle cx="15" cy="10" r="1" fill="white"/>
  <circle cx="0" cy="11" r="1" fill="white"/>
  <circle cx="1" cy="11" r="1" fill="white"/>
  <circle cx="2" cy="11" r="1" fill="white"/>
  <circle cx="3" cy="11" r="1" fill="grey97"/>
  <circle cx="4" cy="11" r="1" fill="grey39"/>
  <circle cx="5" cy="11" r="1" fill="rgba(203,203,203,1)"/>
  <circle cx="6" cy="11" r="1" fill="white"/>
  <circle cx="7" cy="11" r="1" fill="white"/>
  <circle cx="8" cy="11" r="1" fill="white"/>
  <circle cx="9" cy="11" r="1" fill="white"/>
  <circle cx="10" cy="11" r="1" fill="rgba(254,254,254,1)"/>
  <circle cx="11" cy="11" r="1" fill="rgba(86,86,86,1)"/>
  <circle cx="12" cy="11" r="1" fill="grey31"/>
  <circle cx="13" cy="11" r="1" fill="rgba(193,193,193,1)"/>
  <circle cx="14" cy="11" r="1" fill="white"/>
  <circle cx="15" cy="11" r="1" fill="white"/>
  <circle cx="0" cy="12" r="1" fill="white"/>
  <circle cx="1" cy="12" r="1" fill="white"/>
  <circle cx="2" cy="12" r="1" fill="white"/>
  <circle cx="3" cy="12" r="1" fill="rgba(162,162,162,1)"/>
  <circle cx="4" cy="12" r="1" fill="rgba(124,124,124,1)"/>
  <circle cx="5" cy="12" r="1" fill="white"/>
  <circle cx="6" cy="12" r="1" fill="white"/>
  <circle cx="7" cy="12" r="1" fill="white"/>
  <circle cx="8" cy="12" r="1" fill="white"/>
  <circle cx="9" cy="12" r="1" fill="white"/>
  <circle cx="10" cy="12" r="1" fill="white"/>
  <circle cx="11" cy="12" r="1" fill="rgba(109,109,109,1)"/>
  <circle cx="12" cy="12" r="1" fill="rgba(76,76,76,1)"/>
  <circle cx="13" cy="12" r="1" fill="rgba(162,162,162,1)"/>
  <circle cx="14" cy="12" r="1" fill="white"/>
  <circle cx="15" cy="12" r="1" fill="white"/>
  <circle cx="0" cy="13" r="1" fill="white"/>
  <circle cx="1" cy="13" r="1" fill="white"/>
  <circle cx="2" cy="13" r="1" fill="rgba(223,223,223,1)"/>
  <circle cx="3" cy="13" r="1" fill="rgba(30.5867%,30.5867%,30.5867%,1)"/>
  <circle cx="4" cy="13" r="1" fill="grey85"/>
  <circle cx="5" cy="13" r="1" fill="white"/>
  <circle cx="6" cy="13" r="1" fill="white"/>
  <circle cx="7" cy="13" r="1" fill="white"/>
  <circle cx="8" cy="13" r="1" fill="white"/>
  <circle cx="9" cy="13" r="1" fill="white"/>
  <circle cx="10" cy="13" r="1" fill="white"/>
  <circle cx="11" cy="13" r="1" fill="rgba(51.7632%,51.7632%,51.7632%,1)"/>
  <circle cx="12" cy="13" r="1" fill="rgba(72,72,72,1)"/>
  <circle cx="13" cy="13" r="1" fill="rgba(50.5867%,50.5867%,50.5867%,1)"/>
  <circle cx="14" cy="13" r="1" fill="white"/>
  <circle cx="15" cy="13" r="1" fill="white"/>
  <circle cx="0" cy="14" r="1" fill="white"/>
  <circle cx="1" cy="14" r="1" fill="grey94"/>
  <circle cx="2" cy="14" r="1" fill="grey40"/>
  <circle cx="3" cy="14" r="1" fill="rgba(96,96,96,1)"/>
  <circle cx="4" cy="14" r="1" fill="white"/>
  <circle cx="5" cy="14" r="1" fill="white"/>
  <circle cx="6" cy="14" r="1" fill="white"/>
  <circle cx="7" cy="14" r="1" fill="white"/>
  <circle cx="8" cy="14" r="1" fill="white"/>
  <circle cx="9" cy="14" r="1" fill="white"/>
  <circle cx="10" cy="14" r="1" fill="white"/>
  <circle cx="11" cy="14" r="1" fill="rgba(149,149,149,1)"/>
  <circle cx="12" cy="14" r="1" fill="grey27"/>
  <circle cx="13" cy="14" r="1" fill="rgba(35.2926%,35.2926%,35.2926%,1)"/>
  <circle cx="14" cy="14" r="1" fill="rgba(253,253,253,1)"/>
  <circle cx="15" cy="14" r="1" fill="white"/>
  <circle cx="0" cy="15" r="1" fill="rgba(205,205,205,1)"/>
  <circle cx="1" cy="15" r="1" fill="grey37"/>
  <circle cx="2" cy="15" r="1" fill="rgba(80,80,80,1)"/>
  <circle cx="3" cy="15" r="1" fill="rgba(31.7632%,31.7632%,31.7632%,1)"/>
  <circle cx="4" cy="15" r="1" fill="grey54"/>
  <circle cx="5" cy="15" r="1" fill="rgba(236,236,236,1)"/>
  <circle cx="6" cy="15" r="1" fill="white"/>
  <circle cx="7" cy="15" r="1" fill="white"/>
  <circle cx="8" cy="15" r="1" fill="white"/>
  <circle cx="9" cy="15" r="1" fill="grey93"/>
  <circle cx="10" cy="15" r="1" fill="rgba(136,136,136,1)"/>
  <circle cx="11" cy="15" r="1" fill="grey34"/>
  <circle cx="12" cy="15" r="1" fill="rgba(80,80,80,1)"/>
  <circle cx="13" cy="15" r="1" fill="rgba(80,80,80,1)"/>
  <circle cx="14" cy="15" r="1" fill="rgba(116,116,116,1)"/>
  <circle cx="15" cy="15" r="1" fill="rgba(205,205,205,1)"/>
</svg>
